<svg width="241" height="241" viewBox="0 0 241 241" fill="none" xmlns="http://www.w3.org/2000/svg">
<g clip-path="url(#clip0_2_116)">
<path d="M120.498 241C117.751 241 115.015 240.907 112.36 240.729C109.624 240.548 106.876 240.27 104.198 239.902C103.02 239.744 101.953 239.586 100.937 239.419C97.9187 238.929 94.8465 238.306 91.8053 237.564C90.7619 237.313 89.7456 237.051 88.7795 236.78C88.4394 236.691 88.0917 236.594 87.7477 236.498C86.2793 236.084 84.8572 235.655 83.5279 235.223C83.4428 235.199 83.3424 235.165 83.2419 235.134C82.0439 234.747 80.7919 234.318 79.5244 233.858C78.454 233.472 77.3719 233.062 76.2165 232.606C72.4449 231.119 68.6888 229.407 65.0524 227.521C45.7616 217.504 29.5043 202.436 18.0272 183.945C6.23706 164.924 0 142.985 0 120.498C0 88.3109 12.5359 58.0482 35.2931 35.2903C58.0502 12.5325 88.3119 0 120.498 0C152.684 0 182.946 12.5325 205.707 35.2903C228.468 58.0482 241 88.3109 241 120.498C241 139.411 236.741 157.516 228.348 174.307C220.341 190.321 208.621 204.616 194.446 215.641C187.687 220.901 180.368 225.446 172.682 229.14C171.813 229.561 170.881 229.99 169.761 230.496L169.637 230.55C169.502 230.612 169.37 230.67 169.235 230.728C168.393 231.103 167.535 231.47 166.689 231.818L166.306 231.98C166.078 232.077 165.85 232.17 165.618 232.259C162.511 233.515 159.323 234.655 156.135 235.632C153.77 236.367 151.293 237.047 148.77 237.653C139.576 239.872 130.062 240.996 120.498 240.996V241ZM120.498 0.784488C88.5167 0.784488 58.4521 13.2358 35.8418 35.8507C13.2277 58.4501 0.772869 88.5157 0.772869 120.498C0.772869 142.842 6.97128 164.638 18.6918 183.531C30.0917 201.903 46.2485 216.878 65.4157 226.829C69.0288 228.703 72.7618 230.404 76.5102 231.884C77.6579 232.34 78.7322 232.745 79.7949 233.128C81.0585 233.584 82.299 234.009 83.4931 234.396C83.5858 234.427 83.6747 234.454 83.7636 234.481C85.0929 234.913 86.5034 235.339 87.9641 235.752C88.3042 235.849 88.6442 235.945 88.9843 236.034C89.9465 236.301 90.9551 236.564 91.9908 236.815C95.0127 237.553 98.0617 238.171 101.064 238.658C102.073 238.824 103.132 238.983 104.303 239.141C106.961 239.504 109.689 239.783 112.41 239.96C115.045 240.138 117.766 240.231 120.494 240.231C129.997 240.231 139.449 239.114 148.588 236.911C151.096 236.309 153.558 235.632 155.907 234.906C159.072 233.932 162.245 232.803 165.332 231.551C165.564 231.462 165.784 231.37 166.005 231.277L166.461 231.084C167.276 230.748 168.103 230.392 168.922 230.029C169.061 229.971 169.189 229.913 169.316 229.855L169.44 229.801C170.553 229.298 171.477 228.869 172.342 228.452C179.978 224.781 187.255 220.267 193.967 215.038C208.049 204.079 219.696 189.877 227.653 173.967C235.992 157.284 240.223 139.295 240.223 120.502C240.223 88.5196 227.768 58.454 205.154 35.843C182.548 13.2242 152.479 0.772894 120.498 0.772894V0.784488Z" fill="#DDDEDF"/>
<path d="M109.554 68.7257C109.554 68.7257 88.3892 71.114 87.0251 103.889C85.889 131.199 83.5626 146.421 94.6726 152.117C98.6452 154.154 103.313 154.332 107.556 152.94L152.912 138.027C152.912 138.027 153.596 88.8674 137.891 76.9184C122.187 64.9695 109.558 68.7257 109.558 68.7257H109.554Z" fill="#2F2E41"/>
<path d="M134.557 144.064L111.602 151.611V118.57H132.427L134.557 144.064Z" fill="#F6A6A9"/>
<path d="M165.479 231.903C162.388 233.155 159.234 234.28 156.023 235.269C153.608 236.019 151.158 236.687 148.681 237.282C139.642 239.462 130.201 240.614 120.498 240.614C117.77 240.614 115.065 240.525 112.387 240.343C109.647 240.162 106.934 239.887 104.252 239.52C103.163 239.373 102.081 239.215 101.002 239.037C97.9303 238.538 94.8929 237.916 91.9019 237.186C90.8933 236.942 89.8886 236.683 88.8877 236.405C88.5438 236.316 88.1999 236.22 87.8598 236.123C86.4493 235.725 85.0465 235.304 83.6554 234.852C83.5626 234.825 83.466 234.794 83.3733 234.763C82.129 234.361 80.8924 233.936 79.6635 233.491C78.5583 233.093 77.4608 232.676 76.3672 232.243L100.214 153.752L101.207 150.486L104.732 138.889L104.759 138.796L104.786 138.711H146.432L146.71 140.068L153.538 173.472L158.458 197.548L163.296 221.21L165.286 230.949L165.479 231.903Z" fill="#DDDEDF"/>
<path d="M111.355 138.731L108.553 150.336L108.163 151.962L107.958 152.809L95.5305 204.326L87.8598 236.123C86.4493 235.725 85.0465 235.304 83.6554 234.852C83.5626 234.824 83.466 234.794 83.3733 234.763C82.129 234.361 80.8924 233.936 79.6635 233.491C78.5583 233.093 77.4608 232.676 76.3672 232.243C72.557 230.74 68.8433 229.043 65.2379 227.173C73.2873 187.33 81.3677 148.156 82.6816 144.875C83.2573 143.434 84.8688 142.328 87.0521 141.478C87.682 141.231 88.3621 141.007 89.0771 140.802C93.7645 139.465 100.021 138.974 104.712 138.8H104.759C106.629 138.734 108.248 138.715 109.415 138.715C110.582 138.715 111.355 138.734 111.355 138.734V138.731Z" fill="#DDDEDF"/>
<path d="M114.443 127.717C127.075 127.717 137.316 117.476 137.316 104.843C137.316 92.2102 127.075 81.9692 114.443 81.9692C101.81 81.9692 91.5695 92.2102 91.5695 104.843C91.5695 117.476 101.81 127.717 114.443 127.717Z" fill="#F6A6A9"/>
<path d="M108.19 77.2625C108.19 77.2625 95.604 128.37 109.601 152.268L89.8847 148.079C89.8847 148.079 82.2449 92.1368 97.6095 81.9694L108.194 77.2625H108.19Z" fill="#2F2E41"/>
<path opacity="0.1" d="M104.252 239.52C103.163 239.373 102.081 239.215 101.002 239.037C97.9303 238.538 94.8929 237.916 91.9019 237.186C90.8933 236.942 89.8886 236.683 88.8877 236.405L90.1745 226.535L93.6099 200.168L95.1557 205.88L96.5777 211.139L104.252 239.52Z" fill="#272223"/>
<path opacity="0.1" d="M169.084 230.377C168.242 230.751 167.396 231.115 166.542 231.466C166.414 231.52 166.287 231.575 166.159 231.629C165.935 231.721 165.711 231.814 165.483 231.903C162.391 233.155 159.238 234.28 156.027 235.269C148.399 229.87 142.521 222.35 139.128 213.64L137.32 208.998L125.734 175.439L151.401 202.371L156.093 209.798L163.3 221.206L169.088 230.373H169.084V230.377Z" fill="#272223"/>
<path d="M194.21 215.34C187.51 220.557 180.245 225.078 172.516 228.796C171.554 229.26 170.58 229.708 169.602 230.149C169.428 230.226 169.258 230.303 169.084 230.377C168.242 230.751 167.396 231.115 166.542 231.466C166.121 231.304 165.703 231.13 165.29 230.948C161.051 229.094 157.263 226.272 153.921 222.976C149.43 218.536 145.752 213.226 142.865 208.21C141.443 205.741 140.214 203.341 139.174 201.153L139.159 201.119C136.357 195.194 134.97 190.835 134.97 190.835L131.241 175.52L130.217 171.32L124.389 147.406L122.272 138.711L125.433 138.572L134.07 138.193L143.595 137.772C145.79 137.938 147.931 138.348 149.991 138.99C156.603 141.018 162.353 145.354 166.128 151.321C176.508 167.733 193.128 196.682 194.214 215.34H194.21Z" fill="#DDDEDF"/>
<path d="M85.6842 128.057C90.6962 126.252 103.963 126.245 109.914 128.254C111.069 128.644 111.769 129.819 111.568 131.021L111.332 132.447C111.85 132.37 112.356 132.223 112.835 132.003C114.253 131.353 117.047 130.472 119.868 131.879C121.839 132.861 123.226 134.712 123.713 136.864C124.876 142.012 121.943 144.86 121.943 144.86L118.036 148.527C114.763 151.596 111.193 154.332 107.379 156.689L107.301 156.735L108.692 148.365C109.477 149.744 111.251 150.197 112.599 149.362C116.008 147.252 121.576 143.024 120.9 138.224C120.429 134.878 118.57 134.167 116.784 134.317C114.787 134.488 113.044 135.743 112.19 137.556C111.985 137.989 111.649 138.344 111.231 138.576L110.227 139.125L107.282 156.867C107.151 157.663 106.641 158.351 105.918 158.706C98.993 162.103 91.5193 160.341 88.9341 159.549C88.3428 159.367 87.8366 158.977 87.5197 158.443L86.9633 157.52C86.7701 157.203 86.6541 156.843 86.6155 156.476L84.0457 130.654C83.9336 129.514 84.6099 128.447 85.688 128.057H85.6842Z" fill="#041F30"/>
<path d="M109.322 129.429C109.322 130.036 104.109 130.526 97.6791 130.526C91.2488 130.526 86.0358 130.036 86.0358 129.429C86.0358 128.822 91.2488 128.331 97.6791 128.331C104.109 128.331 109.322 128.822 109.322 129.429Z" fill="#DEDFE0"/>
<path d="M114.953 153.667C110.571 147.368 110.412 139.959 114.597 137.115C118.782 134.271 125.723 137.069 130.105 143.372C131.89 145.864 133.026 148.755 133.42 151.804L151.629 178.728L138.266 187.191L121.735 159.753C118.995 158.3 116.669 156.213 114.953 153.671V153.667Z" fill="#F6A6A9"/>
<path d="M125.73 175.443L140.778 161.593L170.53 189.297L142.861 208.21L125.73 175.443Z" fill="#DDDEDF"/>
<path opacity="0.1" d="M167.902 193.138L169.084 202.224L161.201 193.138V183.976L167.902 193.138Z" fill="#272223"/>
</g>
<defs>
<clipPath id="clip0_2_116">
<rect width="241" height="241" fill="white"/>
</clipPath>
</defs>
</svg>
