<svg width="261" height="244" viewBox="0 0 261 244" fill="none" xmlns="http://www.w3.org/2000/svg">
<g clip-path="url(#clip0_2_446)">
<path d="M241.269 186.667L252.978 188.496C256.941 183.7 259.673 178.009 260.937 171.917C252.375 178.922 239.356 175.2 228.974 179.024C225.745 180.242 222.832 182.17 220.45 184.666C218.068 187.162 216.279 190.162 215.215 193.443L209.492 199.596C214.672 201.646 220.235 202.549 225.797 202.243C231.36 201.937 236.79 200.429 241.713 197.823C244.46 196.334 247.009 194.505 249.299 192.379C245.203 189.801 241.269 186.667 241.269 186.667Z" fill="#F2F2F2"/>
<path d="M237.113 167.95L248.408 164.367C249.816 158.307 249.722 151.996 248.135 145.98C243.598 156.067 230.283 158.539 222.698 166.59C220.351 169.119 218.604 172.143 217.586 175.439C216.568 178.735 216.304 182.217 216.816 185.629L214.44 193.687C219.991 193.213 225.372 191.541 230.214 188.788C235.056 186.034 239.244 182.264 242.487 177.737C244.282 175.179 245.747 172.406 246.849 169.483C242.031 169.001 237.113 167.95 237.113 167.95Z" fill="#F2F2F2"/>
<path d="M261 203.324C261 203.384 260.988 203.444 260.965 203.5C260.942 203.556 260.908 203.607 260.866 203.649C260.823 203.692 260.772 203.726 260.716 203.749C260.661 203.772 260.601 203.784 260.54 203.783H0.459678C0.337764 203.783 0.220842 203.735 0.134636 203.649C0.0484295 203.563 0 203.446 0 203.324C0 203.202 0.0484295 203.085 0.134636 202.999C0.220842 202.913 0.337764 202.865 0.459678 202.865H260.54C260.601 202.864 260.661 202.876 260.716 202.899C260.772 202.922 260.823 202.956 260.866 202.999C260.908 203.041 260.942 203.092 260.965 203.148C260.988 203.204 261 203.264 261 203.324Z" fill="#CCCCCC"/>
<path d="M107.772 183.736C153.64 183.736 190.823 146.57 190.823 100.723C190.823 54.8756 153.64 17.7092 107.772 17.7092C61.9044 17.7092 24.7213 54.8756 24.7213 100.723C24.7213 146.57 61.9044 183.736 107.772 183.736Z" fill="#E6E6E6"/>
<path d="M179.235 100.723C179.243 111.868 176.638 122.861 171.629 132.819C166.62 142.777 159.346 151.423 150.391 158.063C149.792 158.511 149.182 158.948 148.568 159.372C136.592 167.693 122.357 172.153 107.772 172.153C93.1877 172.153 78.9522 167.693 66.9768 159.372C66.3626 158.948 65.7522 158.511 65.1535 158.063C56.2043 151.417 48.9349 142.77 43.9266 132.813C38.9182 122.856 36.3098 111.867 36.3098 100.723C36.3098 89.5783 38.9182 78.5886 43.9266 68.632C48.9349 58.6755 56.2043 50.0282 65.1535 43.3816C65.7522 42.9337 66.3626 42.4974 66.9768 42.0727C78.9522 33.7521 93.1877 29.2925 107.772 29.2925C122.357 29.2925 136.592 33.7521 148.568 42.0727C149.182 42.4974 149.792 42.9337 150.391 43.3816C159.346 50.0224 166.62 58.6684 171.629 68.6263C176.638 78.5842 179.243 89.5768 179.235 100.723Z" fill="white"/>
<path d="M107.772 165.975C143.826 165.975 173.054 136.76 173.054 100.723C173.054 64.6847 143.826 35.4702 107.772 35.4702C71.718 35.4702 42.4903 64.6847 42.4903 100.723C42.4903 136.76 71.718 165.975 107.772 165.975Z" fill="#041F30"/>
<path opacity="0.2" d="M107.942 35.6526C106.953 35.6526 105.969 35.6785 104.99 35.722C121.49 37.1712 136.822 44.8353 147.879 57.1616C158.936 69.4878 164.893 85.5545 164.541 102.106C164.19 118.658 157.557 134.458 145.986 146.304C134.415 158.15 118.772 165.157 102.226 165.905C104.11 166.069 106.016 166.157 107.942 166.157C125.256 166.157 141.861 159.282 154.104 147.045C166.346 134.808 173.224 118.211 173.224 100.905C173.224 83.5989 166.346 67.0017 154.104 54.7646C141.861 42.5274 125.256 35.6526 107.942 35.6526Z" fill="black"/>
<path d="M107.965 30.8369C107.402 30.8379 106.862 31.062 106.464 31.46C106.066 31.858 105.842 32.3976 105.841 32.9605V42.2271C105.841 42.7903 106.065 43.3305 106.463 43.7287C106.861 44.127 107.402 44.3507 107.965 44.3507C108.529 44.3507 109.069 44.127 109.468 43.7287C109.866 43.3305 110.09 42.7903 110.09 42.2271V32.9605C110.089 32.3976 109.865 31.858 109.467 31.46C109.068 31.062 108.528 30.8379 107.965 30.8369Z" fill="white"/>
<path d="M150.391 43.3815C149.792 42.9336 149.182 42.4973 148.568 42.0726C148.199 42.0486 147.831 42.1211 147.499 42.2829C147.167 42.4448 146.883 42.6903 146.675 42.9954L141.456 50.6519C141.139 51.1174 141.02 51.6896 141.125 52.2428C141.23 52.796 141.551 53.2849 142.016 53.6018C142.482 53.9187 143.054 54.0378 143.608 53.9328C144.161 53.8278 144.65 53.5074 144.967 53.042L150.186 45.3854C150.385 45.0949 150.507 44.7595 150.543 44.4095C150.579 44.0595 150.527 43.7061 150.391 43.3815Z" fill="white"/>
<path d="M174.101 78.2935C173.996 78.0354 173.841 77.8004 173.645 77.6021C173.449 77.4038 173.216 77.2459 172.96 77.1377C172.703 77.0294 172.427 76.9727 172.148 76.971C171.87 76.9692 171.593 77.0224 171.335 77.1275L162.744 80.614C162.223 80.8263 161.807 81.2369 161.588 81.7555C161.369 82.2741 161.365 82.8583 161.577 83.3798C161.789 83.9012 162.2 84.3172 162.718 84.5363C163.237 84.7555 163.821 84.7598 164.343 84.5485L172.934 81.0619C173.455 80.8485 173.871 80.4374 174.089 79.9185C174.308 79.3997 174.312 78.8154 174.101 78.2935Z" fill="white"/>
<path d="M74.0882 50.6519L68.8696 42.9954C68.6616 42.6903 68.3776 42.4448 68.0457 42.2829C67.7138 42.1211 67.3453 42.0486 66.9768 42.0726C66.3626 42.4973 65.7523 42.9336 65.1535 43.3815C65.0178 43.7061 64.9654 44.0595 65.0012 44.4095C65.0369 44.7595 65.1597 45.0949 65.3583 45.3854L70.5769 53.0419C70.894 53.5074 71.3831 53.8278 71.9365 53.9328C72.49 54.0378 73.0625 53.9187 73.5281 53.6018C73.9938 53.2849 74.3144 52.796 74.4194 52.2428C74.5245 51.6896 74.4053 51.1174 74.0882 50.6519Z" fill="white"/>
<path d="M52.8002 80.614L44.2092 77.1275C43.6873 76.9156 43.1025 76.9196 42.5835 77.1387C42.0646 77.3578 41.6539 77.7739 41.4419 78.2956C41.2298 78.8172 41.2338 79.4017 41.4528 79.9205C41.6719 80.4393 42.0881 80.8498 42.61 81.0619L51.2009 84.5484C51.7228 84.7598 52.3073 84.7554 52.8259 84.5363C53.3446 84.3171 53.7549 83.9011 53.9669 83.3797C54.1788 82.8583 54.175 82.2741 53.9562 81.7555C53.7374 81.2369 53.3216 80.8263 52.8002 80.614Z" fill="white"/>
<path d="M107.965 157.094C107.402 157.095 106.862 157.319 106.464 157.717C106.066 158.115 105.842 158.655 105.841 159.218V168.485C105.841 169.048 106.065 169.588 106.463 169.986C106.861 170.384 107.402 170.608 107.965 170.608C108.529 170.608 109.069 170.384 109.468 169.986C109.866 169.588 110.09 169.048 110.09 168.485V159.218C110.089 158.655 109.865 158.115 109.467 157.717C109.068 157.319 108.528 157.095 107.965 157.094Z" fill="white"/>
<path d="M150.186 156.06L144.967 148.403C144.81 148.173 144.609 147.975 144.376 147.822C144.143 147.67 143.882 147.564 143.608 147.512C143.334 147.46 143.052 147.463 142.779 147.519C142.506 147.576 142.247 147.686 142.016 147.843C141.786 148 141.588 148.201 141.435 148.434C141.282 148.667 141.177 148.928 141.125 149.202C141.073 149.476 141.075 149.758 141.132 150.031C141.189 150.304 141.299 150.563 141.456 150.793L146.675 158.45C146.883 158.755 147.167 159 147.499 159.162C147.831 159.324 148.199 159.396 148.568 159.372C149.182 158.948 149.792 158.511 150.391 158.064C150.527 157.739 150.579 157.386 150.543 157.036C150.507 156.686 150.385 156.35 150.186 156.06Z" fill="white"/>
<path d="M172.934 120.383L164.343 116.897C163.821 116.685 163.237 116.689 162.718 116.908C162.199 117.127 161.788 117.543 161.576 118.065C161.364 118.586 161.368 119.171 161.587 119.69C161.806 120.208 162.222 120.619 162.744 120.831L171.335 124.318C171.857 124.529 172.441 124.525 172.96 124.305C173.479 124.086 173.889 123.67 174.101 123.149C174.313 122.627 174.309 122.043 174.09 121.525C173.872 121.006 173.456 120.595 172.934 120.383Z" fill="white"/>
<path d="M73.5281 147.843C73.0625 147.526 72.49 147.407 71.9366 147.512C71.3832 147.617 70.8941 147.938 70.5769 148.403L65.3583 156.06C65.1597 156.35 65.0369 156.686 65.0012 157.035C64.9654 157.385 65.0178 157.739 65.1535 158.063C65.7523 158.511 66.3626 158.948 66.9768 159.372C67.3453 159.396 67.7138 159.324 68.0457 159.162C68.3776 159 68.6616 158.755 68.8696 158.45L74.0883 150.793C74.2453 150.563 74.3553 150.303 74.4122 150.03C74.469 149.758 74.4715 149.476 74.4195 149.202C74.3675 148.928 74.262 148.667 74.109 148.434C73.9561 148.201 73.7587 148 73.5281 147.843Z" fill="white"/>
<path d="M53.9668 118.063C53.8619 117.804 53.7071 117.569 53.5113 117.371C53.3154 117.173 53.0825 117.015 52.8256 116.907C52.5687 116.798 52.2931 116.742 52.0143 116.74C51.7356 116.738 51.4592 116.791 51.201 116.897L42.61 120.383C42.0886 120.595 41.6728 121.006 41.454 121.525C41.2352 122.043 41.2314 122.627 41.4433 123.149C41.6553 123.67 42.0657 124.086 42.5843 124.305C43.1029 124.525 43.6874 124.529 44.2093 124.318L52.8002 120.831C53.3214 120.618 53.7368 120.206 53.9555 119.688C54.1741 119.169 54.1782 118.584 53.9668 118.063Z" fill="white"/>
<path d="M110.722 99.6688C110.918 100.83 110.646 102.021 109.964 102.981C109.283 103.941 108.248 104.592 107.087 104.791L69.3869 111.201C68.8118 111.298 68.2231 111.282 67.6543 111.152C67.0855 111.023 66.5479 110.782 66.0721 110.445C65.5962 110.108 65.1915 109.68 64.8811 109.186C64.5706 108.693 64.3605 108.143 64.2626 107.568C64.1648 106.993 64.1812 106.405 64.3109 105.836C64.4406 105.268 64.6811 104.73 65.0186 104.254C65.3561 103.779 65.784 103.374 66.2779 103.064C66.7718 102.754 67.322 102.544 67.8971 102.446L105.598 96.036C106.759 95.8399 107.951 96.1123 108.911 96.7933C109.872 97.4744 110.523 98.5085 110.722 99.6688Z" fill="#3F3D56"/>
<path d="M150.401 141.419C149.859 141.964 149.124 142.271 148.355 142.274C147.587 142.277 146.849 141.975 146.304 141.435L105.719 101.188C105.175 100.647 104.867 99.9115 104.865 99.1439C104.862 98.3764 105.164 97.6392 105.705 97.0943C106.246 96.5494 106.981 96.2414 107.749 96.2381C108.517 96.2347 109.255 96.5362 109.8 97.0763L150.385 137.324C150.929 137.865 151.237 138.6 151.24 139.368C151.243 140.136 150.941 140.873 150.401 141.419Z" fill="#3F3D56"/>
<path d="M107.772 105.742C110.546 105.742 112.794 103.495 112.794 100.723C112.794 97.9504 110.546 95.7031 107.772 95.7031C104.999 95.7031 102.75 97.9504 102.75 100.723C102.75 103.495 104.999 105.742 107.772 105.742Z" fill="#CCCCCC"/>
<path d="M73.1828 13.6855C65.4746 25.7987 53.7136 33.8375 39.2093 39.1186C38.9227 39.3332 38.5966 39.4892 38.2497 39.5778C37.9027 39.6664 37.5417 39.6858 37.1873 39.635C36.8328 39.5841 36.4919 39.464 36.1839 39.2814C35.8759 39.0988 35.6069 38.8574 35.3922 38.5709C27.5136 28.0563 29.2926 13.0287 39.6907 4.99423C42.2046 3.05516 45.0788 1.63453 48.1465 0.81483C51.2141 -0.00486948 54.4142 -0.207317 57.5607 0.219248C60.7073 0.645812 63.7378 1.69289 66.4762 3.29968C69.2146 4.90648 71.6065 7.041 73.5128 9.57931L73.7308 9.87013C73.9454 10.1566 74.1015 10.4825 74.1901 10.8293C74.2788 11.1761 74.2982 11.5369 74.2473 11.8912C74.1965 12.2455 74.0763 12.5863 73.8936 12.8942C73.711 13.202 73.4694 13.4709 73.1828 13.6855Z" fill="#E6E6E6"/>
<path d="M142.031 9.5793C143.938 7.04099 146.33 4.90648 149.068 3.29968C151.806 1.69288 154.837 0.645813 157.984 0.219249C161.13 -0.207315 164.33 -0.00487371 167.398 0.814826C170.465 1.63452 173.34 3.05515 175.854 4.99423C186.252 13.0287 188.031 28.0563 180.152 38.5709C179.937 38.8574 179.668 39.0988 179.36 39.2814C179.052 39.464 178.711 39.5841 178.357 39.635C178.003 39.6858 177.642 39.6664 177.295 39.5778C176.948 39.4892 176.622 39.3332 176.335 39.1186C162.87 33.9658 151.828 25.049 142.361 13.6855C141.783 13.2521 141.4 12.6067 141.297 11.8912C141.194 11.1757 141.38 10.4487 141.814 9.87012L142.031 9.5793Z" fill="#E6E6E6"/>
<path d="M138.653 172.642C138.162 172.918 137.8 173.377 137.647 173.919C137.494 174.46 137.562 175.041 137.836 175.532L150.098 197.434C150.373 197.925 150.832 198.287 151.374 198.44C151.917 198.593 152.497 198.524 152.989 198.249C153.481 197.974 153.843 197.515 153.996 196.973C154.149 196.431 154.081 195.851 153.806 195.359L141.544 173.458C141.268 172.968 140.809 172.606 140.267 172.453C139.725 172.3 139.145 172.368 138.653 172.642Z" fill="#E6E6E6"/>
<path d="M73.9999 173.458L61.7385 195.359C61.4635 195.851 61.3951 196.431 61.5483 196.973C61.7014 197.515 62.0637 197.974 62.5553 198.249C63.0469 198.524 63.6277 198.593 64.1699 198.44C64.7121 198.287 65.1713 197.925 65.4466 197.433L77.7079 175.532C77.8442 175.289 77.9313 175.021 77.964 174.744C77.9968 174.467 77.9746 174.186 77.8988 173.918C77.823 173.65 77.6951 173.399 77.5222 173.18C77.3494 172.961 77.1352 172.778 76.8916 172.642C76.6481 172.506 76.3802 172.419 76.1031 172.386C75.8259 172.353 75.5451 172.376 75.2766 172.451C75.008 172.527 74.7571 172.655 74.538 172.828C74.319 173.001 74.1361 173.215 73.9999 173.458Z" fill="#E6E6E6"/>
<path d="M152.581 203.041C156.208 203.041 159.148 200.103 159.148 196.477C159.148 192.852 156.208 189.914 152.581 189.914C148.954 189.914 146.014 192.852 146.014 196.477C146.014 200.103 148.954 203.041 152.581 203.041Z" fill="#E6E6E6"/>
<path d="M157.216 35.0841C160.843 35.0841 163.783 32.1454 163.783 28.5203C163.783 24.8952 160.843 21.9564 157.216 21.9564C153.59 21.9564 150.65 24.8952 150.65 28.5203C150.65 32.1454 153.59 35.0841 157.216 35.0841Z" fill="#E6E6E6"/>
<path d="M107.386 19.6398C111.013 19.6398 113.953 16.701 113.953 13.0759C113.953 9.45082 111.013 6.51208 107.386 6.51208C103.759 6.51208 100.819 9.45082 100.819 13.0759C100.819 16.701 103.759 19.6398 107.386 19.6398Z" fill="#E6E6E6"/>
<path d="M59.873 34.3119C63.4998 34.3119 66.4398 31.3732 66.4398 27.748C66.4398 24.1229 63.4998 21.1842 59.873 21.1842C56.2463 21.1842 53.3062 24.1229 53.3062 27.748C53.3062 31.3732 56.2463 34.3119 59.873 34.3119Z" fill="#E6E6E6"/>
<path d="M64.1221 203.041C67.7489 203.041 70.689 200.103 70.689 196.477C70.689 192.852 67.7489 189.914 64.1221 189.914C60.4954 189.914 57.5553 192.852 57.5553 196.477C57.5553 200.103 60.4954 203.041 64.1221 203.041Z" fill="#E6E6E6"/>
<path d="M147.43 137.727C147.689 138.133 148.033 138.476 148.439 138.734C148.846 138.991 149.303 139.157 149.78 139.219C150.257 139.28 150.742 139.237 151.2 139.091C151.658 138.945 152.079 138.701 152.433 138.375L162.737 143.894L162.184 137.847L152.484 133.533C151.897 132.976 151.126 132.653 150.316 132.626C149.507 132.599 148.716 132.87 148.093 133.387C147.47 133.904 147.059 134.631 146.936 135.431C146.814 136.231 146.99 137.048 147.43 137.727Z" fill="#FFB7B7"/>
<path d="M154.938 139.838L158.976 134.266L178.429 143.458L202.636 138.918C203.833 138.694 205.064 138.736 206.243 139.04C207.421 139.345 208.519 139.905 209.456 140.682C210.394 141.458 211.149 142.431 211.668 143.532C212.187 144.632 212.457 145.834 212.46 147.051C212.461 149.249 211.591 151.357 210.039 152.915C208.487 154.472 206.38 155.35 204.181 155.356L176.44 155.408L154.938 139.838Z" fill="#3F3D56"/>
<path d="M148.719 236.066L144.633 234.113L150.245 217.044L156.275 219.927L148.719 236.066Z" fill="#FFB7B7"/>
<path d="M176.108 233.315C175.811 233.501 175.514 233.683 175.214 233.866C174.617 234.232 174.014 234.592 173.411 234.946C173.108 235.123 172.801 235.3 172.498 235.474V235.483L172.48 235.486L172.474 235.489L172.012 235.603L171.349 233.851L171.043 233.045L170.611 231.902L169.819 229.811L165.647 218.803L172.132 217.204L172.375 218.197H172.378L172.498 218.689L174.764 227.873L175.226 229.751L175.241 229.808L175.52 230.93L175.76 231.902L176.027 232.988L176.108 233.315Z" fill="#FFB7B7"/>
<path d="M214.794 194.655C214.383 195.315 213.963 195.972 213.54 196.623C212.753 197.835 211.946 199.029 211.118 200.205C211.118 200.208 211.115 200.208 211.112 200.211C210.629 200.658 210.095 201.048 209.521 201.372C209.497 201.39 209.47 201.402 209.446 201.417C209.024 201.65 208.575 201.83 208.108 201.953C207.94 201.995 207.769 202.037 207.601 202.079C206.995 202.223 206.394 202.346 205.797 202.454C204.735 202.643 203.685 202.778 202.64 202.862C202.556 202.871 202.472 202.877 202.388 202.883C198.094 203.198 193.914 202.691 189.55 201.86C187.396 201.453 185.196 200.964 182.918 200.457C182.174 200.289 181.427 200.124 180.671 199.959C180.613 199.947 180.553 199.932 180.493 199.92C179.413 199.683 178.315 199.449 177.189 199.218C175.773 198.927 174.312 198.645 172.793 198.378L172.901 200.517C172.991 202.162 173.333 203.784 173.915 205.325C174.564 207.221 175.077 208.72 173.993 211.843L173.471 213.355C173.742 214.106 173.835 214.909 173.743 215.701C173.651 216.494 173.376 217.255 172.94 217.923L172.835 218.082L177.189 229.094L177.472 229.807H175.242L172.499 229.81H167.851L161.143 216.36L160.822 215.718V215.685L161.516 189.838C161.525 189.61 161.543 189.379 161.573 189.151C161.695 188.115 162.022 187.113 162.536 186.205C163.05 185.296 163.739 184.499 164.564 183.86C165.355 183.242 166.261 182.788 167.229 182.523C168.197 182.259 169.208 182.189 170.203 182.318L172.499 182.615L177.189 183.221L180.493 183.65L180.559 183.659L190.303 184.919L191.003 182.069L191.132 182.021L195.234 180.519L209.422 175.32L209.458 175.308L210.392 174.966L210.503 175.146C210.536 175.2 210.569 175.254 210.599 175.308C211.521 176.961 212.272 178.704 212.84 180.51C213.796 183.459 214.582 186.46 215.196 189.499C215.223 189.631 215.247 189.751 215.268 189.859L215.277 189.892C215.286 189.943 215.292 189.976 215.295 189.985C215.622 191.347 215.394 193.009 214.794 194.655Z" fill="#2F2E41"/>
<path d="M215.393 185.13C215.348 184.938 215.291 184.743 215.231 184.554C214.754 183.123 214.199 181.719 213.568 180.349C212.86 178.789 212.011 177.118 211 175.309C210.51 174.433 209.984 173.523 209.421 172.577C209.139 172.103 208.846 171.62 208.542 171.128C208.53 171.105 208.517 171.083 208.503 171.062L208.416 170.918L194.377 172.796L189.15 173.495L188.838 176.098L188.763 176.743C188.76 176.743 188.76 176.743 188.763 176.746L188.553 178.504V178.507L188.274 180.829L188.25 180.826L180.492 179.821L172.498 178.786L168.203 178.231C167.208 178.101 166.197 178.171 165.229 178.436C164.261 178.7 163.355 179.155 162.565 179.773C161.74 180.412 161.05 181.209 160.536 182.118C160.023 183.026 159.695 184.028 159.573 185.064C159.546 185.274 159.528 185.49 159.519 185.703L155.467 195.299C153.043 201.037 151.499 207.109 150.888 213.308L147.917 222.802L148.34 222.841L154.636 223.426L156.299 223.581L159.96 218.239C160.377 217.63 160.773 217.003 161.142 216.362C161.75 215.313 162.29 214.227 162.76 213.11L170.679 194.273C171.291 194.378 171.897 194.478 172.498 194.573C175.273 195.023 177.938 195.39 180.492 195.673C188.796 196.6 195.986 196.672 202.387 195.886C204.184 195.667 205.922 195.38 207.6 195.023C208.215 194.894 208.822 194.755 209.421 194.606C209.562 194.573 209.7 194.54 209.838 194.504C211.078 194.184 212.219 193.558 213.154 192.684C214.09 191.81 214.792 190.716 215.195 189.5C215.676 188.092 215.745 186.576 215.393 185.13Z" fill="#2F2E41"/>
<path d="M150.024 233.279L145.603 231.161L144.91 230.828L143.803 233.546L136.072 235.247C135.69 235.331 135.345 235.534 135.087 235.828C134.828 236.122 134.671 236.491 134.638 236.881C134.604 237.27 134.696 237.661 134.9 237.994C135.104 238.328 135.41 238.588 135.772 238.735L143.326 241.816L145.723 239.659L145.135 242.554L147.98 243.715L151.098 233.795L150.024 233.279Z" fill="#2F2E41"/>
<path d="M177.189 229.094L177.472 229.807H177.189V229.094Z" fill="#2F2E41"/>
<path d="M175.65 229.96L171.018 231.564L170.291 231.815L171.417 234.525L167.122 241.17C166.909 241.499 166.807 241.886 166.83 242.277C166.854 242.667 167.002 243.04 167.252 243.34C167.503 243.641 167.843 243.853 168.223 243.947C168.603 244.04 169.003 244.01 169.364 243.86L176.9 240.737L177.085 237.518L178.705 239.988L181.544 238.813L176.777 229.571L175.65 229.96Z" fill="#2F2E41"/>
<path d="M214.238 189.476C213.963 189.475 213.692 189.408 213.449 189.28L189.007 176.514L188.724 175.359L188.192 171.702L188.2 171.667L190.524 160.955C190.481 160.863 190.392 160.713 190.292 160.542C189.254 158.785 186.096 153.436 192.123 146.071L202.706 133.739L211.788 133.348L211.892 133.478C214.32 136.525 215.958 140.125 216.66 143.957C217.361 147.789 217.105 151.734 215.913 155.444L214.967 172.516L215.982 175.964C216.575 177.99 216.477 180.156 215.703 182.12L215.935 187.703C215.944 187.932 215.907 188.16 215.826 188.374C215.745 188.588 215.622 188.784 215.463 188.949C215.305 189.115 215.115 189.247 214.904 189.337C214.694 189.428 214.467 189.475 214.238 189.476Z" fill="#3F3D56"/>
<path d="M193.036 203.556C193.45 203.311 193.806 202.979 194.077 202.582C194.349 202.185 194.531 201.734 194.609 201.26C194.687 200.786 194.661 200.3 194.531 199.837C194.401 199.374 194.171 198.945 193.858 198.581L199.734 188.479L193.669 188.821L189.018 198.361C188.441 198.928 188.091 199.687 188.036 200.495C187.981 201.302 188.224 202.102 188.719 202.742C189.214 203.382 189.927 203.819 190.723 203.969C191.519 204.119 192.342 203.972 193.036 203.556Z" fill="#FFB7B7"/>
<path d="M195.408 196.129L189.977 191.901L199.845 172.789L196.147 148.449C195.965 147.246 196.049 146.017 196.395 144.851C196.74 143.684 197.339 142.607 198.148 141.698C198.956 140.788 199.956 140.068 201.074 139.587C202.193 139.107 203.403 138.879 204.62 138.919C206.818 138.994 208.896 139.937 210.399 141.541C211.902 143.146 212.706 145.281 212.636 147.478L211.723 175.192L195.408 196.129Z" fill="#3F3D56"/>
<path d="M196.88 128.614V119.631C196.878 116.438 198.145 113.376 200.402 111.117C202.659 108.858 205.721 107.588 208.915 107.585C212.109 107.583 215.173 108.85 217.433 111.106C219.693 113.362 220.964 116.423 220.966 119.615V119.631C223.089 124.052 221.761 126.154 220.966 128.614C220.965 129.043 220.795 129.454 220.492 129.757C220.189 130.059 219.778 130.23 219.349 130.231H198.498C198.069 130.23 197.658 130.06 197.354 129.757C197.051 129.454 196.881 129.043 196.88 128.614Z" fill="#2F2E41"/>
<path d="M204.974 129.647C209.953 129.647 213.989 125.613 213.989 120.636C213.989 115.66 209.953 111.625 204.974 111.625C199.996 111.625 195.96 115.66 195.96 120.636C195.96 125.613 199.996 129.647 204.974 129.647Z" fill="#FFB7B7"/>
<path d="M214.409 122.998C214.327 122.985 214.245 122.968 214.164 122.955C212.757 122.706 211.351 122.461 209.949 122.207L209.82 119.031L208.122 121.876C204.247 123.162 200.622 122.435 197.212 120.832C196.087 120.298 194.996 119.697 193.944 119.031C194.23 117.274 194.906 115.604 195.922 114.142C196.937 112.68 198.267 111.463 199.814 110.581C199.943 110.508 200.067 110.443 200.196 110.379L200.198 110.378L200.2 110.377L200.2 110.376L200.201 110.374C200.42 110.271 200.644 110.172 200.867 110.082C202.618 109.398 204.527 109.225 206.372 109.583C208.217 109.94 209.923 110.814 211.291 112.102C214.043 114.729 215.282 119.065 214.409 122.998Z" fill="#2F2E41"/>
</g>
<defs>
<clipPath id="clip0_2_446">
<rect width="261" height="244" fill="white"/>
</clipPath>
</defs>
</svg>
