<svg width="171" height="234" viewBox="0 0 171 234" fill="none" xmlns="http://www.w3.org/2000/svg">
<g clip-path="url(#clip0_2_132)">
<path d="M151.362 233.622H76.9128C66.0839 233.622 57.275 224.816 57.275 213.99V19.632C57.275 8.80627 66.0839 0 76.9128 0H151.362C162.191 0 171 8.80627 171 19.632V213.99C171 224.816 162.191 233.622 151.362 233.622Z" fill="#DADBDC"/>
<path d="M151.416 228.308H76.8588C68.8441 228.308 62.3213 221.787 62.3213 213.775V19.4663C62.3213 11.454 68.8441 4.93311 76.8588 4.93311H151.416C159.431 4.93311 165.954 11.454 165.954 19.4663V213.775C165.954 221.787 159.431 228.308 151.416 228.308Z" fill="white"/>
<path d="M124.681 17.867H103.598C100.814 17.867 98.5514 15.6047 98.5514 12.8222C98.5514 10.0396 100.814 7.77734 103.598 7.77734H124.681C127.465 7.77734 129.727 10.0396 129.727 12.8222C129.727 15.6047 127.465 17.867 124.681 17.867Z" fill="#DADBDC"/>
<path d="M146.196 77.2022H84.5035C83.2814 77.2022 82.2868 75.9381 82.2868 74.3888C82.2868 72.8395 83.2814 71.5754 84.5035 71.5754H146.196C147.418 71.5754 148.413 72.8395 148.413 74.3888C148.413 75.9381 147.418 77.2022 146.196 77.2022Z" fill="#DADBDC"/>
<path d="M146.196 89.6697H84.5035C83.2814 89.6697 82.2868 88.4056 82.2868 86.8563C82.2868 85.3071 83.2814 84.043 84.5035 84.043H146.196C147.418 84.043 148.413 85.3071 148.413 86.8563C148.413 88.4056 147.418 89.6697 146.196 89.6697Z" fill="#DADBDC"/>
<path d="M128.505 102.137H84.5035C83.2814 102.137 82.2868 100.873 82.2868 99.3239C82.2868 97.7746 83.2814 96.5105 84.5035 96.5105H128.505C129.727 96.5105 130.722 97.7746 130.722 99.3239C130.722 100.873 129.727 102.137 128.505 102.137Z" fill="#DADBDC"/>
<path d="M114.137 175.439C128.681 175.439 140.472 163.653 140.472 149.113C140.472 134.573 128.681 122.787 114.137 122.787C99.5936 122.787 87.8034 134.573 87.8034 149.113C87.8034 163.653 99.5936 175.439 114.137 175.439Z" fill="#041F30"/>
<path d="M107.133 149.66C108.494 152.323 109.855 154.99 111.215 157.653C111.605 158.42 112.75 158.177 112.977 157.422C114.762 151.471 118.077 146.049 122.545 141.736C123.44 140.873 122.075 139.513 121.181 140.372C116.478 144.912 112.996 150.651 111.115 156.909L112.877 156.678C111.516 154.015 110.155 151.348 108.794 148.685C108.232 147.579 106.566 148.554 107.129 149.656H107.133V149.66Z" fill="white"/>
<path d="M43.1461 117.268L36.7621 119.445L36.6619 110.231L42.4715 110.165L43.1461 117.268Z" fill="#F3A3A6"/>
<path d="M37.4097 112.774C40.9355 112.774 43.7938 109.917 43.7938 106.392C43.7938 102.867 40.9355 100.01 37.4097 100.01C33.8839 100.01 31.0257 102.867 31.0257 106.392C31.0257 109.917 33.8839 112.774 37.4097 112.774Z" fill="#F3A3A6"/>
<path d="M39.1561 105.741C38.0882 105.721 37.375 104.65 36.9471 103.667C36.5192 102.688 36.0797 101.559 35.089 101.162C34.2756 100.838 32.8723 103.101 32.2247 102.511C31.55 101.894 32.1668 98.6802 32.8685 98.0983C33.5701 97.5163 34.5377 97.393 35.4475 97.3391C37.6719 97.2119 39.9078 97.366 42.0937 97.7977C43.443 98.0636 44.8385 98.4721 45.8215 99.4356C47.0667 100.657 47.4021 102.519 47.5101 104.261C47.6219 106.041 47.537 107.91 46.6889 109.483C45.837 111.051 44.0366 112.223 42.2903 111.845C42.1052 110.901 42.271 109.93 42.3288 108.966C42.3867 108.007 42.3018 106.97 41.7082 106.211C41.1145 105.452 39.8577 105.163 39.1831 105.849" fill="#2F2E43"/>
<path d="M47.032 107.864C47.6643 107.39 48.4237 106.989 49.2102 107.078C50.0621 107.171 50.7869 107.864 51.0143 108.689C51.2418 109.514 51.0066 110.427 50.4901 111.109C49.9735 111.791 49.1986 112.246 48.3736 112.477C47.8956 112.612 47.3751 112.67 46.9164 112.477C46.2417 112.196 45.8717 111.344 46.1261 110.658" fill="#2F2E43"/>
<path d="M23.277 168.159C22.8761 170.26 23.6741 172.167 25.0658 172.418C26.4536 172.668 27.907 171.165 28.3079 169.065C28.4814 168.229 28.4428 167.361 28.1961 166.541L33.1075 133.624L26.4922 132.456L24.314 165.843C23.782 166.525 23.4235 167.319 23.277 168.163V168.159Z" fill="#F3A3A6"/>
<path d="M36.6464 115.218L32.1398 115.268C28.9594 115.784 28.1113 117.495 27.4251 120.64C26.3726 125.438 25.0311 131.832 25.3125 131.921C25.7635 132.067 33.4737 135.589 37.375 134.718L36.6464 115.218Z" fill="#041F30"/>
<path d="M42.1806 219.833L36.1825 219.9L36.2775 228.405L42.2757 228.338L42.1806 219.833Z" fill="#F3A3A6"/>
<path d="M30.4783 233.622C29.8461 233.63 29.2871 233.622 28.863 233.588C27.267 233.46 25.7366 232.3 24.9617 231.622C24.6147 231.318 24.4991 230.824 24.6726 230.4C24.7959 230.096 25.0504 229.865 25.3665 229.768L29.5647 228.52L36.3303 223.845L36.4074 223.98C36.4383 224.03 37.1206 225.228 37.3519 226.042C37.4406 226.35 37.4213 226.608 37.2941 226.809C37.2054 226.947 37.0821 227.028 36.9819 227.078C37.1052 227.205 37.4946 227.464 38.6897 227.641C40.4283 227.899 40.7791 226.092 40.7907 226.015L40.8022 225.953L40.8524 225.918C41.6735 225.375 42.1785 225.128 42.3558 225.178C42.4676 225.209 42.6488 225.263 43.1962 230.165C43.2464 230.319 43.6049 231.445 43.3813 232.528C43.1384 233.707 37.9996 233.356 36.9741 233.275C36.9433 233.279 33.1036 233.595 30.4706 233.622H30.4783Z" fill="#2F2E43"/>
<path d="M59.1819 212.949L54.1279 216.179L58.7106 223.345L63.7646 220.115L59.1819 212.949Z" fill="#F3A3A6"/>
<path d="M52.6258 232.208C51.9203 232.216 51.2726 232.139 50.81 232.062C50.3551 231.984 49.9966 231.63 49.9195 231.175C49.8617 230.848 49.9581 230.52 50.1739 230.273L53.073 226.994L56.3382 219.448L56.477 219.521C56.5271 219.548 57.7415 220.203 58.3699 220.769C58.6089 220.985 58.7284 221.213 58.7284 221.452C58.7284 221.617 58.6667 221.752 58.605 221.845C58.7785 221.887 59.245 221.899 60.3514 221.417C61.9628 220.716 61.3036 218.997 61.2727 218.927L61.2496 218.869L61.2766 218.816C61.6852 217.921 61.9859 217.444 62.1594 217.39C62.2712 217.359 62.4524 217.305 65.5133 221.174C65.6367 221.278 66.5388 222.041 66.9204 223.078C67.3368 224.207 62.7955 226.627 61.878 227.102C61.851 227.125 57.1054 230.651 55.1547 231.661C54.3798 232.062 53.4585 232.193 52.6181 232.2L52.6258 232.208Z" fill="#2F2E43"/>
<path d="M45.7946 148.639L29.0018 148.824L27.6525 164.456L34.9618 222.088L43.5355 221.991L39.7382 188.701L53.9789 218.638L61.5387 213.22L50.3667 185.248C50.3667 185.248 53.975 160.733 50.8601 154.67C47.7452 148.608 45.7984 148.631 45.7984 148.631V148.639H45.7946Z" fill="#2F2E43"/>
<path d="M54.1562 149.498L27.4868 149.795L35.1044 115.237L46.7275 115.106L54.1562 149.498Z" fill="#041F30"/>
<path d="M56.7623 167.789C57.2095 169.882 56.4539 171.805 55.0699 172.086C53.6859 172.368 52.2017 170.899 51.7545 168.807C51.5618 167.974 51.581 167.107 51.8085 166.278L46.1646 133.478L52.753 132.163L55.6713 165.496C56.2187 166.167 56.5926 166.953 56.7623 167.793V167.789Z" fill="#F3A3A6"/>
<path d="M42.2209 115.156L46.7275 115.106C49.9195 115.553 50.8023 117.245 51.5618 120.374C52.7183 125.149 54.2025 131.508 53.9249 131.604C53.4739 131.759 45.8485 135.451 41.9279 134.668L42.2248 115.156H42.2209Z" fill="#041F30"/>
<path d="M82.9152 233.622C82.9152 233.83 82.7455 234 82.5374 234H0.377798C0.169624 234 0 233.83 0 233.622C0 233.414 0.169624 233.245 0.377798 233.245H82.5374C82.7455 233.245 82.9152 233.414 82.9152 233.622Z" fill="#3F3D58"/>
</g>
<defs>
<clipPath id="clip0_2_132">
<rect width="171" height="234" fill="white"/>
</clipPath>
</defs>
</svg>
