<svg width="301" height="229" viewBox="0 0 301 229" fill="none" xmlns="http://www.w3.org/2000/svg">
<g clip-path="url(#clip0_3_1251)">
<path d="M223.617 43.1442C224.384 42.2922 225.091 41.3883 225.733 40.4388L212.292 37.297L226.983 38.3911C228.599 35.4188 229.591 32.1482 229.899 28.7794C230.206 25.4107 229.823 22.0146 228.772 18.799L208.366 27.7038L227.449 15.5588C225.942 12.5014 223.822 9.7869 221.221 7.58432C218.619 5.38174 215.591 3.7383 212.326 2.75638C209.061 1.77445 205.629 1.47508 202.244 1.87691C198.858 2.27874 195.591 3.37316 192.647 5.092C189.703 6.81084 187.145 9.11727 185.131 11.8676C183.118 14.618 181.693 17.7533 180.944 21.0783C180.196 24.4033 180.14 27.8467 180.781 31.1941C181.422 34.5415 182.746 37.7211 184.669 40.5348C183.474 41.8606 182.425 43.3115 181.541 44.8621L198.569 55.206L180.181 47.6348C178.598 51.4493 177.992 55.5981 178.417 59.7057C178.843 63.8133 180.286 67.7501 182.616 71.1598C179.758 74.3303 177.767 78.1837 176.833 82.348C175.899 86.5123 176.055 90.8469 177.286 94.9333C178.516 99.0198 180.78 102.72 183.858 105.677C186.937 108.634 190.726 110.748 194.859 111.815C194.47 112.716 194.239 113.678 194.176 114.658C194.065 116.107 194.342 117.56 194.979 118.867C194.186 120.083 193.719 121.482 193.622 122.931C193.525 124.379 193.801 125.828 194.424 127.139C193.631 128.356 193.164 129.755 193.067 131.203C192.97 132.652 193.246 134.101 193.869 135.412C193.077 136.628 192.61 138.028 192.512 139.476C192.415 140.924 192.692 142.374 193.315 143.685C192.509 144.895 192.041 146.298 191.958 147.749C191.707 151.487 193.82 154.672 196.676 154.864C199.533 155.055 202.052 152.18 202.303 148.442C202.414 146.993 202.137 145.54 201.5 144.233C202.293 143.017 202.76 141.618 202.857 140.169C202.954 138.721 202.678 137.272 202.055 135.96C202.848 134.744 203.315 133.345 203.412 131.896C203.509 130.448 203.233 128.999 202.61 127.688C203.402 126.471 203.869 125.072 203.967 123.624C204.064 122.175 203.787 120.726 203.164 119.415C203.97 118.205 204.438 116.802 204.521 115.351C204.592 114.357 204.487 113.359 204.213 112.401C208.43 111.862 212.438 110.249 215.852 107.718C219.267 105.187 221.975 101.821 223.716 97.9445C225.457 94.0676 226.174 89.8089 225.797 85.576C225.42 81.3431 223.962 77.2777 221.563 73.7692C225.291 69.6337 227.52 64.366 227.892 58.8119C228.265 53.2579 226.759 47.7399 223.617 43.1442Z" fill="#314552"/>
<path d="M250.743 152.601C250.743 156.262 224.925 168.802 194.168 168.802C163.411 168.802 139.362 156.262 139.362 152.601C139.362 148.941 163.411 155.547 194.168 155.547C224.925 155.547 250.743 148.941 250.743 152.601Z" fill="#3F3D56"/>
<path opacity="0.1" d="M250.743 152.601C250.743 156.262 224.925 168.802 194.168 168.802C163.411 168.802 139.362 156.262 139.362 152.601C139.362 148.941 163.411 155.547 194.168 155.547C224.925 155.547 250.743 148.941 250.743 152.601Z" fill="black"/>
<path d="M195.052 159.229C225.809 159.229 250.743 156.262 250.743 152.601C250.743 148.941 225.809 145.974 195.052 145.974C164.295 145.974 139.362 148.941 139.362 152.601C139.362 156.262 164.295 159.229 195.052 159.229Z" fill="#3F3D56"/>
<path opacity="0.1" d="M196.37 158.854C206.801 158.854 215.257 156.438 215.257 153.459C215.257 150.48 206.801 148.065 196.37 148.065C185.938 148.065 177.482 150.48 177.482 153.459C177.482 156.438 185.938 158.854 196.37 158.854Z" fill="black"/>
<path d="M200.513 117.636C201.236 116.375 201.61 114.944 201.595 113.491C201.595 109.744 199.275 106.707 196.412 106.707C193.548 106.707 191.228 109.744 191.228 113.491C191.213 114.944 191.587 116.375 192.31 117.636C191.6 118.903 191.228 120.33 191.228 121.782C191.228 123.233 191.6 124.661 192.31 125.927C191.6 127.194 191.228 128.621 191.228 130.073C191.228 131.525 191.6 132.952 192.31 134.219C191.6 135.485 191.228 136.913 191.228 138.364C191.228 139.816 191.6 141.243 192.31 142.51C191.587 143.771 191.213 145.202 191.228 146.655C191.228 150.402 193.548 153.439 196.412 153.439C199.275 153.439 201.595 150.402 201.595 146.655C201.61 145.202 201.236 143.771 200.513 142.51C201.223 141.243 201.595 139.816 201.595 138.364C201.595 136.913 201.223 135.485 200.513 134.219C201.223 132.952 201.595 131.525 201.595 130.073C201.595 128.621 201.223 127.194 200.513 125.927C201.223 124.661 201.595 123.233 201.595 121.782C201.595 120.33 201.223 118.903 200.513 117.636Z" fill="#3F3D56"/>
<path d="M196.412 111.983C199.275 111.983 201.595 108.946 201.595 105.199C201.595 101.453 199.275 98.4157 196.412 98.4157C193.548 98.4157 191.228 101.453 191.228 105.199C191.228 108.946 193.548 111.983 196.412 111.983Z" fill="#3F3D56"/>
<path d="M196.412 103.692C199.275 103.692 201.595 100.655 201.595 96.9082C201.595 93.1617 199.275 90.1245 196.412 90.1245C193.548 90.1245 191.228 93.1617 191.228 96.9082C191.228 100.655 193.548 103.692 196.412 103.692Z" fill="#3F3D56"/>
<path d="M215.818 40.1688C216.526 39.2674 217.171 38.3183 217.748 37.328L204.127 35.0918L218.859 35.2013C220.272 32.1276 221.043 28.798 221.125 25.4163C221.206 22.0345 220.596 18.6716 219.333 15.5335L199.568 25.7824L217.796 12.389C216.088 9.43917 213.791 6.87247 211.048 4.84876C208.305 2.82505 205.174 1.38769 201.851 0.62622C198.527 -0.135249 195.083 -0.204514 191.732 0.422741C188.381 1.05 185.195 2.36033 182.372 4.27212C179.55 6.18391 177.151 8.6562 175.326 11.535C173.501 14.4137 172.289 17.6373 171.764 21.0049C171.24 24.3725 171.415 27.8119 172.279 31.1089C173.142 34.406 174.675 37.4899 176.783 40.1688C175.679 41.5716 174.73 43.0892 173.951 44.6955L191.633 53.878L172.779 47.5529C171.455 51.4647 171.128 55.6447 171.827 59.7147C172.527 63.7847 174.23 67.6162 176.783 70.8625C173.902 74.5238 172.11 78.9217 171.612 83.5531C171.113 88.1846 171.928 92.8629 173.964 97.053C176 101.243 179.175 104.776 183.125 107.248C187.074 109.719 191.64 111.03 196.3 111.03C200.96 111.03 205.526 109.719 209.476 107.248C213.426 104.776 216.6 101.243 218.636 97.053C220.672 92.8629 221.488 88.1846 220.989 83.5531C220.491 78.9217 218.699 74.5238 215.818 70.8625C219.26 66.4871 221.132 61.0821 221.132 55.5156C221.132 49.9491 219.26 44.5442 215.818 40.1688Z" fill="#C7AA88"/>
<path opacity="0.1" d="M171.469 55.5156C171.461 61.0836 173.333 66.4913 176.783 70.8625C173.902 74.5238 172.11 78.9217 171.612 83.5532C171.113 88.1846 171.928 92.8629 173.964 97.053C176 101.243 179.175 104.776 183.125 107.248C187.075 109.719 191.64 111.03 196.3 111.03C200.96 111.03 205.526 109.719 209.476 107.248C213.426 104.776 216.6 101.243 218.636 97.053C220.672 92.8629 221.488 88.1846 220.989 83.5532C220.491 78.9217 218.699 74.5238 215.818 70.8625C219.146 66.639 171.469 52.7297 171.469 55.5156Z" fill="black"/>
<path d="M284.836 79.9252L290.429 74.9397C279.326 72.8748 268.182 82.6388 265.275 96.8534C265.178 96.8723 265.082 96.8961 264.988 96.9247L258.681 76.2478C258.217 78.707 258.01 81.2081 258.066 83.7101L253.147 74.1627C251.16 84.8427 255.892 94.7663 263.837 97.1447C263.174 97.1456 262.511 97.098 261.855 97.0023C261.825 96.9979 261.804 96.9948 261.804 96.9948C261.753 97.5218 261.768 98.0531 261.849 98.5764C261.883 98.8695 262.009 99.1445 262.207 99.363C262.45 99.5806 263.134 99.881 264.03 100.191C264.099 100.215 264.169 100.239 264.241 100.263C264.811 100.454 265.456 100.647 266.121 100.825C266.953 101.047 267.817 101.245 268.608 101.385C268.694 101.401 268.773 101.41 268.848 101.417C268.871 101.418 268.893 101.418 268.915 101.419C268.964 101.421 269.011 101.423 269.054 101.421C269.077 101.42 269.099 101.417 269.121 101.415C269.158 101.412 269.194 101.407 269.229 101.4C269.249 101.396 269.269 101.391 269.287 101.386C269.317 101.378 269.347 101.367 269.376 101.355C269.391 101.348 269.407 101.342 269.421 101.334C269.448 101.32 269.473 101.303 269.497 101.284C269.507 101.276 269.518 101.269 269.527 101.261C269.554 101.236 269.579 101.208 269.6 101.177C269.602 101.175 269.605 101.172 269.607 101.169C269.63 101.133 269.649 101.094 269.664 101.053C269.665 101.05 269.665 101.047 269.666 101.045C269.679 101.005 269.689 100.965 269.696 100.923C269.696 100.921 269.697 100.918 269.698 100.915L269.696 100.917C269.841 99.9637 268.505 97.9467 268.488 97.3758C268.472 96.8296 267.132 96.6828 266.037 96.7568L286.616 80.1503C286.028 80.0411 285.433 79.9659 284.836 79.9252Z" fill="#314552"/>
<path d="M301 99.831C301 102.313 283.495 110.815 262.64 110.815C241.785 110.815 225.478 102.313 225.478 99.831C225.478 97.3493 241.785 101.828 262.64 101.828C283.495 101.828 301 97.3493 301 99.831Z" fill="#3F3D56"/>
<path opacity="0.1" d="M301 99.831C301 102.313 283.495 110.815 262.64 110.815C241.785 110.815 225.478 102.313 225.478 99.831C225.478 97.3493 241.785 101.828 262.64 101.828C283.495 101.828 301 97.3493 301 99.831Z" fill="black"/>
<path d="M263.239 104.325C284.094 104.325 301 102.313 301 99.831C301 97.3493 284.094 95.3374 263.239 95.3374C242.384 95.3374 225.478 97.3493 225.478 99.831C225.478 102.313 242.384 104.325 263.239 104.325Z" fill="#3F3D56"/>
<path opacity="0.1" d="M263.225 102.513C267.696 102.513 271.32 101.305 271.32 99.8153C271.32 98.3257 267.696 97.1182 263.225 97.1182C258.755 97.1182 255.13 98.3257 255.13 99.8153C255.13 101.305 258.755 102.513 263.225 102.513Z" fill="black"/>
<path d="M246.394 77.4599C246.394 88.9116 253.581 98.1781 262.463 98.1781L246.394 77.4599Z" fill="#3F3D56"/>
<path d="M262.463 98.1781C262.463 86.5978 270.483 77.2271 280.394 77.2271L262.463 98.1781Z" fill="#041F30"/>
<path d="M252.216 78.498C252.216 89.3759 256.799 98.1781 262.463 98.1781L252.216 78.498Z" fill="#041F30"/>
<path d="M262.463 98.1781C262.463 83.381 271.733 71.4074 283.189 71.4074L262.463 98.1781Z" fill="#3F3D56"/>
<path d="M259.082 98.3242C259.082 98.3242 261.361 98.254 262.048 97.7652C262.735 97.2763 265.553 96.6926 265.724 97.4766C265.894 98.2606 269.148 101.376 266.575 101.397C264.003 101.417 260.597 100.996 259.912 100.579C259.227 100.161 259.082 98.3242 259.082 98.3242Z" fill="#A8A8A8"/>
<path opacity="0.2" d="M266.621 101.124C264.049 101.145 260.643 100.723 259.958 100.306C259.436 99.9879 259.228 98.8474 259.158 98.3212C259.11 98.3233 259.082 98.3242 259.082 98.3242C259.082 98.3242 259.227 100.161 259.912 100.579C260.597 100.996 264.003 101.417 266.575 101.397C267.318 101.391 267.575 101.127 267.56 100.735C267.457 100.972 267.174 101.119 266.621 101.124Z" fill="black"/>
<path d="M61.6813 68.3735L64.5715 72.95C63.6039 74.2442 62.917 75.6503 63.3575 76.5803C64.4432 78.8727 66.9377 81.8359 68.268 83.4163C69.5984 84.9968 69.784 89.2273 78.8098 88.7213C87.8356 88.2154 91.4868 84.1319 91.4868 84.1319C91.4868 84.1319 92.2867 91.5397 96.1238 94.1907C95.7987 94.6397 95.3623 94.9964 94.8575 95.2258C90.8028 97.1179 86.3775 112.232 83.3106 120.534C79.9642 129.592 85.0494 128.014 85.0494 128.014C86.7527 128.042 88.3181 128.132 89.7543 128.268C91.4251 132.691 94.0753 142.147 90.9674 151.886C88.7938 158.698 89.2509 165.877 90.2226 171.284L88.1933 173.453C85.9315 174.175 85.2603 175.583 85.2603 175.583L80.0533 182.831L80.9161 183.455L84.0371 179.142C84.0371 179.142 84.718 179.751 85.6531 181.664C86.5882 183.576 83.9287 191.044 83.8817 191.589C83.8347 192.135 86.2508 196.008 89.6297 197.215C89.8605 197.302 90.1072 197.339 90.3535 197.324L90.0442 200.915L91.8795 200.89L92.4435 194.342C92.4435 194.342 93.8594 203.442 94.145 204.383C94.4306 205.324 97.3733 205.211 100.451 205.659C103.529 206.107 106.587 202.522 103.453 200.603C100.318 198.684 99.9256 192.604 99.9256 192.604C101.409 188.15 98.0578 182.365 98.0578 182.365L97.6746 178.3C97.6015 178.465 97.4925 178.611 97.3555 178.728C97.2186 178.845 97.0571 178.93 96.8831 178.977L97.3411 173.659C100.839 169.637 105.411 164.269 107.778 161.029C111.934 155.34 111.711 153.671 111.711 153.671L115.972 134.784C117.387 134.892 118.809 134.865 120.219 134.705C123.102 134.271 122.026 124.802 120.359 117.167C120.796 115.359 121.488 112.869 122.577 109.447C123.101 107.799 123.445 106.1 123.606 104.379C124.264 97.4108 121.856 91.584 120.81 89.4325L121.172 88.519C121.172 88.519 124.502 84.884 121.896 78.7326C122.045 78.0822 122.148 77.4221 122.204 76.7572C122.438 73.8181 121.788 70.8762 120.336 68.3094C120.319 68.2794 120.302 68.2491 120.283 68.2225L120.264 68.1928L120.259 68.1924C120.236 68.158 120.209 68.1251 120.181 68.0941C119.123 67.0165 113.724 64.9763 112.624 64.5681C112.564 64.5304 112.496 64.5055 112.426 64.4947C112.021 64.4599 112.446 62.6837 112.904 61.1133C113.473 60.6715 113.977 60.1522 114.402 59.5704C116.667 58.6471 118.664 57.1698 120.209 55.2741C121.754 53.3785 122.799 51.1252 123.246 48.7211C123.693 46.317 123.529 43.839 122.769 41.5147C122.009 39.1904 120.677 37.0942 118.896 35.4185C119.524 34.5413 119.96 33.5415 120.176 32.4844C120.391 31.4273 120.381 30.3366 120.147 29.2836C119.912 28.2306 119.457 27.2389 118.813 26.3734C118.169 25.5078 117.349 24.7878 116.408 24.2604C117.883 25.4824 118.847 27.2118 119.111 29.1085C119.376 31.0053 118.92 32.9322 117.835 34.5104C117.672 34.3832 117.505 34.2593 117.336 34.1387C117.742 33.0322 117.888 31.8469 117.761 30.675C117.635 29.5031 117.24 28.3762 116.607 27.3817C115.974 26.3873 115.12 25.5521 114.112 24.941C113.103 24.3299 111.968 23.9595 110.793 23.8584C109.618 23.7573 108.436 23.9283 107.338 24.3581C106.24 24.7879 105.256 25.4649 104.462 26.3366C103.668 27.2083 103.087 28.2511 102.761 29.3841C102.436 30.5171 102.377 31.7098 102.588 32.8695C100.33 33.9464 98.3866 35.585 96.9439 37.6282C95.5013 39.6714 94.6079 42.0508 94.3492 44.5383C94.0906 47.0258 94.4754 49.538 95.4668 51.8341C96.4582 54.1302 98.023 56.1333 100.011 57.6514C98.5498 58.3323 96.9476 58.6565 95.3364 58.5973C93.7252 58.5381 92.1511 58.0971 90.7437 57.3108C92.217 58.5293 94.0036 59.3086 95.8991 59.5596C97.7947 59.8105 99.7227 59.523 101.462 58.7299C102.114 59.9212 103.068 60.9194 104.229 61.6231C104.106 61.9719 103.941 62.3045 103.738 62.6134L103.271 62.241L101.248 64.449L96.0274 65.4656C96.0274 65.4656 92.6895 65.9113 88.8876 69.6154C85.0857 73.3195 78.6953 75.1517 78.6953 75.1517L73.6787 73.8037C73.6787 73.8037 67.909 70.5586 67.9716 69.831C67.9816 69.7152 67.843 69.7503 67.6087 69.8987L64.7867 64.2429C64.7867 64.2429 59.499 51.1443 56.108 54.334C52.7171 57.5238 61.6813 68.3735 61.6813 68.3735ZM98.9314 155.195L99.0616 153.682C100.772 151.267 101.732 145.31 102.268 139.789L101.49 153.158C100.52 153.676 99.653 154.366 98.9314 155.195ZM91.9494 183.478L91.9217 185.501C91.3689 186.491 90.9536 187.551 90.6874 188.653C90.5279 187.687 91.1949 185.514 91.9494 183.478Z" fill="#314552"/>
<path d="M184.729 202.132C184.729 208.202 141.91 229 90.8985 229C39.8869 229 0 208.202 0 202.132C0 196.061 39.8869 207.017 90.8985 207.017C141.91 207.017 184.729 196.061 184.729 202.132Z" fill="#3F3D56"/>
<path opacity="0.1" d="M184.729 202.132C184.729 208.202 141.91 229 90.8985 229C39.8869 229 0 208.202 0 202.132C0 196.061 39.8869 207.017 90.8985 207.017C141.91 207.017 184.729 196.061 184.729 202.132Z" fill="black"/>
<path d="M92.3646 213.123C143.376 213.123 184.729 208.202 184.729 202.132C184.729 196.061 143.376 191.14 92.3646 191.14C41.353 191.14 0 196.061 0 202.132C0 208.202 41.353 213.123 92.3646 213.123Z" fill="#3F3D56"/>
<path opacity="0.1" d="M92.9383 206.804C109.827 206.804 123.518 203.852 123.518 200.21C123.518 196.569 109.827 193.617 92.9383 193.617C76.0496 193.617 62.3586 196.569 62.3586 200.21C62.3586 203.852 76.0496 206.804 92.9383 206.804Z" fill="black"/>
<path d="M89.8251 56.9754C91.1041 56.0037 92.1347 54.7431 92.8327 53.2968C93.5307 51.8505 93.8762 50.2596 93.8411 48.6542C93.8059 47.0487 93.391 45.4745 92.6303 44.0601C91.8697 42.6457 90.7848 41.4315 89.4646 40.5167C90.7531 41.0989 91.9062 41.9432 92.8501 42.9956C93.7941 44.0481 94.5082 45.2857 94.9471 46.6295C95.3859 47.9733 95.5397 49.3937 95.3987 50.8002C95.2578 52.2067 94.8251 53.5684 94.1283 54.7984C93.4316 56.0285 92.486 57.0998 91.3519 57.9442C90.2179 58.7886 88.9202 59.3874 87.5417 59.7026C86.1632 60.0177 84.7341 60.0421 83.3457 59.7744C81.9572 59.5067 80.6397 58.9526 79.4774 58.1475C81.1478 58.9022 82.9912 59.1917 84.8127 58.9854C86.6342 58.779 88.366 58.0846 89.8251 56.9754Z" fill="#2F2E41"/>
<path d="M108.179 66.4583H109.823C111.038 68.189 111.863 70.1624 112.241 72.2426C112.62 74.3227 112.542 76.4601 112.015 78.5075C110.188 85.445 111.649 86.723 111.649 86.723C111.649 86.723 118.224 96.0338 115.667 107.353C113.111 118.672 113.841 119.95 113.841 119.95L109.275 110.822L106.718 86.723L108.179 66.4583Z" fill="#041F30"/>
<path opacity="0.1" d="M108.179 66.4676H109.823C111.038 68.1984 111.863 70.1718 112.241 72.2519C112.62 74.3321 112.542 76.4695 112.015 78.5169C110.188 85.4544 111.649 86.7323 111.649 86.7323C111.649 86.7323 118.224 96.0431 115.667 107.362C113.111 118.681 113.841 119.959 113.841 119.959L109.275 110.831L106.718 86.7323L108.179 66.4676Z" fill="black"/>
<path d="M96.5821 59.9772C104.651 59.9772 111.193 53.4382 111.193 45.372C111.193 37.3057 104.651 30.7668 96.5821 30.7668C88.5128 30.7668 81.9714 37.3057 81.9714 45.372C81.9714 53.4382 88.5128 59.9772 96.5821 59.9772Z" fill="#2F2E41"/>
<path d="M102.426 57.6038C102.426 57.6038 100.965 63.4459 101.696 63.4459C102.426 63.4459 104.983 66.5495 104.983 66.5495L106.627 72.5742L105.349 76.9558L100.965 76.0429L95.4863 70.0183L93.8426 68.3752L92.3815 63.0808C92.3815 63.0808 94.2079 60.89 92.9294 59.0644C91.651 57.2387 102.426 57.6038 102.426 57.6038Z" fill="#FBBEBE"/>
<path opacity="0.1" d="M102.426 57.6038C102.426 57.6038 100.965 63.4459 101.696 63.4459C102.426 63.4459 104.983 66.5495 104.983 66.5495L106.627 72.5742L105.349 76.9558L100.965 76.0429L95.4863 70.0183L93.8426 68.3752L92.3815 63.0808C92.3815 63.0808 94.2079 60.89 92.9294 59.0644C91.651 57.2387 102.426 57.6038 102.426 57.6038Z" fill="black"/>
<path d="M58.2289 73.8521L54.2109 67.2798C54.2109 67.2798 49.8737 57.687 46.7689 61.1557C43.6641 64.6245 51.4714 71.6613 51.4714 71.6613L55.4893 76.9557L58.2289 73.8521Z" fill="#FBBEBE"/>
<path d="M111.558 130.995L108.636 152.355C108.636 152.355 109.001 153.998 105.349 160.023C101.696 166.048 91.8336 179.192 91.8336 179.192L88.9115 173.715C88.9115 173.715 92.3815 156.372 98.4085 152.72L97.6779 126.431L111.558 130.995Z" fill="#FBBEBE"/>
<path opacity="0.1" d="M111.558 130.995L108.636 152.355C108.636 152.355 109.001 153.998 105.349 160.023C101.696 166.048 91.8336 179.192 91.8336 179.192L88.9115 173.715C88.9115 173.715 92.3815 156.372 98.4085 152.72L97.6779 126.431L111.558 130.995Z" fill="black"/>
<path d="M88.9115 171.525L92.9294 179.192C92.9294 179.192 89.642 188.503 90.9205 189.416C92.1989 190.329 93.8426 198.544 90.3726 197.631C86.9025 196.719 84.163 193.067 84.163 192.52C84.163 191.972 86.172 184.304 85.0761 182.478C83.9803 180.653 83.2498 180.105 83.2498 180.105L80.5103 184.669L79.5971 184.122L84.163 176.454C84.163 176.454 84.7109 174.993 86.9025 174.08L88.9115 171.525Z" fill="#2F2E41"/>
<path opacity="0.1" d="M88.9115 171.525L92.9294 179.192C92.9294 179.192 89.642 188.503 90.9205 189.416C92.1989 190.329 93.8426 198.544 90.3726 197.631C86.9025 196.719 84.163 193.067 84.163 192.52C84.163 191.972 86.172 184.304 85.0761 182.478C83.9803 180.653 83.2498 180.105 83.2498 180.105L80.5103 184.669L79.5971 184.122L84.163 176.454C84.163 176.454 84.7109 174.993 86.9025 174.08L88.9115 171.525Z" fill="black"/>
<path d="M97.7206 127.964C97.7206 127.964 99.139 148.156 96.0342 153.451V179.74L91.8336 180.288C91.8336 180.288 84.7109 166.048 87.8157 152.355C90.9205 138.663 83.2498 126.431 83.2498 126.431L97.7206 127.964Z" fill="#FBBEBE"/>
<path d="M96.6735 62.0767C100.91 62.0767 104.344 58.6437 104.344 54.409C104.344 50.1742 100.91 46.7412 96.6735 46.7412C92.4371 46.7412 89.0028 50.1742 89.0028 54.409C89.0028 58.6437 92.4371 62.0767 96.6735 62.0767Z" fill="#FBBEBE"/>
<path d="M104.435 74.5824L96.7648 64.9064L92.3815 61.9854L90.5552 64.3587L85.4414 65.8193C85.4414 65.8193 82.154 66.5495 78.6839 70.5659C75.2139 74.5824 69.0043 76.9557 69.0043 76.9557L63.8906 76.0429C63.8906 76.0429 57.8636 73.3044 57.8636 72.5742C57.8636 71.8439 52.5672 77.5034 53.8456 79.6942C55.1241 81.885 57.8636 84.6235 59.3247 86.084C60.7858 87.5445 61.3336 91.7435 70.2828 90.4656C79.2319 89.1876 82.5193 84.806 82.5193 84.806C82.5193 84.806 84.163 93.204 88.9115 94.8471C93.66 96.4902 109.184 97.5856 109.184 97.5856L112.471 86.6317C112.471 86.6317 116.124 81.885 111.193 74.9475C111.193 74.9475 111.098 71.0676 110.568 68.4857C110.362 67.4815 110.09 66.6737 109.732 66.3669C108.453 65.2715 101.696 63.4459 101.696 63.4459C101.696 63.4459 102.792 67.0972 103.34 67.2798C103.888 67.4623 105.166 73.6696 104.435 74.5824Z" fill="#C7AA88"/>
<path d="M79.8711 129.078C89.0685 128.439 94.4234 129.945 96.8123 131.094C97.2564 131.295 97.6746 131.548 98.0578 131.849C98.2332 131.997 98.3172 132.112 98.3172 132.182C98.3172 132.729 110.919 133.825 115.485 132.729C120.051 131.634 112.38 108.083 110.371 106.075C108.362 104.067 109.445 96.7166 109.445 96.7166C109.445 96.7166 105.44 95.8512 104.344 96.2164C103.248 96.5815 97.5866 95.6687 95.5776 94.5733C93.5687 93.4779 91.0118 94.2082 89.3681 93.843C88.6339 93.6805 88.2631 93.9544 88.0787 94.3086C87.7915 94.8399 87.358 95.2777 86.8295 95.5701C82.9521 97.8029 79.84 113.241 77.4968 121.775C74.9399 131.086 79.8711 129.078 79.8711 129.078Z" fill="#2F2E41"/>
<path d="M96.7648 178.097L97.4953 182.113C97.4953 182.113 101.331 187.59 100.235 192.154C100.235 192.154 101.148 198.179 104.435 199.822C107.723 201.465 104.983 205.299 101.879 205.117C98.7738 204.934 95.8516 205.299 95.4863 204.386C95.1211 203.473 92.9295 194.528 92.9295 194.528V201.1L91.1031 201.283V193.067C91.1031 193.067 89.642 190.329 91.651 185.765L91.144 178.759C91.144 178.759 96.2169 179.923 96.7648 178.097Z" fill="#2F2E41"/>
<path d="M96.5821 38.4345C100.819 38.4345 104.253 35.0015 104.253 30.7668C104.253 26.532 100.819 23.099 96.5821 23.099C92.3458 23.099 88.9115 26.532 88.9115 30.7668C88.9115 35.0015 92.3458 38.4345 96.5821 38.4345Z" fill="#2F2E41"/>
<path d="M102.483 35.4259C103.447 34.6934 104.224 33.7431 104.75 32.6528C105.276 31.5625 105.537 30.3632 105.51 29.1529C105.484 27.9426 105.171 26.7559 104.598 25.6896C104.024 24.6234 103.206 23.708 102.211 23.0184C103.182 23.4573 104.052 24.0938 104.763 24.8872C105.475 25.6806 106.013 26.6136 106.344 27.6266C106.675 28.6396 106.791 29.7104 106.684 30.7707C106.578 31.831 106.252 32.8575 105.727 33.7847C105.201 34.712 104.489 35.5197 103.634 36.1562C102.779 36.7927 101.801 37.2442 100.761 37.4817C99.7222 37.7193 98.6449 37.7378 97.5982 37.5359C96.5515 37.3341 95.5584 36.9164 94.6821 36.3095C95.9414 36.8784 97.331 37.0967 98.7042 36.9411C100.077 36.7856 101.383 36.262 102.483 35.4259Z" fill="#2F2E41"/>
<path d="M96.7648 54.5002C101.102 54.5002 104.618 51.7212 104.618 48.293C104.618 44.8648 101.102 42.0858 96.7648 42.0858C92.4275 42.0858 88.9115 44.8648 88.9115 48.293C88.9115 51.7212 92.4275 54.5002 96.7648 54.5002Z" fill="#2F2E41"/>
<path opacity="0.1" d="M96.8123 131.094C97.2564 131.295 97.6746 131.548 98.0578 131.849C98.1546 130.124 98.7135 119.691 98.0432 119.859L96.8123 131.094Z" fill="black"/>
<path d="M32.3785 69.547C46.618 69.547 58.1614 58.008 58.1614 43.7739C58.1614 29.5398 46.618 18.0009 32.3785 18.0009C18.139 18.0009 6.59561 29.5398 6.59561 43.7739C6.59561 58.008 18.139 69.547 32.3785 69.547Z" fill="#FF6584"/>
<path d="M49.5718 65.0359C49.781 64.5855 49.0983 63.825 48.047 63.3371C46.9957 62.8493 45.9739 62.819 45.7648 63.2694C45.5557 63.7197 46.2383 64.4803 47.2896 64.9681C48.3409 65.4559 49.3627 65.4863 49.5718 65.0359Z" fill="#FBBEBE"/>
</g>
<defs>
<clipPath id="clip0_3_1251">
<rect width="301" height="229" fill="white"/>
</clipPath>
</defs>
</svg>
