<svg width="197" height="188" viewBox="0 0 197 188" fill="none" xmlns="http://www.w3.org/2000/svg">
<g clip-path="url(#clip0_2_222)">
<path d="M131.573 55.9811C130.891 56.7876 130.026 57.4196 129.049 57.8244L126.251 60.9644L118.325 70.5014L112.971 73.7291L110.485 69.4637L122.221 58.0707L125.492 54.7547C125.754 53.7328 126.258 52.7885 126.962 52.0009C128.694 50.0061 131.131 49.2805 132.405 50.3794C133.678 51.4786 133.306 53.986 131.573 55.9811Z" fill="#FFAFAF"/>
<path d="M83.6699 65.4573L88.8238 56.9097L110.751 66.2989L122.737 56.54C122.737 56.54 127.492 60.622 127.662 60.7678C127.831 60.9135 115.575 77.8304 114.705 77.8104C113.835 77.7905 83.6699 65.4573 83.6699 65.4573Z" fill="#DEDEDE"/>
<path d="M0 185.21C0 185.465 0.205545 185.67 0.461503 185.67H196.539C196.794 185.67 197 185.465 197 185.21C197 184.955 196.794 184.75 196.539 184.75H0.461503C0.205545 184.75 0 184.955 0 185.21Z" fill="#3F3D58"/>
<path d="M133.161 0C148.771 0 161.471 11.8754 161.471 26.4726C161.471 30.5512 160.451 34.608 158.516 38.2476H158.539L158.027 39.1353C153.679 46.6 151.264 55.101 151.045 63.7186C150.979 66.3458 148.861 68.4037 146.224 68.4037H124.163C121.321 68.4037 118.933 66.3731 118.487 63.5756C117.4 56.7691 115.227 50.2106 112.029 44.0816C107.4 39.2278 104.852 32.9761 104.852 26.4726C104.852 11.8754 117.552 0 133.161 0ZM157.341 38.7734L157.524 38.4443C159.599 34.7752 160.695 30.6354 160.695 26.4726C160.695 12.3019 148.343 0.772924 133.161 0.772924C117.979 0.772924 105.628 12.3019 105.628 26.4726C105.628 32.7945 108.113 38.8726 112.628 43.5879L112.691 43.6762C115.942 49.8928 118.15 56.5472 119.252 63.4541C119.639 65.8742 121.704 67.6308 124.163 67.6308H146.224C148.437 67.6308 150.214 65.9038 150.27 63.699C150.492 54.9625 152.937 46.3441 157.341 38.7734Z" fill="#3F3D56"/>
<path d="M149.276 66.4714H120.15C119.224 66.4714 118.497 67.2639 118.581 68.183L118.854 71.1725C119.082 73.6742 119.874 76.0924 121.171 78.2464C121.388 78.6066 121.798 78.8039 122.216 78.7536C130.847 77.7169 139.291 77.683 147.533 78.7386C147.984 78.7964 148.422 78.5667 148.625 78.1615L148.812 77.7895C149.745 75.9286 150.321 73.9102 150.51 71.8383L150.844 68.183C150.928 67.2639 150.202 66.4714 149.276 66.4714Z" fill="#3F3D56"/>
<path d="M123.079 76.7126H146.928V92.1819C146.928 94.9488 144.674 97.1951 141.898 97.1951H128.109C125.333 97.1951 123.079 94.9488 123.079 92.1819V76.7126Z" fill="#3F3D56"/>
<path d="M138.072 101.253H132.904C132.335 101.253 131.802 100.979 131.471 100.518L128.12 95.8425H142.856L139.505 100.518C139.174 100.979 138.641 101.253 138.072 101.253Z" fill="#3F3D56"/>
<path d="M141.983 13.6523C138.188 14.4353 134.394 15.2184 130.599 16.0014C128.893 16.3535 126.982 16.5362 125.431 17.3813C123.928 18.2007 122.876 19.9198 123.413 21.6407C123.927 23.2842 125.443 24.3151 127.068 24.6816C128.872 25.0882 130.804 25.0853 132.643 25.2268C134.56 25.3743 136.478 25.5218 138.395 25.6693C139.308 25.7395 140.225 25.788 141.136 25.8814C141.427 25.9113 141.745 25.9469 141.984 26.131C141.98 26.1282 142.065 26.1809 142.018 26.189C142.009 26.1906 142.008 26.1294 142.009 26.1253C142.046 26.0106 142.031 26.1191 142.001 26.1194C141.991 26.1195 141.716 26.3003 141.563 26.3289C141.149 26.4059 140.693 26.3499 140.274 26.3428C139.364 26.3273 138.454 26.3444 137.545 26.3938C135.715 26.4932 133.888 26.72 132.089 27.0635C130.319 27.4014 128.557 27.8513 126.858 28.4506C125.21 29.0316 123.483 30.135 123.439 32.0818C123.397 33.9103 124.988 35.1952 126.609 35.6546C127.443 35.8908 128.322 35.9765 129.177 36.1032C130.131 36.2447 131.085 36.3861 132.039 36.5276C133.916 36.8057 135.792 37.0839 137.668 37.3621C138.623 37.5035 139.577 37.645 140.531 37.7864C140.976 37.8524 141.423 37.9092 141.867 37.9844C142.03 38.0122 142.184 38.0634 142.345 38.0964C142.237 38.0742 142.372 38.0744 142.349 38.0996C142.42 38.1427 142.42 38.1362 142.35 38.08L142.302 38.0098C142.192 37.7036 142.196 37.6632 142.396 37.301C142.434 37.2318 142.512 37.3032 142.413 37.2923C142.307 37.2807 142.476 37.2792 142.364 37.3254C142.308 37.3485 142.247 37.3642 142.188 37.3803C141.746 37.5022 141.283 37.5658 140.834 37.6538C139.899 37.8367 138.964 38.0196 138.029 38.2025C136.191 38.5623 134.352 38.9219 132.514 39.2818C129.275 39.9157 125.836 40.773 123.895 43.6851C123.473 44.3186 123.167 45.0485 123.014 45.7932C122.888 46.406 123.192 47.0457 123.826 47.2193C124.401 47.3769 125.131 47.0259 125.257 46.4096C125.872 43.4183 129.157 42.3441 131.858 41.7735C133.648 41.3953 135.45 41.0643 137.246 40.7129C139.056 40.3587 140.895 40.0703 142.689 39.6457C143.444 39.4672 144.262 39.005 144.473 38.2033C144.704 37.3255 144.269 36.4782 143.471 36.0693C142.705 35.6772 141.795 35.6462 140.958 35.5222C140.036 35.3855 139.114 35.2487 138.192 35.112C136.315 34.8338 134.439 34.5557 132.562 34.2775C131.64 34.1407 130.718 34.004 129.795 33.8673C128.94 33.7405 128.062 33.6549 127.228 33.4186C126.664 33.2588 126.086 32.9845 125.837 32.4492C125.757 32.2766 125.736 32.151 125.791 31.9569C125.866 31.6904 126.076 31.4423 126.309 31.2586C126.846 30.8353 127.573 30.6465 128.212 30.4423C129.05 30.1744 129.897 29.9354 130.751 29.7258C132.448 29.3096 134.172 29.005 135.911 28.8362C136.817 28.7483 137.726 28.6924 138.636 28.6688C139.497 28.6466 140.36 28.6997 141.22 28.6732C142.136 28.6449 143.08 28.4007 143.709 27.6926C144.357 26.9638 144.514 25.9687 144.063 25.0951C143.172 23.3664 140.809 23.5362 139.162 23.4095C137.277 23.2645 135.391 23.1194 133.505 22.9744C131.742 22.8387 129.929 22.8102 128.181 22.5397C127.534 22.4396 126.788 22.2552 126.3 21.8708C125.852 21.5184 125.562 21.0564 125.597 20.5934C125.63 20.1627 126.072 19.687 126.534 19.4227C127.182 19.0518 127.947 18.9134 128.671 18.763C132.396 17.989 136.124 17.2249 139.851 16.4559C140.768 16.2667 141.685 16.0775 142.602 15.8882C143.217 15.7612 143.573 15.0378 143.414 14.4621C143.239 13.8252 142.6 13.5249 141.983 13.6523Z" fill="#041F30"/>
<path d="M93.0815 50.6265H85.4606V65.3689H93.0815V50.6265Z" fill="#FFAFAF"/>
<path d="M105.663 91.7067L87.2834 90.3665C87.2834 90.3665 79.6625 107.789 85.4902 118.958L89.5248 142.188L87.9294 180.424H96.2775L109.249 118.958L105.663 91.7067Z" fill="#2F2E41"/>
<path d="M102.077 111.22L109.249 117.442L105.663 178.375H97.594L102.077 111.22Z" fill="#2F2E41"/>
<path d="M89.1681 53.5252C94.4301 53.5252 98.6958 49.2742 98.6958 44.0303C98.6958 38.7864 94.4301 34.5354 89.1681 34.5354C83.906 34.5354 79.6403 38.7864 79.6403 44.0303C79.6403 49.2742 83.906 53.5252 89.1681 53.5252Z" fill="#FFAFAF"/>
<path d="M88.0269 171.35L97.869 172.9L99.7188 179.936C99.7188 179.936 107.71 182.932 103.86 186.189C100.009 189.446 85.7841 187.762 84.6594 185.426C83.5347 183.09 88.0269 171.35 88.0269 171.35Z" fill="#2F2E41"/>
<path d="M96.0961 171.35L105.938 172.9L107.788 179.936C107.788 179.936 115.779 182.932 111.929 186.189C108.078 189.446 93.8532 187.762 92.7285 185.426C91.6038 183.09 96.0961 171.35 96.0961 171.35Z" fill="#2F2E41"/>
<path d="M123.286 90.1958C122.228 90.2074 121.183 89.9666 120.238 89.4931L116.024 89.4298L103.601 89.6701L97.6522 87.7338L99.2724 83.0728L115.594 84.4988L120.25 84.8039C121.198 84.335 122.245 84.0992 123.303 84.1166C125.95 84.1228 128.092 85.4895 128.088 87.1681C128.084 88.8471 125.934 90.2024 123.286 90.1958Z" fill="#FFAFAF"/>
<path d="M93.7835 56.1909H84.3516L81.2315 65.5725L87.2834 90.3666L105.663 91.7069L104.542 81.6552C106.712 78.1412 106.539 73.6695 104.104 70.3326L93.7835 56.1909Z" fill="#DEDEDE"/>
<path d="M84.8178 60.2116L94.6801 58.5244L101.853 81.2085L117.094 83.8889V90.3667C117.094 90.5901 96.234 92.377 95.6812 91.7069C95.1284 91.0368 84.8178 60.2116 84.8178 60.2116Z" fill="#DEDEDE"/>
<path d="M93.9256 38.5253C95.096 40.4175 94.0169 42.9099 92.575 44.606C91.1332 46.302 89.274 47.7908 88.6302 49.9191C88.053 51.8273 88.5781 53.8852 89.2568 55.7599C89.9356 57.6346 90.7796 59.5037 90.8495 61.4955C90.9195 63.4872 89.9736 65.6868 88.091 66.3592C86.1591 67.0492 83.8752 65.9649 82.0144 66.8274C79.5907 67.9509 79.0415 71.8406 76.3992 72.2438C74.7731 72.492 73.266 71.0871 72.8116 69.5115C72.3571 67.9359 72.6835 66.2541 73.012 64.6478C73.9121 60.2465 74.8122 55.8452 75.7124 51.4439C76.4613 47.7818 77.2102 44.1197 77.9592 40.4576C78.4063 38.2711 78.9369 35.9323 80.5858 34.4227C82.6007 32.578 85.6378 32.5342 88.3717 32.6447C90.8835 32.7463 93.4966 32.9175 95.6833 34.1534C97.8699 35.3892 99.4761 38.0162 98.7194 40.4052C98.0127 38.7238 95.9012 37.7805 94.1714 38.3735" fill="#2F2E41"/>
</g>
<defs>
<clipPath id="clip0_2_222">
<rect width="197" height="188" fill="white"/>
</clipPath>
</defs>
</svg>
