<svg width="225" height="238" viewBox="0 0 225 238" fill="none" xmlns="http://www.w3.org/2000/svg">
<g clip-path="url(#clip0_2_332)">
<path d="M56.8747 238H27.8942C27.8251 237.695 27.756 237.391 27.6908 237.083C26.4625 231.536 25.4261 225.936 24.405 220.374C20.3439 198.25 16.2867 176.126 12.2255 154.002C10.7784 146.123 9.33133 138.068 10.5366 130.151C11.7457 122.234 16.1254 114.34 23.4224 111.102C23.9866 110.852 24.5586 110.632 25.1343 110.443C27.7253 122.635 30.4314 134.803 33.2604 146.94C36.1738 159.436 39.2139 171.901 42.3768 184.335C45.555 196.831 48.8638 209.293 52.2954 221.715C53.7118 226.845 55.1512 231.968 56.6137 237.083C56.6981 237.387 56.7864 237.695 56.8747 238Z" fill="#D7D7D8"/>
<path d="M215.419 190.379C205.527 206.333 195.448 222.378 183.848 237.083C183.606 237.391 183.364 237.696 183.118 238H140.312C140.542 237.696 140.78 237.387 141.018 237.083C147.743 228.376 154.652 219.811 161.765 211.42C169.883 201.85 178.27 192.507 186.999 183.491C195.398 174.819 204.107 166.447 213.224 158.542C214.306 157.602 215.392 156.673 216.486 155.748C217.434 154.946 216.068 153.589 215.131 154.383C205.946 162.158 197.171 170.41 188.719 178.982C179.909 187.916 171.446 197.194 163.266 206.71C154.971 216.358 146.968 226.248 139.195 236.32C138.999 236.574 138.803 236.828 138.611 237.083C138.373 237.387 138.135 237.692 137.909 238H58.8707C58.7824 237.696 58.6942 237.387 58.6097 237.083C57.5388 233.344 56.4832 229.605 55.4391 225.863C51.9768 213.444 48.6373 200.994 45.4245 188.506C42.2309 176.083 39.1601 163.626 36.216 151.138C33.2566 138.588 30.4238 126.011 27.7215 113.403C27.4758 112.251 27.2302 111.095 26.9845 109.942C34.4849 108.293 42.7107 111.176 49.6661 114.914C73.3994 127.68 91.4249 150.722 98.1575 176.897C103.293 162.851 118.29 155.231 132.493 150.687C150.595 144.898 169.584 141.883 188.584 141.791C195.432 141.756 202.411 142.122 208.84 144.489C215.273 146.852 221.158 151.485 223.641 157.891C227.833 168.714 221.53 180.52 215.419 190.379Z" fill="#DDDEDF"/>
<path d="M133.69 160.119C137.847 163.187 142.83 163.426 144.818 160.647C146.803 157.871 145.041 153.134 140.88 150.066C139.233 148.817 137.31 147.996 135.264 147.68L117.477 134.911L111.554 143.788L129.718 155.432C130.646 157.309 132.009 158.916 133.69 160.119Z" fill="#F6A6A9"/>
<path d="M92.4075 63.524C86.5346 64.2718 82.3814 69.6679 83.1414 75.5612L88.5383 147.939L131.514 166.054L137.295 158.565L107.596 136.738L112.064 80.148C111.604 69.9069 102.537 62.2405 92.4075 63.5279V63.524Z" fill="#041F30"/>
<path d="M73.0232 65.6747L93.916 72.5701V42.3711H74.9578L73.0232 65.6747Z" fill="#F6A6A9"/>
<path d="M91.3289 50.7274C102.827 50.7274 112.149 41.3674 112.149 29.8213C112.149 18.2752 102.827 8.91516 91.3289 8.91516C79.8304 8.91516 70.509 18.2752 70.509 29.8213C70.509 41.3674 79.8304 50.7274 91.3289 50.7274Z" fill="#F6A6A9"/>
<path d="M85.6134 27.7515C89.1026 27.6475 91.3865 24.1053 92.7414 20.8792C94.0964 17.6492 95.4898 13.9413 98.7179 12.6077C101.363 11.5169 106.026 18.8826 108.115 16.9207C110.287 14.8779 108.168 4.37088 105.861 2.48224C103.554 0.59745 100.395 0.22743 97.4205 0.0925269C90.1658 -0.242804 82.865 0.346916 75.7562 1.83856C71.3573 2.75975 66.8279 4.14733 63.6573 7.34261C59.6422 11.3936 58.6097 17.5066 58.3218 23.2149C58.0263 29.0582 58.3602 35.1789 61.1892 40.2937C64.0181 45.4084 69.9447 49.178 75.6218 47.8752C76.1938 44.7763 75.6103 41.5964 75.3915 38.4474C75.1727 35.3022 75.403 31.9027 77.3146 29.4012C79.2262 26.8997 83.3141 25.9053 85.5405 28.1254" fill="#2F2E41"/>
<path d="M59.9954 34.9938C57.9111 33.4598 55.4199 32.1801 52.8558 32.4923C50.0844 32.8315 47.7468 35.121 47.0328 37.8306C46.3189 40.5403 47.1173 43.5274 48.8331 45.7398C50.5451 47.9522 53.0938 49.4246 55.7884 50.1492C57.3468 50.5694 59.0588 50.7467 60.5404 50.1068C62.7322 49.1625 63.9106 46.3527 63.0508 44.1171" fill="#2F2E41"/>
<path d="M81.0686 148.748L73.6642 149.519C73.6642 149.519 55.0553 177.209 73.6642 200.019L73.9214 237.545H108.387C108.387 237.545 122.682 195.405 115.024 180.281L122.171 175.921L81.0686 148.748Z" fill="#2F2E41"/>
<path d="M80.0822 156.199L73.9636 160.454C73.9636 160.454 59.7958 198.416 98.2036 204.702L116.44 237.457L146.638 237.541C146.638 237.541 138.938 176.935 124.965 167.392L129.138 160.115L80.0822 156.199Z" fill="#2F2E41"/>
<path d="M95.6203 57.7463L70.5051 52.7549L62.429 80.8186C62.429 80.8186 89.2331 133.627 73.6604 149.519L122.167 175.921C122.167 175.921 175.012 147.21 116.041 105.171C116.041 105.171 125.998 93.1218 114.763 82.6109C103.531 72.1 95.6165 57.7463 95.6165 57.7463H95.6203Z" fill="#041F30"/>
<path d="M118.29 181.406C122.447 184.474 127.43 184.713 129.418 181.934C131.403 179.159 129.641 174.422 125.48 171.354C123.833 170.105 121.91 169.284 119.864 168.968L102.077 156.199L96.1539 165.075L114.318 176.719C115.246 178.596 116.609 180.204 118.29 181.406Z" fill="#F6A6A9"/>
<path d="M61.3466 63.524C55.4737 64.2717 51.3204 69.6679 52.0805 75.5612L57.4774 147.939L111.3 177.205L114.87 164.929L76.5316 136.734L80.9996 80.144C80.5389 69.903 71.4725 62.2366 61.3427 63.524H61.3466Z" fill="#041F30"/>
<path d="M206.376 237.541C206.376 237.796 206.172 238 205.919 238H0.456779C0.203439 238 0 237.796 0 237.541C0 237.287 0.203439 237.083 0.456779 237.083H205.919C206.172 237.083 206.376 237.287 206.376 237.541Z" fill="#2F2E41"/>
</g>
<defs>
<clipPath id="clip0_2_332">
<rect width="225" height="238" fill="white"/>
</clipPath>
</defs>
</svg>
