<svg width="373" height="137" viewBox="0 0 373 137" fill="none" xmlns="http://www.w3.org/2000/svg">
<g clip-path="url(#clip0_2_243)">
<path d="M224.655 136.725H140.444V28.9824C140.444 14.9606 151.81 3.55286 165.78 3.55286H199.319C213.289 3.55286 224.655 14.9606 224.655 28.9824V136.725Z" fill="#E6E6E6"/>
<path d="M195.878 27.7958H169.588C167.477 27.7958 165.76 26.0723 165.76 23.9538V16.8955C165.76 14.7769 167.477 13.0535 169.588 13.0535H195.878C197.988 13.0535 199.705 14.7769 199.705 16.8955V23.9538C199.705 26.0724 197.988 27.7958 195.878 27.7958Z" fill="white"/>
<path d="M183.366 58.4272V5.68237H183.039V58.4272H183.366Z" fill="#E6E6E6"/>
<path d="M214.785 116.741H208.087C206.154 116.741 204.582 115.163 204.582 113.223V92.7409C204.582 90.8008 206.154 89.2223 208.087 89.2223H214.785C216.718 89.2223 218.29 90.8008 218.29 92.7409V113.223C218.29 115.163 216.718 116.741 214.785 116.741Z" fill="white"/>
<path d="M171.047 131.156H152.599C150.666 131.156 149.094 129.578 149.094 127.637V91.4304C149.094 89.4904 150.666 87.9119 152.599 87.9119H171.047C172.98 87.9119 174.553 89.4904 174.553 91.4304V127.637C174.553 129.578 172.98 131.156 171.047 131.156Z" fill="white"/>
<path d="M175.004 90.6965H148.66C147.668 90.6965 146.83 90.0847 146.524 89.1381C146.219 88.1914 146.54 87.2025 147.342 86.6183L160.656 76.9347C161.452 76.3559 162.519 76.3614 163.309 76.9488L176.34 86.6324C177.133 87.2214 177.445 88.2093 177.136 89.1493C176.827 90.0892 175.991 90.6965 175.004 90.6965Z" fill="#CCCCCC"/>
<path d="M217.529 91.0241H205.361C204.369 91.0241 203.531 90.4124 203.225 89.4658C202.919 88.5191 203.241 87.5302 204.043 86.946L210.193 82.4734C210.989 81.8943 212.055 81.8997 212.846 82.4875L218.865 86.9601C219.657 87.5487 219.97 88.5367 219.661 89.4766C219.352 90.4166 218.515 91.0241 217.529 91.0241Z" fill="#CCCCCC"/>
<path d="M212.101 71.859H204.569C202.866 71.859 201.481 70.4683 201.481 68.7589V47.4401C201.481 45.7307 202.866 44.34 204.569 44.34H212.101C213.804 44.34 215.189 45.7307 215.189 47.4401V68.7589C215.189 70.4683 213.804 71.859 212.101 71.859Z" fill="white"/>
<path d="M186.315 71.859H178.784C177.081 71.859 175.695 70.4683 175.695 68.7589V47.4401C175.695 45.7307 177.081 44.34 178.784 44.34H186.315C188.019 44.34 189.404 45.7307 189.404 47.4401V68.7589C189.404 70.4683 188.019 71.859 186.315 71.859Z" fill="white"/>
<path d="M160.204 71.859H152.672C150.969 71.859 149.583 70.4683 149.583 68.7589V47.4401C149.583 45.7307 150.969 44.34 152.672 44.34H160.204C161.907 44.34 163.292 45.7307 163.292 47.4401V68.7589C163.292 70.4683 161.907 71.859 160.204 71.859Z" fill="white"/>
<path d="M214.374 46.797H150.725C149.585 46.797 148.887 45.9867 148.701 45.1839C148.515 44.3806 148.785 43.3444 149.808 42.8395L181.974 26.9745C182.554 26.6888 183.245 26.6914 183.823 26.9825L215.306 42.8475C216.198 43.2973 216.626 44.2178 216.396 45.1926C216.166 46.1671 215.372 46.797 214.374 46.797Z" fill="#CCCCCC"/>
<path d="M224.492 136.562H143.72V128.334C143.72 121.852 153.281 116.578 165.033 116.578H224.492V136.562Z" fill="#3F3D56"/>
<path d="M193.158 104.947H188.914V120.673H193.158V104.947Z" fill="#3F3D56"/>
<path d="M224.492 104.947H220.249V120.673H224.492V104.947Z" fill="#3F3D56"/>
<path d="M221.554 106.258H192.505V106.585H221.554V106.258Z" fill="#3F3D56"/>
<path d="M218.29 58.0995H147.788V58.4271H218.29V58.0995Z" fill="#E6E6E6"/>
<path d="M221.554 111.5H192.505V111.827H221.554V111.5Z" fill="#3F3D56"/>
<path d="M221.554 114.12H192.505V114.448H221.554V114.12Z" fill="#3F3D56"/>
<path d="M199.034 14.4516H166.065C165.552 14.4516 165.118 14.1352 164.96 13.645C164.802 13.1552 164.968 12.6433 165.384 12.341L182.045 0.222724C182.457 -0.0764091 183.009 -0.0744905 183.418 0.230082L199.725 12.3484C200.135 12.6529 200.297 13.1642 200.137 13.6508C199.977 14.1371 199.544 14.4516 199.034 14.4516Z" fill="#CCCCCC"/>
<path d="M156.274 109.862H150.399V110.517H156.274V109.862Z" fill="#E6E6E6"/>
<path d="M129.075 136.725H44.8637V28.9824C44.8637 14.9606 56.2294 3.55286 70.1995 3.55286H103.739C117.709 3.55286 129.075 14.9606 129.075 28.9824V136.725Z" fill="#E6E6E6"/>
<path d="M100.297 27.7958H74.0073C71.8967 27.7958 70.1796 26.0723 70.1796 23.9538V16.8955C70.1796 14.7769 71.8967 13.0535 74.0073 13.0535H100.297C102.408 13.0535 104.125 14.7769 104.125 16.8955V23.9538C104.125 26.0724 102.408 27.7958 100.297 27.7958Z" fill="white"/>
<path d="M87.7852 58.4272V5.68237H87.4588V58.4272H87.7852Z" fill="#E6E6E6"/>
<path d="M119.204 116.741H112.507C110.574 116.741 109.001 115.163 109.001 113.223V92.7409C109.001 90.8008 110.574 89.2223 112.507 89.2223H119.204C121.137 89.2223 122.71 90.8008 122.71 92.7409V113.223C122.71 115.163 121.137 116.741 119.204 116.741Z" fill="white"/>
<path d="M75.4668 131.156H57.0189C55.0859 131.156 53.5133 129.578 53.5133 127.637V91.4304C53.5133 89.4904 55.0859 87.9119 57.0189 87.9119H75.4668C77.3999 87.9119 78.9724 89.4904 78.9724 91.4304V127.637C78.9724 129.578 77.3999 131.156 75.4668 131.156Z" fill="white"/>
<path d="M79.424 90.6965H53.0795C52.088 90.6965 51.2497 90.0847 50.9439 89.1381C50.6382 88.1914 50.9593 87.2025 51.7621 86.6183L65.0755 76.9347C65.872 76.3559 66.9384 76.3614 67.7287 76.9488L80.7597 86.6324C81.5524 87.2214 81.8648 88.2093 81.5559 89.1493C81.2469 90.0892 80.4102 90.6965 79.424 90.6965Z" fill="#CCCCCC"/>
<path d="M121.948 91.0241H109.78C108.789 91.0241 107.951 90.4124 107.645 89.4658C107.339 88.5191 107.66 87.5302 108.463 86.946L114.612 82.4734C115.409 81.8943 116.475 81.8997 117.265 82.4875L123.284 86.9601C124.077 87.5487 124.389 88.5367 124.08 89.4766C123.771 90.4166 122.934 91.0241 121.948 91.0241Z" fill="#CCCCCC"/>
<path d="M116.521 71.859H108.989C107.286 71.859 105.9 70.4683 105.9 68.7589V47.4401C105.9 45.7307 107.286 44.34 108.989 44.34H116.521C118.224 44.34 119.609 45.7307 119.609 47.4401V68.7589C119.609 70.4683 118.224 71.859 116.521 71.859Z" fill="white"/>
<path d="M90.7351 71.859H83.2034C81.5003 71.859 80.1148 70.4683 80.1148 68.7589V47.4401C80.1148 45.7307 81.5003 44.34 83.2034 44.34H90.7351C92.4382 44.34 93.8236 45.7307 93.8236 47.4401V68.7589C93.8236 70.4683 92.4382 71.859 90.7351 71.859Z" fill="white"/>
<path d="M64.6232 71.859H57.0914C55.3884 71.859 54.0029 70.4683 54.0029 68.7589V47.4401C54.0029 45.7307 55.3884 44.34 57.0914 44.34H64.6232C66.3262 44.34 67.7117 45.7307 67.7117 47.4401V68.7589C67.7117 70.4683 66.3262 71.859 64.6232 71.859Z" fill="white"/>
<path d="M118.794 46.797H55.1445C54.0045 46.797 53.3066 45.9867 53.1206 45.1839C52.9346 44.3806 53.2049 43.3444 54.2281 42.8395L86.3939 26.9745C86.9735 26.6888 87.6646 26.6914 88.2426 26.9825L119.726 42.8475C120.618 43.2973 121.046 44.2178 120.816 45.1926C120.585 46.1671 119.792 46.797 118.794 46.797Z" fill="#CCCCCC"/>
<path d="M128.911 136.562H84.6844V128.334C84.6844 121.852 89.9195 116.578 96.3544 116.578H128.911V136.562Z" fill="#3F3D56"/>
<path d="M97.5772 104.947H93.334V120.673H97.5772V104.947Z" fill="#3F3D56"/>
<path d="M128.911 104.947H124.668V120.673H128.911V104.947Z" fill="#3F3D56"/>
<path d="M125.974 106.258H96.9244V106.585H125.974V106.258Z" fill="#3F3D56"/>
<path d="M122.71 58.0995H52.2077V58.4271H122.71V58.0995Z" fill="#E6E6E6"/>
<path d="M125.974 111.5H96.9244V111.827H125.974V111.5Z" fill="#3F3D56"/>
<path d="M125.974 114.12H96.9244V114.448H125.974V114.12Z" fill="#3F3D56"/>
<path d="M103.453 14.4516H70.4851C69.9719 14.4516 69.5381 14.1352 69.3798 13.645C69.2216 13.1552 69.3878 12.6433 69.8033 12.341L86.4642 0.222724C86.8763 -0.0764091 87.4282 -0.0744905 87.8372 0.230082L104.145 12.3484C104.555 12.6529 104.717 13.1642 104.557 13.6508C104.397 14.1371 103.964 14.4516 103.453 14.4516Z" fill="#CCCCCC"/>
<path d="M60.6941 109.862H54.8189V110.517H60.6941V109.862Z" fill="#E6E6E6"/>
<path d="M317.152 136.725H232.941V28.9824C232.941 14.9606 244.307 3.55286 258.277 3.55286H291.816C305.787 3.55286 317.152 14.9606 317.152 28.9824V136.725Z" fill="#E6E6E6"/>
<path d="M288.375 27.7958H262.085C259.974 27.7958 258.257 26.0723 258.257 23.9538V16.8955C258.257 14.7769 259.974 13.0535 262.085 13.0535H288.375C290.486 13.0535 292.203 14.7769 292.203 16.8955V23.9538C292.203 26.0724 290.486 27.7958 288.375 27.7958Z" fill="white"/>
<path d="M275.863 58.4272V5.68237H275.536V58.4272H275.863Z" fill="#E6E6E6"/>
<path d="M307.282 116.741H300.584C298.651 116.741 297.079 115.163 297.079 113.223V92.7409C297.079 90.8008 298.651 89.2223 300.584 89.2223H307.282C309.215 89.2223 310.787 90.8008 310.787 92.7409V113.223C310.787 115.163 309.215 116.741 307.282 116.741Z" fill="white"/>
<path d="M263.544 131.156H245.096C243.163 131.156 241.591 129.578 241.591 127.637V91.4304C241.591 89.4904 243.163 87.9119 245.096 87.9119H263.544C265.477 87.9119 267.05 89.4904 267.05 91.4304V127.637C267.05 129.578 265.477 131.156 263.544 131.156Z" fill="white"/>
<path d="M267.501 90.6965H241.157C240.166 90.6965 239.327 90.0847 239.021 89.1381C238.716 88.1914 239.037 87.2025 239.84 86.6183L253.153 76.9347C253.95 76.3559 255.016 76.3614 255.806 76.9488L268.837 86.6324C269.63 87.2214 269.942 88.2093 269.633 89.1493C269.324 90.0892 268.488 90.6965 267.501 90.6965Z" fill="#CCCCCC"/>
<path d="M310.026 91.0241H297.858C296.866 91.0241 296.028 90.4124 295.722 89.4658C295.416 88.5191 295.738 87.5302 296.54 86.946L302.69 82.4734C303.486 81.8943 304.553 81.8997 305.343 82.4875L311.362 86.9601C312.154 87.5487 312.467 88.5367 312.158 89.4766C311.849 90.4166 311.012 91.0241 310.026 91.0241Z" fill="#CCCCCC"/>
<path d="M304.598 71.859H297.066C295.363 71.859 293.978 70.4683 293.978 68.7589V47.4401C293.978 45.7307 295.363 44.34 297.066 44.34H304.598C306.301 44.34 307.687 45.7307 307.687 47.4401V68.7589C307.687 70.4683 306.301 71.859 304.598 71.859Z" fill="white"/>
<path d="M278.813 71.859H271.281C269.578 71.859 268.192 70.4683 268.192 68.7589V47.4401C268.192 45.7307 269.578 44.34 271.281 44.34H278.813C280.516 44.34 281.901 45.7307 281.901 47.4401V68.7589C281.901 70.4683 280.516 71.859 278.813 71.859Z" fill="white"/>
<path d="M252.701 71.859H245.169C243.466 71.859 242.08 70.4683 242.08 68.7589V47.4401C242.08 45.7307 243.466 44.34 245.169 44.34H252.701C254.404 44.34 255.789 45.7307 255.789 47.4401V68.7589C255.789 70.4683 254.404 71.859 252.701 71.859Z" fill="white"/>
<path d="M306.871 46.797H243.222C242.082 46.797 241.384 45.9867 241.198 45.1839C241.012 44.3806 241.282 43.3444 242.306 42.8395L274.471 26.9745C275.051 26.6888 275.742 26.6914 276.32 26.9825L307.804 42.8475C308.696 43.2973 309.123 44.2178 308.893 45.1926C308.663 46.1671 307.869 46.797 306.871 46.797Z" fill="#CCCCCC"/>
<path d="M316.989 136.562H272.762V128.334C272.762 121.852 277.997 116.578 284.432 116.578H316.989V136.562Z" fill="#3F3D56"/>
<path d="M285.655 104.947H281.412V120.673H285.655V104.947Z" fill="#3F3D56"/>
<path d="M316.989 104.947H312.746V120.673H316.989V104.947Z" fill="#3F3D56"/>
<path d="M314.051 106.258H285.002V106.585H314.051V106.258Z" fill="#3F3D56"/>
<path d="M310.787 58.0995H240.285V58.4271H310.787V58.0995Z" fill="#E6E6E6"/>
<path d="M314.051 111.5H285.002V111.827H314.051V111.5Z" fill="#3F3D56"/>
<path d="M314.051 114.12H285.002V114.448H314.051V114.12Z" fill="#3F3D56"/>
<path d="M291.531 14.4516H258.563C258.049 14.4516 257.616 14.1352 257.457 13.645C257.299 13.1552 257.465 12.6433 257.881 12.341L274.542 0.222724C274.954 -0.0764091 275.506 -0.0744905 275.915 0.230082L292.222 12.3484C292.632 12.6529 292.794 13.1642 292.634 13.6508C292.474 14.1371 292.041 14.4516 291.531 14.4516Z" fill="#CCCCCC"/>
<path d="M248.772 109.862H242.896V110.517H248.772V109.862Z" fill="#E6E6E6"/>
<path d="M58.958 135.577C58.985 135.805 58.9927 136.018 58.9773 136.226H47.5346C47.4305 136.018 47.3419 135.801 47.2648 135.577C45.8658 131.542 48.1667 124.826 45.2492 114.869C43.0832 107.481 39.0403 101.702 37.1557 99.0093C34.8394 95.698 32.2148 92.642 29.1739 87.7602C28.5149 86.7042 27.8366 85.5592 27.1351 84.3097C26.9 83.8919 24.1906 79.0449 24.4373 78.894C24.5529 78.8244 25.2698 79.8031 25.5126 80.1319C27.6554 83.0409 28.9003 84.3136 30.6847 86.4063C31.7677 87.6751 33.0472 89.2418 34.8432 91.6595C39.4488 97.8527 41.7497 100.947 42.5513 103.264C42.7633 103.883 43.8925 107.233 46.02 111.388C47.1068 113.508 47.6502 114.568 47.947 114.483C48.7872 114.239 47.6541 105.462 44.0929 96.6883C43.484 95.1951 43.0292 94.2397 42.1659 92.4332C40.763 89.4855 32.9509 73.1032 27.2084 63.297C26.4876 62.063 25.7978 60.9373 25.1619 59.9509C25.0385 59.7652 24.9191 59.5834 24.8034 59.4093C24.0018 58.2101 23.2927 57.2624 22.703 56.6512C22.3908 56.3263 21.5969 55.4056 20.0051 53.5566C19.3731 52.8216 18.9106 52.2761 18.5984 51.8777C18.5522 51.8197 18.5098 51.7617 18.4751 51.7114C18.0974 51.2162 17.9895 50.9764 18.0781 50.8487C18.2053 50.6669 18.6948 50.7714 19.2305 50.9609C19.2883 50.9802 19.3499 51.0035 19.4078 51.0267C19.9897 51.2433 20.5794 51.5257 20.7759 51.6224C22.5796 52.4928 24.3409 54.0517 25.9712 55.9046C26.5763 56.5893 27.1583 57.3127 27.721 58.0554C29.5323 60.4538 31.1125 63.0649 32.3073 65.2118C33.7718 67.8577 34.6505 69.8035 34.6505 69.8035C38.7397 78.867 43.2759 89.2341 43.5148 89.1451C43.7769 89.0484 38.7474 76.1437 37.2828 69.1343C36.7934 66.7862 36.7047 65.0996 37.3484 64.7747C37.3715 64.7631 37.3946 64.7515 37.4216 64.7437C37.5218 64.7089 37.6143 64.7128 37.6644 64.7167C37.6644 64.7167 38.2618 64.6393 38.89 64.7747C39.6724 64.9449 40.5626 67.1305 41.4298 70.198C43.6844 78.1049 45.8273 91.8529 45.8273 91.8529C47.9701 105.605 51.2229 116.734 51.9937 116.61C52.4215 116.541 51.8087 113.086 52.3791 107.326C52.7799 103.288 53.2347 103.411 54.6916 96.1081C57.004 84.5224 58.1602 78.7316 58.1602 78.7006C58.1486 78.4569 58.1178 77.9656 58.191 77.455C58.2681 76.9019 58.4647 76.3216 58.931 75.9928C59.6402 75.4899 60.781 75.7066 61.2434 75.9928C61.6134 76.2249 61.8023 76.6504 61.8447 77.2616C62.099 81.1067 56.5955 92.2552 54.6916 107.326C53.7435 114.835 53.2232 118.931 54.6916 124.347C56.1446 129.716 58.6767 133.136 58.958 135.577Z" fill="#3F3D56"/>
<path d="M74.5399 38.6635C71.3782 38.0861 67.4511 40.2103 67.2172 42.5318C67.0247 44.4428 69.3648 46.1875 69.1442 46.4001C68.9381 46.5988 67.4881 44.5021 65.6756 44.466C62.9368 44.4114 59.6497 49.067 60.6653 51.8158C61.4806 54.0223 64.974 54.744 64.9048 54.9104C64.8395 55.0674 62.1779 53.355 59.5091 53.7499C55.6879 54.3154 52.0289 59.175 52.9572 62.2602C53.9946 65.7076 60.7099 66.775 60.6653 66.9022C60.6182 67.0366 53.9065 63.5878 51.4156 65.7417C49.7449 67.1864 49.9845 70.5541 51.0302 72.7047C53.2128 77.1933 60.0217 78.784 63.3632 76.573C65.9613 74.8538 64.2092 72.3276 66.8318 66.9022C70.0525 60.2396 75.6537 57.9282 75.6961 52.9763C75.7 52.5259 75.7124 51.076 74.9253 50.6553C73.6683 49.9833 71.2422 52.4015 71.0713 52.2026C70.8863 51.9874 74.1338 49.6326 76.0815 45.6265C76.6942 44.3664 78.0879 41.4996 76.8523 39.824C76.2233 38.9709 75.1725 38.779 74.5399 38.6635Z" fill="#041F30"/>
<path d="M56.8113 31.3138C53.6495 30.7364 49.7225 32.8606 49.4886 35.1821C49.296 37.093 51.6362 38.8378 51.4156 39.0504C51.2095 39.2491 49.7595 37.1524 47.947 37.1162C45.2082 37.0616 41.9211 41.7173 42.9367 44.466C43.752 46.6725 47.2454 47.3943 47.1762 47.5607C47.1109 47.7177 44.4493 46.0052 41.7805 46.4002C37.9593 46.9657 34.3003 51.8253 35.2286 54.9105C36.266 58.3578 42.9813 59.4253 42.9367 59.5525C42.8896 59.6869 36.1779 56.238 33.687 58.392C32.0163 59.8367 32.2559 63.2044 33.3016 65.355C35.4842 69.8436 42.2931 71.4343 45.6346 69.2233C48.2327 67.5041 46.4806 64.9779 49.1032 59.5525C52.3238 52.8899 57.9251 50.5785 57.9675 45.6265C57.9714 45.1762 57.9838 43.7263 57.1967 43.3055C55.9397 42.6336 53.5136 45.0518 53.3427 44.8529C53.1577 44.6377 56.4052 42.2829 58.3529 38.2767C58.9655 37.0166 60.3593 34.1498 59.1237 32.4742C58.4947 31.6212 57.4439 31.4293 56.8113 31.3138Z" fill="#041F30"/>
<path d="M35.3435 22.7245C38.3404 23.8891 40.5844 27.7589 39.5762 29.8613C38.7463 31.592 35.8428 31.8536 35.9203 32.1505C35.9927 32.4279 38.3202 31.3997 39.8848 32.3188C42.2489 33.7077 42.6303 39.401 40.3341 41.213C38.4909 42.6675 35.1361 41.4521 35.1085 41.6303C35.0825 41.7984 38.2434 41.7329 40.314 43.4685C43.2786 45.9534 43.8711 52.0156 41.4743 54.1603C38.7962 56.5567 32.5137 53.9475 32.4856 54.0794C32.4558 54.2187 39.9741 54.7949 40.9779 57.9374C41.6512 60.0451 39.6948 62.7917 37.6842 64.0777C33.4876 66.762 26.8532 64.5501 25.1536 60.9131C23.8322 58.0853 26.6407 56.8491 27.2265 50.8475C27.9459 43.4775 24.3714 38.5706 26.9114 34.3251C27.1424 33.939 27.8861 32.696 28.7763 32.7496C30.1979 32.8354 31.0089 36.1692 31.2582 36.0892C31.5279 36.0026 29.9833 32.2923 30.4064 27.8549C30.5394 26.4591 30.8422 23.2837 32.7676 22.5023C33.7479 22.1044 34.7439 22.4914 35.3435 22.7245Z" fill="#041F30"/>
<path d="M1.30962 24.8285C-0.579924 27.4376 -0.375995 31.9105 1.60665 33.1288C3.23871 34.1317 5.81991 32.772 5.91512 33.0636C6.0041 33.3362 3.49295 33.7383 2.67446 35.3619C1.43769 37.8152 4.19169 42.8071 7.09982 43.0806C9.43428 43.3002 11.5972 40.4538 11.7166 40.5886C11.8292 40.7157 9.1376 42.3802 8.33477 44.9651C7.18528 48.6663 9.96105 54.0831 13.1334 54.5814C16.6781 55.1383 20.5487 49.5279 20.6436 49.6234C20.7438 49.7243 14.7369 54.2986 15.5903 57.4856C16.1627 59.6231 19.2899 60.8669 21.6741 60.8538C26.6503 60.8265 31.0312 55.3584 30.4954 51.3775C30.0788 48.2821 27.0511 48.7712 23.3178 44.0464C18.7333 38.2442 19.0874 32.176 14.6602 29.9901C14.2576 29.7913 12.9614 29.1512 12.2423 29.6806C11.0939 30.5261 12.2127 33.7689 11.96 33.8373C11.6866 33.9112 10.981 29.9529 8.22914 26.454C7.36359 25.3535 5.39439 22.8497 3.3543 23.2405C2.31564 23.4394 1.68769 24.3065 1.30962 24.8285Z" fill="#041F30"/>
<path d="M4.00745 53.4542C2.11791 56.0633 2.32184 60.5361 4.30448 61.7544C5.93654 62.7573 8.51774 61.3976 8.61295 61.6892C8.70193 61.9618 6.19078 62.3639 5.37229 63.9875C4.13552 66.4408 6.88952 71.4327 9.79766 71.7063C12.1321 71.9258 14.295 69.0794 14.4144 69.2142C14.527 69.3413 11.8354 71.0058 11.0326 73.5908C9.88311 77.2919 12.6589 82.7087 15.8312 83.2071C19.3759 83.7639 23.2466 78.1535 23.3414 78.249C23.4416 78.3499 17.4347 82.9242 18.2881 86.1112C18.8605 88.2487 21.9878 89.4925 24.3719 89.4794C29.3481 89.4522 33.7291 83.984 33.1933 80.0031C32.7767 76.9077 29.7489 77.3968 26.0157 72.672C21.4311 66.8698 21.7852 60.8016 17.3581 58.6157C16.9555 58.4169 15.6592 57.7768 14.9401 58.3062C13.7917 59.1517 14.9105 62.3945 14.6578 62.4629C14.3844 62.5368 13.6788 58.5785 10.927 55.0796C10.0614 53.9791 8.09222 51.4753 6.05213 51.8661C5.01347 52.065 4.38552 52.9321 4.00745 53.4542Z" fill="#041F30"/>
<path d="M149.143 135.689C149.17 135.917 149.177 136.13 149.162 136.339H137.719C137.615 136.13 137.527 135.913 137.45 135.689C136.051 131.654 138.351 124.939 135.434 114.982C133.268 107.593 129.225 101.814 127.34 99.1215C125.024 95.8102 122.399 92.7542 119.359 87.8724C118.7 86.8164 118.021 85.6713 117.32 84.4219C117.085 84.0041 114.375 79.1571 114.622 79.0062C114.738 78.9366 115.454 79.9153 115.697 80.2441C117.84 83.1531 119.085 84.4257 120.869 86.5185C121.952 87.7873 123.232 89.354 125.028 91.7717C129.634 97.9649 131.934 101.06 132.736 103.377C132.948 103.996 134.077 107.346 136.205 111.5C137.292 113.62 137.835 114.68 138.132 114.595C138.972 114.351 137.839 105.574 134.278 96.8005C133.669 95.3073 133.214 94.3518 132.351 92.5453C130.948 89.5977 123.136 73.2153 117.393 63.4092C116.672 62.1752 115.983 61.0495 115.347 60.0631C115.223 59.8774 115.104 59.6956 114.988 59.5215C114.186 58.3223 113.477 57.3746 112.888 56.7634C112.576 56.4384 111.782 55.5178 110.19 53.6687C109.558 52.9338 109.095 52.3883 108.783 51.9899C108.737 51.9319 108.694 51.8738 108.66 51.8235C108.282 51.3284 108.174 51.0886 108.263 50.9609C108.39 50.7791 108.879 50.8835 109.415 51.0731C109.473 51.0924 109.535 51.1156 109.592 51.1388C110.174 51.3555 110.764 51.6379 110.961 51.7346C112.764 52.605 114.526 54.1639 116.156 56.0168C116.761 56.7015 117.343 57.4249 117.906 58.1676C119.717 60.5659 121.297 63.1771 122.492 65.324C123.957 67.9699 124.835 69.9157 124.835 69.9157C128.924 78.9792 133.461 89.3462 133.7 89.2573C133.962 89.1606 128.932 76.2559 127.468 69.2465C126.978 66.8984 126.889 65.2118 127.533 64.8869C127.556 64.8753 127.579 64.8637 127.606 64.8559C127.707 64.8211 127.799 64.825 127.849 64.8288C127.849 64.8288 128.446 64.7515 129.075 64.8869C129.857 65.0571 130.747 67.2427 131.615 70.3102C133.869 78.2171 136.012 91.9651 136.012 91.9651C138.155 105.717 141.408 116.846 142.178 116.722C142.606 116.653 141.993 113.198 142.564 107.438C142.965 103.4 143.419 103.524 144.876 96.2202C147.189 84.6346 148.345 78.8437 148.345 78.8128C148.333 78.5691 148.303 78.0778 148.376 77.5672C148.453 77.014 148.649 76.4338 149.116 76.105C149.825 75.6021 150.966 75.8187 151.428 76.105C151.798 76.3371 151.987 76.7626 152.029 77.3738C152.284 81.2189 146.78 92.3674 144.876 107.438C143.928 114.947 143.408 119.043 144.876 124.459C146.329 129.828 148.861 133.248 149.143 135.689Z" fill="#3F3D56"/>
<path d="M164.725 38.7757C161.563 38.1983 157.636 40.3225 157.402 42.644C157.209 44.555 159.549 46.2997 159.329 46.5123C159.123 46.711 157.673 44.6143 155.86 44.5781C153.122 44.5236 149.834 49.1792 150.85 51.928C151.665 54.1345 155.159 54.8562 155.09 55.0226C155.024 55.1796 152.363 53.4671 149.694 53.8621C145.873 54.4276 142.214 59.2872 143.142 62.3724C144.179 65.8198 150.895 66.8872 150.85 67.0144C150.803 67.1488 144.091 63.7 141.6 65.8539C139.93 67.2986 140.169 70.6663 141.215 72.8169C143.398 77.3055 150.206 78.8962 153.548 76.6852C156.146 74.966 154.394 72.4398 157.017 67.0144C160.237 60.3518 165.838 58.0404 165.881 53.0884C165.885 52.6381 165.897 51.1882 165.11 50.7675C163.853 50.0955 161.427 52.5137 161.256 52.3148C161.071 52.0996 164.319 49.7448 166.266 45.7386C166.879 44.4786 168.273 41.6117 167.037 39.9362C166.408 39.0831 165.357 38.8912 164.725 38.7757Z" fill="#041F30"/>
<path d="M146.996 31.4259C143.834 30.8485 139.907 32.9728 139.673 35.2943C139.481 37.2052 141.821 38.95 141.6 39.1626C141.394 39.3613 139.944 37.2645 138.132 37.2284C135.393 37.1738 132.106 41.8295 133.121 44.5782C133.937 46.7847 137.43 47.5064 137.361 47.6729C137.296 47.8298 134.634 46.1174 131.965 46.5124C128.144 47.0779 124.485 51.9375 125.413 55.0227C126.451 58.47 133.166 59.5375 133.121 59.6647C133.074 59.7991 126.363 56.3502 123.872 58.5042C122.201 59.9489 122.441 63.3166 123.486 65.4671C125.669 69.9558 132.478 71.5465 135.819 69.3355C138.417 67.6163 136.665 65.0901 139.288 59.6647C142.509 53.0021 148.11 50.6907 148.152 45.7387C148.156 45.2884 148.169 43.8385 147.381 43.4177C146.124 42.7458 143.698 45.1639 143.527 44.9651C143.342 44.7499 146.59 42.3951 148.538 38.3889C149.15 37.1288 150.544 34.262 149.308 32.5864C148.679 31.7333 147.629 31.5415 146.996 31.4259Z" fill="#041F30"/>
<path d="M125.528 22.8367C128.525 24.0013 130.769 27.8711 129.761 29.9735C128.931 31.7042 126.028 31.9658 126.105 32.2627C126.177 32.5401 128.505 31.5119 130.069 32.431C132.434 33.8199 132.815 39.5132 130.519 41.3251C128.676 42.7797 125.321 41.5643 125.293 41.7425C125.267 41.9106 128.428 41.8451 130.499 43.5806C133.463 46.0656 134.056 52.1278 131.659 54.2724C128.981 56.6688 122.698 54.0597 122.67 54.1916C122.641 54.3309 130.159 54.9071 131.163 58.0496C131.836 60.1573 129.88 62.9038 127.869 64.1899C123.672 66.8742 117.038 64.6623 115.338 61.0253C114.017 58.1974 116.825 56.9612 117.411 50.9597C118.131 43.5896 114.556 38.6828 117.096 34.4373C117.327 34.0512 118.071 32.8081 118.961 32.8618C120.383 32.9475 121.194 36.2814 121.443 36.2013C121.713 36.1148 120.168 32.4045 120.591 27.967C120.724 26.5713 121.027 23.3959 122.952 22.6144C123.933 22.2166 124.929 22.6036 125.528 22.8367Z" fill="#041F30"/>
<path d="M91.4943 24.9407C89.6048 27.5498 89.8087 32.0227 91.7914 33.241C93.4234 34.2439 96.0046 32.8842 96.0998 33.1758C96.1888 33.4484 93.6777 33.8505 92.8592 35.4741C91.6224 37.9273 94.3764 42.9193 97.2845 43.1928C99.619 43.4124 101.782 40.566 101.901 40.7008C102.014 40.8278 99.3223 42.4924 98.5195 45.0773C97.37 48.7785 100.146 54.1952 103.318 54.6936C106.863 55.2505 110.733 49.6401 110.828 49.7356C110.929 49.8365 104.922 54.4108 105.775 57.5977C106.347 59.7353 109.475 60.9791 111.859 60.966C116.835 60.9387 121.216 55.4706 120.68 51.4897C120.264 48.3943 117.236 48.8833 113.503 44.1586C108.918 38.3564 109.272 32.2882 104.845 30.1022C104.442 29.9035 103.146 29.2634 102.427 29.7928C101.279 30.6382 102.397 33.8811 102.145 33.9494C101.871 34.0234 101.166 30.0651 98.4139 26.5662C97.5483 25.4657 95.5791 22.9619 93.539 23.3526C92.5004 23.5516 91.8724 24.4187 91.4943 24.9407Z" fill="#041F30"/>
<path d="M94.1922 53.5663C92.3026 56.1754 92.5066 60.6483 94.4892 61.8666C96.1213 62.8695 98.7025 61.5098 98.7977 61.8014C98.8866 62.074 96.3755 62.4761 95.557 64.0997C94.3202 66.553 97.0742 71.5449 99.9824 71.8184C102.317 72.038 104.48 69.1916 104.599 69.3264C104.712 69.4535 102.02 71.118 101.217 73.7029C100.068 77.4041 102.844 82.8209 106.016 83.3192C109.561 83.8761 113.431 78.2657 113.526 78.3612C113.626 78.4621 107.619 83.0364 108.473 86.2233C109.045 88.3609 112.172 89.6047 114.557 89.5916C119.533 89.5643 123.914 84.0962 123.378 80.1153C122.961 77.0199 119.934 77.509 116.2 72.7842C111.616 66.982 111.97 60.9138 107.543 58.7278C107.14 58.5291 105.844 57.889 105.125 58.4184C103.976 59.2638 105.095 62.5067 104.843 62.5751C104.569 62.649 103.864 58.6907 101.112 55.1918C100.246 54.0913 98.2769 51.5875 96.2368 51.9783C95.1982 52.1772 94.5702 53.0443 94.1922 53.5663Z" fill="#041F30"/>
<path d="M314.042 135.689C314.015 135.917 314.007 136.13 314.023 136.339H325.465C325.569 136.13 325.658 135.913 325.735 135.689C327.134 131.654 324.833 124.939 327.751 114.982C329.917 107.593 333.96 101.814 335.844 99.1215C338.161 95.8102 340.785 92.7542 343.826 87.8724C344.485 86.8164 345.163 85.6713 345.865 84.4219C346.1 84.0041 348.809 79.1571 348.563 79.0062C348.447 78.9366 347.73 79.9153 347.487 80.2441C345.345 83.1531 344.1 84.4257 342.315 86.5185C341.232 87.7873 339.953 89.354 338.157 91.7717C333.551 97.9649 331.25 101.06 330.449 103.377C330.237 103.996 329.107 107.346 326.98 111.5C325.893 113.62 325.35 114.68 325.053 114.595C324.213 114.351 325.346 105.574 328.907 96.8005C329.516 95.3073 329.971 94.3518 330.834 92.5453C332.237 89.5977 340.049 73.2153 345.792 63.4092C346.512 62.1752 347.202 61.0495 347.838 60.0631C347.961 59.8774 348.081 59.6956 348.197 59.5215C348.998 58.3223 349.707 57.3746 350.297 56.7634C350.609 56.4384 351.403 55.5178 352.995 53.6687C353.627 52.9338 354.089 52.3883 354.402 51.9899C354.448 51.9319 354.49 51.8738 354.525 51.8235C354.903 51.3284 355.011 51.0886 354.922 50.9609C354.795 50.7791 354.305 50.8835 353.77 51.0731C353.712 51.0924 353.65 51.1156 353.592 51.1388C353.01 51.3555 352.421 51.6379 352.224 51.7346C350.42 52.605 348.659 54.1639 347.029 56.0168C346.424 56.7015 345.842 57.4249 345.279 58.1676C343.468 60.5659 341.887 63.1771 340.693 65.324C339.228 67.9699 338.349 69.9157 338.349 69.9157C334.26 78.9792 329.724 89.3462 329.485 89.2573C329.223 89.1606 334.253 76.2559 335.717 69.2465C336.207 66.8984 336.295 65.2118 335.652 64.8869C335.629 64.8753 335.605 64.8637 335.578 64.8559C335.478 64.8211 335.386 64.825 335.336 64.8288C335.336 64.8288 334.738 64.7515 334.11 64.8869C333.328 65.0571 332.437 67.2427 331.57 70.3102C329.316 78.2171 327.173 91.9651 327.173 91.9651C325.03 105.717 321.777 116.846 321.006 116.722C320.578 116.653 321.191 113.198 320.621 107.438C320.22 103.4 319.765 103.524 318.308 96.2202C315.996 84.6346 314.84 78.8437 314.84 78.8128C314.851 78.5691 314.882 78.0778 314.809 77.5672C314.732 77.014 314.535 76.4338 314.069 76.105C313.36 75.6021 312.219 75.8187 311.757 76.105C311.387 76.3371 311.198 76.7626 311.155 77.3738C310.901 81.2189 316.405 92.3674 318.308 107.438C319.257 114.947 319.777 119.043 318.308 124.459C316.855 129.828 314.323 133.248 314.042 135.689Z" fill="#3F3D56"/>
<path d="M298.46 38.7757C301.622 38.1983 305.549 40.3225 305.783 42.644C305.975 44.555 303.635 46.2997 303.856 46.5123C304.062 46.711 305.512 44.6143 307.324 44.5781C310.063 44.5236 313.35 49.1792 312.335 51.928C311.519 54.1345 308.026 54.8562 308.095 55.0226C308.16 55.1796 310.822 53.4671 313.491 53.8621C317.312 54.4276 320.971 59.2872 320.043 62.3724C319.005 65.8198 312.29 66.8872 312.335 67.0144C312.382 67.1488 319.093 63.7 321.584 65.8539C323.255 67.2986 323.016 70.6663 321.97 72.8169C319.787 77.3055 312.978 78.8962 309.637 76.6852C307.039 74.966 308.791 72.4398 306.168 67.0144C302.948 60.3518 297.346 58.0404 297.304 53.0884C297.3 52.6381 297.288 51.1882 298.075 50.7675C299.332 50.0955 301.758 52.5137 301.929 52.3148C302.114 52.0996 298.866 49.7448 296.918 45.7386C296.306 44.4786 294.912 41.6117 296.148 39.9362C296.777 39.0831 297.827 38.8912 298.46 38.7757Z" fill="#041F30"/>
<path d="M316.189 31.4259C319.35 30.8485 323.278 32.9728 323.511 35.2943C323.704 37.2052 321.364 38.95 321.584 39.1626C321.791 39.3613 323.241 37.2645 325.053 37.2284C327.792 37.1738 331.079 41.8295 330.063 44.5782C329.248 46.7847 325.755 47.5064 325.824 47.6729C325.889 47.8298 328.551 46.1174 331.22 46.5124C335.041 47.0779 338.7 51.9375 337.771 55.0227C336.734 58.47 330.019 59.5375 330.063 59.6647C330.11 59.7991 336.822 56.3502 339.313 58.5042C340.984 59.9489 340.744 63.3166 339.698 65.4671C337.516 69.9558 330.707 71.5465 327.365 69.3355C324.767 67.6163 326.519 65.0901 323.897 59.6647C320.676 53.0021 315.075 50.6907 315.033 45.7387C315.029 45.2884 315.016 43.8385 315.803 43.4177C317.06 42.7458 319.486 45.1639 319.657 44.9651C319.842 44.7499 316.595 42.3951 314.647 38.3889C314.034 37.1288 312.641 34.262 313.876 32.5864C314.505 31.7333 315.556 31.5415 316.189 31.4259Z" fill="#041F30"/>
<path d="M337.656 22.8367C334.66 24.0013 332.416 27.8711 333.424 29.9735C334.254 31.7042 337.157 31.9658 337.08 32.2627C337.007 32.5401 334.68 31.5119 333.115 32.431C330.751 33.8199 330.37 39.5132 332.666 41.3251C334.509 42.7797 337.864 41.5643 337.891 41.7425C337.917 41.9106 334.757 41.8451 332.686 43.5806C329.721 46.0656 329.129 52.1278 331.526 54.2724C334.204 56.6688 340.486 54.0597 340.514 54.1916C340.544 54.3309 333.026 54.9071 332.022 58.0496C331.349 60.1573 333.305 62.9038 335.316 64.1899C339.512 66.8742 346.147 64.6623 347.846 61.0253C349.168 58.1974 346.359 56.9612 345.773 50.9597C345.054 43.5896 348.629 38.6828 346.089 34.4373C345.858 34.0512 345.114 32.8081 344.224 32.8618C342.802 32.9475 341.991 36.2814 341.742 36.2013C341.472 36.1148 343.017 32.4045 342.594 27.967C342.461 26.5713 342.158 23.3959 340.232 22.6144C339.252 22.2166 338.256 22.6036 337.656 22.8367Z" fill="#041F30"/>
<path d="M371.69 24.9407C373.58 27.5498 373.376 32.0227 371.393 33.241C369.761 34.2439 367.18 32.8842 367.085 33.1758C366.996 33.4484 369.507 33.8505 370.326 35.4741C371.562 37.9273 368.808 42.9193 365.9 43.1928C363.566 43.4124 361.403 40.566 361.283 40.7008C361.171 40.8278 363.862 42.4924 364.665 45.0773C365.815 48.7785 363.039 54.1952 359.867 54.6936C356.322 55.2505 352.451 49.6401 352.356 49.7356C352.256 49.8365 358.263 54.4108 357.41 57.5977C356.837 59.7353 353.71 60.9791 351.326 60.966C346.35 60.9387 341.969 55.4706 342.505 51.4897C342.921 48.3943 345.949 48.8833 349.682 44.1586C354.267 38.3564 353.913 32.2882 358.34 30.1022C358.742 29.9035 360.039 29.2634 360.758 29.7928C361.906 30.6382 360.787 33.8811 361.04 33.9494C361.313 34.0234 362.019 30.0651 364.771 26.5662C365.636 25.4657 367.606 22.9619 369.646 23.3526C370.684 23.5516 371.312 24.4187 371.69 24.9407Z" fill="#041F30"/>
<path d="M368.993 53.5663C370.882 56.1754 370.678 60.6483 368.696 61.8666C367.063 62.8695 364.482 61.5098 364.387 61.8014C364.298 62.074 366.809 62.4761 367.628 64.0997C368.864 66.553 366.11 71.5449 363.202 71.8184C360.868 72.038 358.705 69.1916 358.586 69.3264C358.473 69.4535 361.165 71.118 361.967 73.7029C363.117 77.4041 360.341 82.8209 357.169 83.3192C353.624 83.8761 349.753 78.2657 349.659 78.3612C349.558 78.4621 355.565 83.0364 354.712 86.2233C354.139 88.3609 351.012 89.6047 348.628 89.5916C343.652 89.5643 339.271 84.0962 339.807 80.1153C340.223 77.0199 343.251 77.509 346.984 72.7842C351.569 66.982 351.215 60.9138 355.642 58.7278C356.045 58.5291 357.341 57.889 358.06 58.4184C359.208 59.2638 358.09 62.5067 358.342 62.5751C358.616 62.649 359.321 58.6907 362.073 55.1918C362.939 54.0913 364.908 51.5875 366.948 51.9783C367.987 52.1772 368.614 53.0443 368.993 53.5663Z" fill="#041F30"/>
<path d="M326.575 136.675C326.575 136.857 326.433 137 326.252 137H28.2566V136.35H326.252C326.433 136.35 326.575 136.497 326.575 136.675Z" fill="#E6E6E6"/>
</g>
<defs>
<clipPath id="clip0_2_243">
<rect width="373" height="137" fill="white"/>
</clipPath>
</defs>
</svg>
