<svg width="282" height="259" viewBox="0 0 282 259" fill="none" xmlns="http://www.w3.org/2000/svg">
<g clip-path="url(#clip0_2_355)">
<path d="M162.4 88.6087C162.4 88.6087 162.285 93.6451 153.131 101.002L151.058 104.741L170.402 115.964C172.144 116.045 174.102 116.506 176.052 117.378C181.109 119.637 184.196 123.762 182.943 126.598C181.691 129.434 176.576 129.903 171.516 127.644C170.409 127.152 169.396 126.567 168.505 125.928C161.876 124.258 132.38 116.274 135.645 107.185C139.318 96.9574 142.914 84.998 142.914 84.998L162.404 88.6087H162.4Z" fill="#FFB6B6"/>
<path d="M146.348 70.1563C147.508 66.3132 150.298 63.241 154.002 61.7262C157.706 60.2153 161.834 60.4633 165.337 62.4003C168.733 64.2831 171.122 67.5529 171.893 71.3689C172.664 75.1888 171.731 79.1326 169.338 82.197L161.267 92.5177L140.906 88.1709L146.348 70.1563Z" fill="#041F30"/>
<path d="M188.362 108.351C182.485 106.24 176.326 105.202 169.905 105.14C169.234 105.023 168.594 105.477 168.478 106.151L167.781 110.195C167.665 110.869 168.116 111.512 168.787 111.629C171.292 113.124 173.84 114.031 176.422 114.538L173.747 130.073C170.741 129.484 167.981 129.345 165.634 129.953C164.963 129.837 164.324 130.29 164.208 130.964L163.51 135.009C163.395 135.683 163.846 136.326 164.516 136.442C169.75 138.337 176.121 139.216 182.97 139.654C183.641 139.77 184.281 139.317 184.396 138.643L185.094 134.598C185.21 133.924 184.759 133.281 184.088 133.165C181.444 132.2 178.85 131.325 176.38 130.678L179.093 114.933C181.787 115.197 184.508 115.1 187.245 114.84C187.915 114.957 188.555 114.503 188.671 113.829L189.368 109.785C189.484 109.11 189.033 108.467 188.362 108.351Z" fill="#2F2E41"/>
<path d="M106.195 242.035L88.1571 223.494L101.192 204.774L104.726 205.007C106.603 205.13 108.226 203.705 108.357 201.818L109.02 192.241C109.159 190.258 107.594 188.569 105.613 188.569H72.482C72.7518 187.922 72.8212 187.197 72.6632 186.496L52.8989 98.5691C52.5173 96.8723 50.9332 95.7294 49.2104 95.9115L41.4018 96.7367C39.3706 96.9536 37.9793 98.9023 38.4264 100.905L59.6013 195.472C60.0792 197.603 62.2684 198.599 64.0837 197.952C63.9835 198.235 63.9257 198.517 63.9026 198.804L61.0929 199.029L13.3008 252.492H27.9468L64.9471 211.039L100.406 252.492H111.968L112.354 245.518L106.187 242.031H106.195V242.035ZM71.5262 202.822L90.9244 204.1L83.3277 218.527L72.2816 207.172L71.53 202.822H71.5262Z" fill="#F2F2F2"/>
<path d="M0 252.608C0 252.863 0.204272 253.069 0.458649 253.069H281.541C281.796 253.069 282 252.863 282 252.608C282 252.352 281.796 252.147 281.541 252.147H0.458649C0.204272 252.147 0 252.352 0 252.608Z" fill="#3F3D56"/>
<path d="M167.947 40.3063C176.674 40.3063 183.749 33.1949 183.749 24.4224C183.749 15.65 176.674 8.53857 167.947 8.53857C159.219 8.53857 152.144 15.65 152.144 24.4224C152.144 33.1949 159.219 40.3063 167.947 40.3063Z" fill="#FFB6B6"/>
<path d="M137.799 226.926V242.81L125.851 243.198L126.348 226.926H137.799Z" fill="#FFB6B6"/>
<path d="M134.296 240.784L134.253 240.85L134.176 240.865C133.887 240.931 127.092 242.411 125.111 239.626C124.953 239.405 124.818 239.316 124.702 239.35C123.407 239.769 122.378 249.694 122.378 253.46C122.378 255.68 127.304 256.253 133.544 256.974C136.458 257.311 139.761 257.694 143.033 258.303C150.148 259.628 156.01 256.35 158.874 254.277C159.379 253.909 159.691 253.34 159.726 252.716C159.76 252.089 159.514 251.484 159.047 251.062C155.274 247.645 142.79 236.441 140.636 235.825C140.482 235.782 140.324 235.759 140.162 235.759C137.66 235.759 134.33 240.73 134.296 240.78V240.784Z" fill="#2F2E41"/>
<path d="M160.153 226.926V242.81L148.205 243.198L148.703 226.926H160.153Z" fill="#FFB6B6"/>
<path d="M164.971 113.221L171.331 118.064L172.487 172.689L161.695 232.35L147.627 232.931L147.242 175.982L129.127 124.068L132.789 111.865L164.971 113.221Z" fill="#2F2E41"/>
<path d="M135.294 122.519L129.127 124.068L124.695 232.35L140.69 230.994L151.289 154.48L135.294 122.519Z" fill="#2F2E41"/>
<path d="M165.322 258.69C162.061 258.082 158.766 257.702 155.86 257.365C149.181 256.59 144.355 256.029 144.355 253.464C144.355 251.519 145.103 239.579 146.945 238.986C147.149 238.92 147.458 238.944 147.785 239.405C149.512 241.834 155.629 240.66 156.376 240.505C156.839 239.823 160.423 234.686 163.098 235.457C165.16 236.05 175.374 245.096 181.282 250.434C181.937 251.027 182.28 251.876 182.223 252.759C182.165 253.634 181.722 254.425 181.001 254.921C178.623 256.563 174.167 259 168.683 259C167.6 259 166.474 258.903 165.322 258.69Z" fill="#2F2E41"/>
<path d="M150.661 44.2191L154.114 32.5619L169.141 36.3895L168.532 49.0424L150.661 44.2191Z" fill="#FFB6B6"/>
<path d="M132.754 112.055L132.584 112.024L135.232 70.0362C135.779 61.3621 138.905 53.1761 144.27 46.3654L150.853 38.0089L171.809 49.7126L171.889 49.7552L176.53 74.6387L176.538 74.6851L171.516 118.122L171.465 118.288L132.754 112.059V112.055Z" fill="#041F30"/>
<path d="M154.249 32.9223L155.602 33.2361C155.602 33.2361 157.933 24.0738 159.467 25.976C161.005 27.8782 164.929 28.4593 164.929 28.4593L166.278 25.4646C166.278 25.4646 173.585 25.1779 174.796 21.8229C174.796 21.8229 190.316 22.5668 185.969 14.2762C181.625 5.98555 180.23 7.75602 180.23 7.75602C180.23 7.75602 175.986 5.22235 175.034 2.68481C174.082 0.147263 164.721 -2.06486 159.201 3.30079C138.982 22.9697 154.245 32.9184 154.245 32.9184L154.249 32.9223Z" fill="#3F3D56"/>
<path d="M190.929 92.1443L188.275 92.6301L191.313 109.4L193.967 108.915L190.929 92.1443Z" fill="#3F3D56"/>
<path d="M183.595 111.799C187.742 108.932 194.625 108.456 202.022 108.429C202.692 108.305 203.336 108.754 203.455 109.428L204.188 113.469C204.311 114.143 203.864 114.79 203.193 114.91C196.61 116.87 190.332 118.25 184.766 118.281C184.096 118.405 183.452 117.955 183.333 117.281L182.6 113.24C182.477 112.566 182.924 111.919 183.595 111.799Z" fill="#3F3D56"/>
<path d="M179.108 87.0281C185.156 84.8664 191.295 83.708 197.535 83.6577C198.206 83.5337 198.85 83.9831 198.969 84.6572L199.701 88.6979C199.825 89.372 199.378 90.0189 198.707 90.139C193.01 92.878 187.087 94.788 180.28 93.5095C179.609 93.6335 178.966 93.1841 178.846 92.51L178.114 88.4693C177.991 87.7952 178.438 87.1482 179.108 87.0281Z" fill="#3F3D56"/>
<path d="M166.397 74.104C166.397 74.104 168.012 78.8692 161.942 88.9496L161.275 93.1763L183.279 97.0155C184.944 96.4886 186.94 96.2446 189.068 96.3879C194.591 96.756 198.9 99.5647 198.695 102.66C198.491 105.756 193.847 107.968 188.328 107.6C187.121 107.518 185.969 107.321 184.913 107.03C178.114 107.758 147.689 110.47 147.639 100.808C147.585 89.9336 146.864 77.459 146.864 77.459L166.397 74.104Z" fill="#FFB6B6"/>
<path d="M145.006 62.3384C144.779 58.3287 146.348 54.4778 149.304 51.7775C152.26 49.0773 156.222 47.8802 160.177 48.4884C164.008 49.0812 167.372 51.3243 169.403 54.6405C171.435 57.9567 171.913 61.9858 170.714 65.6934L166.675 78.1757L146.07 81.1395L145.01 62.3422L145.006 62.3384Z" fill="#041F30"/>
<path d="M60.8156 227.583L60.1113 244.615L62.8069 244.727L63.5112 227.696L60.8156 227.583Z" fill="#3F3D56"/>
<path d="M52.0586 245.231C56.7299 243.349 63.548 244.406 70.7746 246.01C71.4529 246.037 71.9848 246.618 71.9578 247.3L71.7883 251.403C71.7613 252.085 71.1831 252.619 70.5048 252.592C63.652 253.049 57.2271 253.011 51.7888 251.814C51.1105 251.786 50.5786 251.205 50.6056 250.523L50.7752 246.421C50.8022 245.739 51.3803 245.204 52.0586 245.231Z" fill="#3F3D56"/>
<path d="M53.0993 220.073C59.4703 219.298 65.7141 219.527 71.8153 220.852C72.4936 220.879 73.0255 221.46 72.9985 222.142L72.8289 226.244C72.8019 226.926 72.2238 227.461 71.5455 227.434C65.3903 228.848 59.1928 229.402 52.8295 226.655C52.1511 226.628 51.6193 226.047 51.6462 225.365L51.8158 221.262C51.8428 220.58 52.4209 220.046 53.0993 220.073Z" fill="#3F3D56"/>
</g>
<defs>
<clipPath id="clip0_2_355">
<rect width="282" height="259" fill="white"/>
</clipPath>
</defs>
</svg>
