<svg width="297" height="181" viewBox="0 0 297 181" fill="none" xmlns="http://www.w3.org/2000/svg">
<g clip-path="url(#clip0_2_7)">
<path d="M297 14.0876H0.772949V14.8619H297V14.0876Z" fill="#DEDFE0"/>
<path d="M21.701 8.00203H4.57594C2.37299 8.00203 0.579712 6.20574 0.579712 3.99908C0.579712 1.79242 2.37299 0 4.57594 0H21.7048C23.9078 0 25.7011 1.7963 25.7011 4.00295C25.7011 6.20961 23.9078 8.0059 21.7048 8.0059L21.701 8.00203Z" fill="#DEDFE0"/>
<path d="M297 46.092H0.772949V46.8663H297V46.092Z" fill="#DEDFE0"/>
<path d="M21.701 40.0064H4.57594C2.37299 40.0064 0.579712 38.2101 0.579712 36.0034C0.579712 33.7968 2.37299 32.0005 4.57594 32.0005H21.7048C23.9078 32.0005 25.7011 33.7968 25.7011 36.0034C25.7011 38.2101 23.9078 40.0064 21.7048 40.0064H21.701Z" fill="#DEDFE0"/>
<path d="M297 78.0923H0.772949V78.8666H297V78.0923Z" fill="#DEDFE0"/>
<path d="M21.701 72.0105H4.57594C2.37299 72.0105 0.579712 70.2142 0.579712 68.0076C0.579712 65.8009 2.37299 64.0046 4.57594 64.0046H21.7048C23.9078 64.0046 25.7011 65.8009 25.7011 68.0076C25.7011 70.2142 23.9078 72.0105 21.7048 72.0105H21.701Z" fill="#DEDFE0"/>
<path d="M106.669 15.2492H0.772965C0.347834 15.2492 0 14.9008 0 14.4749C0 14.0491 0.347834 13.7007 0.772965 13.7007H106.669C107.094 13.7007 107.442 14.0491 107.442 14.4749C107.442 14.9008 107.094 15.2492 106.669 15.2492Z" fill="#041F30"/>
<path d="M161.955 47.2534H0.772964C0.347834 47.2534 0 46.9049 0 46.4791C0 46.0533 0.347834 45.7048 0.772964 45.7048H161.955C162.381 45.7048 162.728 46.0533 162.728 46.4791C162.728 46.9049 162.381 47.2534 161.955 47.2534Z" fill="#041F30"/>
<path d="M53.721 79.2539H0.772965C0.347834 79.2539 0 78.9054 0 78.4796C0 78.0537 0.347834 77.7053 0.772965 77.7053H53.721C54.1462 77.7053 54.494 78.0537 54.494 78.4796C54.494 78.9054 54.1462 79.2539 53.721 79.2539Z" fill="#041F30"/>
<path d="M223.023 63.7454L216.627 65.9288L216.523 56.6725L222.347 56.6067L223.023 63.7454Z" fill="#F3A3A6"/>
<path d="M217.276 59.2274C220.811 59.2274 223.677 56.3571 223.677 52.8164C223.677 49.2758 220.811 46.4055 217.276 46.4055C213.742 46.4055 210.876 49.2758 210.876 52.8164C210.876 56.3571 213.742 59.2274 217.276 59.2274Z" fill="#F3A3A6"/>
<path d="M219.023 52.1623C217.953 52.1429 217.238 51.0667 216.809 50.0795C216.38 49.0923 215.939 47.9619 214.946 47.5632C214.13 47.238 212.724 49.5104 212.074 48.9181C211.398 48.2987 212.016 45.07 212.72 44.4855C213.423 43.9009 214.393 43.777 215.305 43.7228C217.535 43.595 219.777 43.7499 221.968 44.1835C223.321 44.4506 224.72 44.861 225.706 45.8288C226.954 47.056 227.29 48.9259 227.398 50.6757C227.51 52.4643 227.425 54.3418 226.575 55.9213C225.721 57.497 223.916 58.6739 222.165 58.2945C221.98 57.346 222.146 56.3704 222.204 55.4026C222.262 54.4386 222.177 53.3972 221.582 52.6346C220.987 51.8719 219.727 51.5816 219.05 52.2707" fill="#2F2E43"/>
<path d="M226.919 54.2953C227.553 53.8192 228.314 53.4165 229.103 53.5056C229.957 53.5985 230.684 54.2953 230.912 55.1238C231.14 55.9523 230.904 56.8698 230.386 57.555C229.868 58.2402 229.091 58.697 228.264 58.9293C227.785 59.0648 227.263 59.1229 226.803 58.9293C226.127 58.6467 225.756 57.7911 226.011 57.102" fill="#2F2E43"/>
<path d="M203.108 114.862C202.706 116.972 203.506 118.888 204.901 119.14C206.293 119.392 207.75 117.882 208.152 115.772C208.325 114.932 208.287 114.061 208.039 113.236L212.963 80.1713L206.331 78.9983L204.148 112.536C203.614 113.221 203.255 114.018 203.108 114.866V114.862Z" fill="#F3A3A6"/>
<path d="M216.511 61.6819L211.993 61.7322C208.805 62.251 207.954 63.9698 207.267 67.1288C206.211 71.9486 204.867 78.3712 205.149 78.4602C205.601 78.6073 213.33 82.1457 217.242 81.2708L216.511 61.6819Z" fill="#041F30"/>
<path d="M222.056 166.755L216.042 166.823L216.138 175.366L222.151 175.299L222.056 166.755Z" fill="#F3A3A6"/>
<path d="M210.324 180.621C209.69 180.628 209.129 180.621 208.704 180.586C207.104 180.458 205.57 179.293 204.793 178.611C204.445 178.306 204.329 177.81 204.503 177.384C204.627 177.078 204.882 176.846 205.199 176.749L209.408 175.495L216.19 170.799L216.268 170.935C216.299 170.985 216.983 172.189 217.215 173.006C217.304 173.315 217.284 173.575 217.157 173.776C217.068 173.915 216.944 173.997 216.844 174.047C216.967 174.175 217.358 174.434 218.556 174.612C220.299 174.872 220.65 173.056 220.662 172.979L220.674 172.917L220.724 172.882C221.547 172.336 222.053 172.088 222.231 172.139C222.343 172.17 222.525 172.224 223.074 177.148C223.124 177.303 223.483 178.433 223.259 179.521C223.016 180.706 217.864 180.354 216.836 180.272C216.805 180.276 212.956 180.594 210.316 180.621H210.324Z" fill="#2F2E43"/>
<path d="M239.091 159.844L234.024 163.088L238.618 170.287L243.685 167.042L239.091 159.844Z" fill="#F3A3A6"/>
<path d="M232.527 179.2C231.82 179.208 231.17 179.13 230.707 179.053C230.251 178.975 229.891 178.619 229.814 178.162C229.756 177.833 229.853 177.504 230.069 177.256L232.975 173.962L236.249 166.382L236.388 166.455C236.438 166.483 237.656 167.141 238.286 167.71C238.525 167.927 238.645 168.155 238.645 168.395C238.645 168.561 238.583 168.697 238.521 168.79C238.695 168.832 239.163 168.844 240.272 168.36C241.888 167.656 241.227 165.929 241.196 165.859L241.173 165.801L241.2 165.747C241.609 164.849 241.911 164.369 242.085 164.315C242.197 164.284 242.378 164.229 245.447 168.116C245.571 168.221 246.475 168.987 246.858 170.029C247.275 171.163 242.722 173.594 241.803 174.07C241.776 174.094 237.018 177.636 235.062 178.65C234.286 179.053 233.362 179.184 232.519 179.192L232.527 179.2Z" fill="#2F2E43"/>
<path d="M225.679 95.2541L208.843 95.4399L207.491 111.142L214.818 169.034L223.414 168.937L219.607 135.497L233.884 165.569L241.463 160.126L230.262 132.028C230.262 132.028 233.88 107.402 230.757 101.313C227.634 95.2231 225.682 95.2463 225.682 95.2463V95.2541H225.679Z" fill="#2F2E43"/>
<path d="M234.065 96.1173L207.324 96.4154L214.965 61.7012L226.614 61.5696L234.065 96.1173Z" fill="#041F30"/>
<path d="M236.674 114.491C237.122 116.593 236.365 118.525 234.977 118.807C233.59 119.09 232.102 117.615 231.654 115.513C231.46 114.676 231.48 113.805 231.708 112.973L226.05 80.0242L232.655 78.7041L235.58 112.187C236.129 112.861 236.504 113.651 236.674 114.495V114.491Z" fill="#F3A3A6"/>
<path d="M222.096 61.6199L226.614 61.5696C229.814 62.0187 230.699 63.7182 231.46 66.8617C232.62 71.6583 234.108 78.046 233.829 78.1427C233.377 78.2976 225.733 82.0063 221.802 81.2204L222.1 61.6199H222.096Z" fill="#041F30"/>
<path d="M262.893 180.621C262.893 180.83 262.723 181 262.514 181H180.147C179.938 181 179.768 180.83 179.768 180.621C179.768 180.412 179.938 180.241 180.147 180.241H262.514C262.723 180.241 262.893 180.412 262.893 180.621Z" fill="#3F3D58"/>
</g>
<defs>
<clipPath id="clip0_2_7">
<rect width="297" height="181" fill="white"/>
</clipPath>
</defs>
</svg>
