<svg width="297" height="227" viewBox="0 0 297 227" fill="none" xmlns="http://www.w3.org/2000/svg">
<g clip-path="url(#clip0_2_34)">
<path d="M172.28 226.34C172.237 226.269 171.206 224.556 170.849 220.997C170.521 217.732 170.732 212.228 173.598 204.552C179.027 190.008 172.346 178.274 172.278 178.157L172.608 177.967C173.894 180.419 174.823 183.04 175.367 185.752C176.713 192.068 176.223 198.635 173.955 204.684C168.535 219.202 172.564 226.075 172.606 226.143L172.28 226.34Z" fill="#F2F2F2"/>
<path d="M170.158 177.304C171.525 177.304 172.634 176.2 172.634 174.838C172.634 173.476 171.525 172.372 170.158 172.372C168.79 172.372 167.681 173.476 167.681 174.838C167.681 176.2 168.79 177.304 170.158 177.304Z" fill="#F2F2F2"/>
<path d="M177.967 186.408C179.334 186.408 180.443 185.304 180.443 183.943C180.443 182.581 179.334 181.477 177.967 181.477C176.599 181.477 175.49 182.581 175.49 183.943C175.49 185.304 176.599 186.408 177.967 186.408Z" fill="#F2F2F2"/>
<path d="M172.633 192.478C174.001 192.478 175.11 191.374 175.11 190.012C175.11 188.65 174.001 187.546 172.633 187.546C171.266 187.546 170.157 188.65 170.157 190.012C170.157 191.374 171.266 192.478 172.633 192.478Z" fill="#F2F2F2"/>
<path d="M179.109 197.6C180.477 197.6 181.585 196.496 181.585 195.134C181.585 193.772 180.477 192.668 179.109 192.668C177.742 192.668 176.633 193.772 176.633 195.134C176.633 196.496 177.742 197.6 179.109 197.6Z" fill="#F2F2F2"/>
<path d="M170.729 205.566C172.096 205.566 173.205 204.462 173.205 203.1C173.205 201.739 172.096 200.635 170.729 200.635C169.361 200.635 168.253 201.739 168.253 203.1C168.253 204.462 169.361 205.566 170.729 205.566Z" fill="#F2F2F2"/>
<path d="M173.776 226.43C173.776 226.43 171.3 220.36 178.728 215.808L173.776 226.43Z" fill="#F2F2F2"/>
<path d="M170.731 226.321C170.731 226.321 169.605 219.867 160.883 219.922L170.731 226.321Z" fill="#F2F2F2"/>
<path d="M42.4075 46.9484C40.4277 46.9484 38.4923 46.3637 36.8462 45.2683C35.2 44.1729 33.917 42.6159 33.1593 40.7943C32.4017 38.9727 32.2034 36.9683 32.5897 35.0345C32.9759 33.1007 33.9293 31.3243 35.3292 29.9301C36.7292 28.5359 38.5128 27.5865 40.4546 27.2018C42.3964 26.8172 44.4091 27.0146 46.2382 27.7691C48.0673 28.5236 49.6307 29.8014 50.7307 31.4408C51.8306 33.0802 52.4177 35.0076 52.4177 36.9793C52.4177 39.6233 51.363 42.159 49.4858 44.0285C47.6085 45.8981 45.0624 46.9484 42.4075 46.9484ZM42.4075 27.3543C40.4959 27.3543 38.6273 27.9188 37.0379 28.9765C35.4485 30.0341 34.2097 31.5374 33.4781 33.2962C32.7466 35.055 32.5552 36.9904 32.9281 38.8575C33.3011 40.7247 34.2216 42.4398 35.5733 43.7859C36.9249 45.132 38.6471 46.0488 40.5219 46.4202C42.3968 46.7916 44.3401 46.601 46.1062 45.8724C47.8722 45.1439 49.3817 43.9102 50.4437 42.3273C51.5057 40.7444 52.0726 38.8834 52.0726 36.9797C52.0726 35.7157 51.8226 34.464 51.3369 33.2962C50.8512 32.1284 50.1392 31.0673 49.2418 30.1735C48.3443 29.2797 47.2788 28.5707 46.1062 28.087C44.9336 27.6033 43.6767 27.3543 42.4075 27.3543Z" fill="#3F3D56"/>
<path d="M143.88 46.9484C141.9 46.9484 139.965 46.3637 138.319 45.2683C136.673 44.1729 135.39 42.6159 134.632 40.7943C133.874 38.9727 133.676 36.9683 134.062 35.0345C134.449 33.1007 135.402 31.3243 136.802 29.9301C138.202 28.5359 139.985 27.5865 141.927 27.2018C143.869 26.8172 145.882 27.0146 147.711 27.7691C149.54 28.5236 151.103 29.8014 152.203 31.4408C153.303 33.0802 153.89 35.0076 153.89 36.9793C153.89 39.6233 152.836 42.159 150.958 44.0285C149.081 45.8981 146.535 46.9484 143.88 46.9484ZM143.88 27.3543C141.969 27.3543 140.1 27.9188 138.511 28.9765C136.921 30.0341 135.682 31.5374 134.951 33.2962C134.219 35.055 134.028 36.9904 134.401 38.8575C134.774 40.7247 135.694 42.4398 137.046 43.7859C138.398 45.132 140.12 46.0488 141.995 46.4202C143.869 46.7916 145.813 46.601 147.579 45.8724C149.345 45.1439 150.854 43.9102 151.916 42.3273C152.978 40.7444 153.545 38.8834 153.545 36.9797C153.545 35.7157 153.295 34.464 152.81 33.2962C152.324 32.1284 151.612 31.0673 150.714 30.1735C149.817 29.2797 148.751 28.5707 147.579 28.087C146.406 27.6033 145.149 27.3543 143.88 27.3543Z" fill="#3F3D56"/>
<path d="M180.53 23.8107H6.15033C2.75564 23.8165 0.0046476 27.2011 0 31.3783V114.174C0.0046476 118.351 2.75564 121.734 6.15033 121.741H180.53C183.925 121.736 186.676 118.351 186.681 114.174V31.3779C186.676 27.2011 183.925 23.818 180.53 23.8103V23.8107ZM185.958 114.174C185.954 117.86 183.527 120.847 180.531 120.851H6.15033C3.15456 120.846 0.728123 117.86 0.723476 114.174V31.3779C0.726961 27.6921 3.15456 24.7052 6.15033 24.7009H180.53C183.526 24.7055 185.953 27.6921 185.957 31.3779L185.958 114.174Z" fill="#3F3D56"/>
<path d="M43.7649 57.1113H12.7809V78.7111H43.7649V57.1113Z" fill="#F2F2F2"/>
<path d="M87.1426 57.1113H56.1586V78.7111H87.1426V57.1113Z" fill="#F2F2F2"/>
<path d="M130.52 57.1113H99.5361V78.7111H130.52V57.1113Z" fill="#F2F2F2"/>
<path d="M173.898 57.1113H142.914V78.7111H173.898V57.1113Z" fill="#F2F2F2"/>
<path d="M43.7649 88.7397H12.7809V110.34H43.7649V88.7397Z" fill="#F2F2F2"/>
<path d="M87.1426 88.7397H56.1586V110.34H87.1426V88.7397Z" fill="#F2F2F2"/>
<path d="M130.52 88.7397H99.5361V110.34H130.52V88.7397Z" fill="#F2F2F2"/>
<path d="M173.898 88.7397H142.914V110.34H173.898V88.7397Z" fill="#F2F2F2"/>
<path d="M66.4797 110.214L59.1655 100.154L61.1578 98.7176L66.7566 106.418L88.1809 84.4968L89.9431 86.2055L66.4797 110.214Z" fill="#041F30"/>
<path d="M110.245 78.5855L102.931 68.5258L104.923 67.0894L110.522 74.7894L131.946 52.8687L133.708 54.5773L110.245 78.5855Z" fill="#041F30"/>
<path d="M42.5396 0H42.0101V37.0244H42.5396V0Z" fill="#2F2E41"/>
<path d="M144.4 0H143.87V37.0244H144.4V0Z" fill="#2F2E41"/>
<path d="M296.432 226.999H149.548C149.476 227.004 149.403 226.993 149.334 226.969C149.265 226.945 149.202 226.906 149.149 226.857C149.096 226.807 149.054 226.747 149.025 226.681C148.996 226.614 148.981 226.542 148.981 226.47C148.981 226.397 148.996 226.325 149.025 226.259C149.054 226.192 149.096 226.132 149.149 226.082C149.202 226.033 149.265 225.995 149.334 225.97C149.403 225.946 149.476 225.936 149.548 225.94H296.432C296.505 225.936 296.578 225.946 296.647 225.97C296.715 225.995 296.778 226.033 296.831 226.082C296.885 226.132 296.927 226.192 296.956 226.259C296.985 226.325 297 226.397 297 226.47C297 226.542 296.985 226.614 296.956 226.681C296.927 226.747 296.885 226.807 296.831 226.857C296.778 226.906 296.715 226.945 296.647 226.969C296.578 226.993 296.505 227.004 296.432 226.999Z" fill="#3F3D56"/>
<path d="M23.4893 78.5855L16.1752 68.5258L18.1674 67.0894L23.7663 74.7894L45.1905 52.8687L46.9528 54.5773L23.4893 78.5855Z" fill="#041F30"/>
<path d="M254.165 143.788C254.371 143.727 254.581 143.682 254.793 143.654L263.275 126.49L260.686 122.624L266.033 117.969L272.755 126.162L259.064 146.006C259.402 146.756 259.502 147.592 259.351 148.4C259.2 149.209 258.806 149.953 258.22 150.533C257.634 151.113 256.885 151.502 256.072 151.647C255.259 151.793 254.421 151.688 253.669 151.348C252.917 151.007 252.287 150.447 251.863 149.741C251.439 149.035 251.241 148.218 251.295 147.397C251.348 146.576 251.652 145.791 252.165 145.146C252.678 144.502 253.375 144.028 254.165 143.788Z" fill="#FFB8B8"/>
<path d="M268.644 120.343C268.528 120.465 268.396 120.568 268.25 120.652L259.573 125.662C259.173 125.893 258.697 125.956 258.25 125.838C257.804 125.719 257.423 125.429 257.191 125.031C257.166 124.989 257.144 124.946 257.123 124.903L252.902 116.023C252.722 115.649 252.683 115.223 252.793 114.824C252.902 114.424 253.152 114.077 253.497 113.845L258.876 110.201C259.212 109.974 259.617 109.87 260.021 109.908C260.426 109.947 260.804 110.125 261.091 110.411L268.609 117.925C268.93 118.245 269.112 118.676 269.119 119.127C269.125 119.579 268.954 120.015 268.643 120.343L268.644 120.343Z" fill="#CCCCCC"/>
<path d="M280.828 218.688L276.247 219.93L269.258 202.92L276.02 201.088L280.828 218.688Z" fill="#FFB8B8"/>
<path d="M272.619 219.511L281.455 217.117L282.968 222.656L268.569 226.558C268.168 225.088 268.369 223.52 269.128 222.198C269.888 220.876 271.143 219.909 272.619 219.509L272.619 219.511Z" fill="#2F2E41"/>
<path d="M241.66 222.17H236.912L234.652 203.931H241.66V222.17Z" fill="#FFB8B8"/>
<path d="M233.52 220.819H242.678V226.561H227.755C227.755 225.807 227.904 225.06 228.193 224.364C228.483 223.667 228.908 223.034 229.443 222.501C229.978 221.967 230.614 221.544 231.314 221.256C232.013 220.967 232.763 220.819 233.52 220.819Z" fill="#2F2E41"/>
<path d="M246.663 104.147C251.917 104.147 256.175 99.9052 256.175 94.6731C256.175 89.4411 251.917 85.1997 246.663 85.1997C241.409 85.1997 237.151 89.4411 237.151 94.6731C237.151 99.9052 241.409 104.147 246.663 104.147Z" fill="#FFB8B8"/>
<path d="M241.369 209.166H234.881C234.437 209.165 234.01 208.997 233.686 208.694C233.363 208.392 233.167 207.978 233.138 207.537C231.205 176.926 232.336 154.969 236.697 138.436C236.716 138.363 236.74 138.292 236.768 138.223L237.116 137.358C237.245 137.035 237.468 136.758 237.757 136.563C238.045 136.369 238.386 136.265 238.735 136.266H252.078C252.33 136.266 252.578 136.32 252.807 136.425C253.035 136.529 253.238 136.682 253.402 136.872L255.214 138.978C255.249 139.019 255.282 139.061 255.314 139.105C263.486 150.455 270.81 172.644 279.293 202.469C279.418 202.902 279.368 203.367 279.154 203.765C278.94 204.162 278.579 204.461 278.147 204.597L271.176 206.819C270.775 206.945 270.343 206.923 269.957 206.758C269.572 206.593 269.259 206.296 269.075 205.92L250.979 168.542C250.852 168.281 250.645 168.067 250.387 167.932C250.129 167.798 249.834 167.75 249.546 167.795C249.259 167.84 248.993 167.977 248.789 168.184C248.586 168.391 248.454 168.658 248.415 168.945L243.096 207.665C243.038 208.08 242.831 208.46 242.514 208.736C242.197 209.012 241.79 209.164 241.369 209.166Z" fill="#2F2E41"/>
<path d="M254.483 139.132H254.428L238.219 138.622C237.802 138.61 237.404 138.45 237.096 138.17C236.788 137.89 236.592 137.509 236.542 137.097C234.49 120.534 240.123 116.097 242.641 114.957C242.851 114.862 243.034 114.715 243.17 114.53C243.307 114.344 243.393 114.127 243.42 113.899L243.638 112.163C243.675 111.857 243.794 111.565 243.983 111.32C247.931 106.227 253.321 104.596 256.182 104.077C256.637 103.996 257.105 104.098 257.484 104.36C257.863 104.622 258.121 105.024 258.203 105.476C258.208 105.505 258.212 105.533 258.216 105.562L258.543 108.055C258.576 108.293 258.671 108.518 258.819 108.707C267.052 119.427 257.88 135.254 255.957 138.319C255.801 138.567 255.583 138.772 255.325 138.915C255.067 139.057 254.777 139.132 254.483 139.132Z" fill="#CCCCCC"/>
<path d="M249.382 159.834L237.137 162.185L236.671 159.779L246.045 157.98L235.15 129.379L237.45 128.51L249.382 159.834Z" fill="#041F30"/>
<path d="M265.855 95.7397C263.733 92.764 261.188 90.1109 258.301 87.8634C255.899 85.9962 253.227 84.4005 250.28 83.6376C247.333 82.8747 244.076 83.0043 241.386 84.4279C238.697 85.8516 235.916 88.6804 235.899 91.7136C235.893 92.6883 236.142 94.0067 237.106 93.8381L237.385 93.8767L244.359 92.4738L247.329 102.74C247.538 103.461 247.818 104.268 248.505 104.575C249.153 104.865 249.9 104.592 250.558 104.319C250.666 104.275 251.591 102.205 251.591 102.205C251.615 102.14 251.655 102.083 251.708 102.039C251.761 101.995 251.824 101.966 251.892 101.954C251.96 101.943 252.03 101.95 252.095 101.974C252.159 101.999 252.216 102.04 252.259 102.094L252.809 102.778C252.914 102.91 253.058 103.003 253.221 103.045C253.384 103.086 253.557 103.074 253.712 103.01L265.085 98.2815C265.609 98.0636 266.195 97.7801 266.347 97.2343C266.49 96.7093 266.169 96.1817 265.855 95.7397Z" fill="#2F2E41"/>
<path d="M252.971 162.674C253.469 162.326 253.884 161.874 254.188 161.349C254.491 160.824 254.675 160.239 254.727 159.636C254.779 159.032 254.697 158.425 254.488 157.856C254.279 157.287 253.947 156.771 253.516 156.344L256.526 120.137L247.562 121.365L247.392 156.542C246.718 157.311 246.351 158.299 246.361 159.319C246.37 160.34 246.755 161.321 247.443 162.077C248.131 162.834 249.073 163.312 250.092 163.422C251.111 163.532 252.134 163.266 252.969 162.675L252.971 162.674Z" fill="#FFB8B8"/>
<path d="M257.112 125.351C256.944 125.351 256.777 125.327 256.616 125.279L246.993 122.461C246.774 122.396 246.569 122.289 246.391 122.146C246.213 122.003 246.065 121.827 245.955 121.626C245.846 121.426 245.777 121.207 245.752 120.98C245.728 120.753 245.749 120.524 245.813 120.306C245.827 120.259 245.842 120.214 245.86 120.169L249.421 111.007C249.569 110.62 249.853 110.299 250.219 110.103C250.586 109.906 251.011 109.848 251.417 109.938L257.774 111.314C258.171 111.4 258.525 111.621 258.776 111.939C259.026 112.258 259.157 112.653 259.146 113.058L258.85 123.662C258.838 124.113 258.65 124.542 258.325 124.857C258 125.172 257.565 125.349 257.112 125.35V125.351Z" fill="#CCCCCC"/>
</g>
<defs>
<clipPath id="clip0_2_34">
<rect width="297" height="227" fill="white"/>
</clipPath>
</defs>
</svg>
