<svg width="269" height="231" viewBox="0 0 269 231" fill="none" xmlns="http://www.w3.org/2000/svg">
<g clip-path="url(#clip0_2_161)">
<path d="M0 228.66C0 228.998 0.271749 229.268 0.610147 229.268H268.39C268.728 229.268 269 228.998 269 228.66C269 228.323 268.728 228.052 268.39 228.052H0.610147C0.271745 228.052 0 228.323 0 228.66Z" fill="#3F3C57"/>
<path d="M87.3688 24.5496L90.2808 37.7905L84.0868 56.2205L74.1077 36.4189L75.4923 24.9312L87.3688 24.5496Z" fill="#FDB4B4"/>
<path d="M90.8218 37.1045H73.5916V57.849H90.8218V37.1045Z" fill="#041F30"/>
<path d="M83.7364 31.2192C90.2352 31.2192 95.5035 25.9697 95.5035 19.494C95.5035 13.0184 90.2352 7.7688 83.7364 7.7688C77.2377 7.7688 71.9694 13.0184 71.9694 19.494C71.9694 25.9697 77.2377 31.2192 83.7364 31.2192Z" fill="#FDB4B4"/>
<path d="M73.4937 28.2128C73.4937 28.2128 64.7226 12.0715 72.6308 4.30387C80.539 -3.46375 86.8874 1.65463 86.8874 1.65463L90.5125 1.50864C90.5125 1.50864 91.2686 4.35143 92.4877 2.81251C93.7069 1.27359 95.9099 6.87815 95.9099 6.87815C99.9988 14.2158 85.8242 15.8596 85.8242 15.8596C85.8242 15.8596 86.8477 19.1085 85.8074 19.7889C84.767 20.4693 81.9873 23.0288 81.9873 23.0288L79.4993 24.9012L78.0208 22.6565C78.0208 22.6565 76.4764 21.4417 75.6961 21.952C74.9158 22.4623 75.9891 29.1765 75.9891 29.1765L73.4937 28.2128Z" fill="#2E2E41"/>
<path d="M59.3775 146.962L54.8787 213.831L65.9383 214.205L80.5595 147.522L59.3775 146.962Z" fill="#2E2E41"/>
<path d="M86.1831 146.588L81.6843 213.458L92.7439 213.831L107.365 147.149L86.1831 146.588Z" fill="#2E2E41"/>
<path d="M56.6685 162.24L62.5561 89.4096L53.5272 51.4854C52.7488 45.8479 56.3135 40.5137 61.8152 39.0592L70.6501 36.7236L74.5605 32.8269L83.4549 52.399L89.0099 32.8418L93.3422 35.9814L106.191 41.63L106.185 41.7623L104.124 87.5746L108.725 161.591L108.521 161.594L56.6685 162.24Z" fill="#E8E9EA"/>
<path d="M92.0338 213.071L95.2361 222.597C95.2361 222.597 107.765 224.295 107.959 228.159C108.154 232.024 90.9327 229.787 80.8485 230.292C70.7642 230.797 79.1586 219.915 79.1586 219.915L80.2332 213.662L92.0338 213.071Z" fill="#2E2E41"/>
<path d="M65.8816 212.385L69.0839 221.912C69.0839 221.912 81.6123 223.609 81.8072 227.474C82.0022 231.338 64.7805 229.101 54.6962 229.606C44.612 230.111 53.0063 219.23 53.0063 219.23L54.081 212.976L65.8816 212.385Z" fill="#2E2E41"/>
<path d="M50.2578 123.56C50.122 121.682 50.4397 119.799 51.1843 118.068L48.7943 98.5317L58.1566 97.6704L59.5727 117.581C60.5136 119.213 61.0485 121.046 61.1326 122.927C61.408 127.631 59.1967 131.584 56.1934 131.759C53.19 131.934 50.5324 128.263 50.2578 123.56Z" fill="#FDB4B4"/>
<path d="M109.557 126.428C109.441 124.548 109.78 122.669 110.543 120.946L108.367 101.385L117.738 100.625L118.936 120.55C119.859 122.192 120.374 124.031 120.438 125.912C120.662 130.619 118.407 134.548 115.402 134.69C112.397 134.832 109.78 131.133 109.557 126.428Z" fill="#FDB4B4"/>
<path d="M48.7558 115.725L48.7241 115.557L43.8447 89.4698L49.6102 46.9896C50.1246 43.197 53.5232 40.465 57.3557 40.7703C59.3572 40.93 61.1529 41.8759 62.4125 43.4341C63.672 44.9924 64.217 46.9424 63.947 48.925L59.6076 80.7846L62.3397 114.861L48.7558 115.725Z" fill="#E8E9EA"/>
<path d="M106.665 115.113L96.855 49.8626C96.3451 47.9493 96.6435 45.9471 97.6997 44.2456C98.7559 42.5441 100.42 41.3839 102.387 40.9786C106.149 40.2034 109.863 42.4948 110.845 46.1944L120.27 114.294L106.665 115.113Z" fill="#E8E9EA"/>
<path d="M83.7427 58.3636C84.4079 58.3636 84.9471 57.8263 84.9471 57.1635C84.9471 56.5007 84.4079 55.9634 83.7427 55.9634C83.0775 55.9634 82.5383 56.5007 82.5383 57.1635C82.5383 57.8263 83.0775 58.3636 83.7427 58.3636Z" fill="#D6D7D8"/>
<path d="M83.7427 67.45C84.4079 67.45 84.9471 66.9127 84.9471 66.2499C84.9471 65.5871 84.4079 65.0498 83.7427 65.0498C83.0775 65.0498 82.5383 65.5871 82.5383 66.2499C82.5383 66.9127 83.0775 67.45 83.7427 67.45Z" fill="#D6D7D8"/>
<path d="M83.7427 76.5364C84.4079 76.5364 84.9471 75.9991 84.9471 75.3363C84.9471 74.6735 84.4079 74.1362 83.7427 74.1362C83.0775 74.1362 82.5383 74.6735 82.5383 75.3363C82.5383 75.9991 83.0775 76.5364 83.7427 76.5364Z" fill="#D6D7D8"/>
<path d="M83.7427 85.6228C84.4079 85.6228 84.9471 85.0855 84.9471 84.4228C84.9471 83.76 84.4079 83.2227 83.7427 83.2227C83.0775 83.2227 82.5383 83.76 82.5383 84.4228C82.5383 85.0855 83.0775 85.6228 83.7427 85.6228Z" fill="#D6D7D8"/>
<path d="M83.7427 94.7093C84.4079 94.7093 84.9471 94.172 84.9471 93.5092C84.9471 92.8464 84.4079 92.3091 83.7427 92.3091C83.0775 92.3091 82.5383 92.8464 82.5383 93.5092C82.5383 94.172 83.0775 94.7093 83.7427 94.7093Z" fill="#D6D7D8"/>
<path d="M83.7427 103.796C84.4079 103.796 84.9471 103.258 84.9471 102.596C84.9471 101.933 84.4079 101.396 83.7427 101.396C83.0775 101.396 82.5383 101.933 82.5383 102.596C82.5383 103.258 83.0775 103.796 83.7427 103.796Z" fill="#D6D7D8"/>
<path d="M83.7427 112.882C84.4079 112.882 84.9471 112.345 84.9471 111.682C84.9471 111.019 84.4079 110.482 83.7427 110.482C83.0775 110.482 82.5383 111.019 82.5383 111.682C82.5383 112.345 83.0775 112.882 83.7427 112.882Z" fill="#D6D7D8"/>
<path d="M83.7427 121.969C84.4079 121.969 84.9471 121.431 84.9471 120.768C84.9471 120.106 84.4079 119.568 83.7427 119.568C83.0775 119.568 82.5383 120.106 82.5383 120.768C82.5383 121.431 83.0775 121.969 83.7427 121.969Z" fill="#D6D7D8"/>
<path d="M83.7442 128.997L60.956 125.971L60.5171 125.913L48.8706 99.1546L41.9348 83.2231H60.0006L83.7442 128.997Z" fill="#041F30"/>
<path d="M175.113 27.4608L189.601 19.552V42.1486H172.845L175.113 27.4608Z" fill="#2E2E41"/>
<path d="M192.707 32.4986L194.044 43.5922L184.407 62.7143L178.426 44.9167L181.238 32.1301L192.707 32.4986Z" fill="#FDB4B4"/>
<path d="M194.543 44.2544H177.904V64.2871H194.543V44.2544Z" fill="#041F30"/>
<path d="M208.269 150.342L212.613 214.917L201.933 215.277L187.814 150.883L208.269 150.342Z" fill="#2E2E41"/>
<path d="M182.383 149.981L186.728 214.556L176.047 214.917L161.928 150.523L182.383 149.981Z" fill="#2E2E41"/>
<path d="M219.552 164.038L219.298 164.037L151.26 163.816L151.321 163.576L168.814 94.5172L164.432 59.6658C163.602 53.0618 167.15 46.8197 173.26 44.1335L175.466 43.1638L179.657 40.1268L185.019 59.0045L193.605 40.1121L197.387 43.8803L205.916 46.1354C211.233 47.5408 214.677 52.6951 213.928 58.1247L213.919 58.1625L200.893 95.1989L219.552 164.038Z" fill="#E8E9EA"/>
<path d="M176.733 214.183L188.129 214.754L189.167 220.792C189.167 220.792 197.273 231.301 187.535 230.813C177.796 230.325 161.166 232.486 161.354 228.753C161.542 225.021 173.641 223.382 173.641 223.382L176.733 214.183Z" fill="#2E2E41"/>
<path d="M201.988 213.521L213.384 214.091L214.421 220.13C214.421 220.13 222.528 230.638 212.789 230.151C203.051 229.663 186.42 231.823 186.609 228.091C186.797 224.359 198.895 222.72 198.895 222.72L201.988 213.521Z" fill="#2E2E41"/>
<path d="M212.423 127.081C212.158 131.622 209.592 135.167 206.692 134.998C203.791 134.83 201.656 131.012 201.922 126.469C202.003 124.653 202.52 122.883 203.428 121.307L204.796 102.08L213.837 102.911L211.529 121.777C212.248 123.449 212.555 125.267 212.423 127.081Z" fill="#FDB4B4"/>
<path d="M165.962 125.355C165.6 129.889 162.958 133.378 160.062 133.148C157.166 132.918 155.113 129.056 155.476 124.52C155.596 122.706 156.15 120.947 157.092 119.39L158.87 100.197L167.891 101.22L165.181 120.033C165.864 121.719 166.132 123.544 165.962 125.355Z" fill="#FDB4B4"/>
<path d="M213.879 119.522L200.749 118.687L200.765 118.491L203.388 85.7734L199.198 55.0078C198.936 53.0915 199.463 51.2065 200.681 49.7004C201.898 48.1941 203.634 47.2798 205.569 47.1254C209.273 46.8345 212.558 49.4712 213.055 53.137L218.623 94.1606L218.617 94.1912L213.879 119.522Z" fill="#E8E9EA"/>
<path d="M168.148 118.269L154.997 117.477L155.026 117.27L164.094 51.7292C165.048 48.1295 168.64 45.9154 172.275 46.6644C174.176 47.0561 175.785 48.1775 176.806 49.8223C177.826 51.4671 178.115 53.4023 177.618 55.2718L168.148 118.269Z" fill="#E8E9EA"/>
<path d="M184.74 64.7839C185.382 64.7839 185.903 64.265 185.903 63.625C185.903 62.9849 185.382 62.4661 184.74 62.4661C184.097 62.4661 183.577 62.9849 183.577 63.625C183.577 64.265 184.097 64.7839 184.74 64.7839Z" fill="#D6D7D8"/>
<path d="M184.74 73.5585C185.382 73.5585 185.903 73.0397 185.903 72.3996C185.903 71.7596 185.382 71.2407 184.74 71.2407C184.097 71.2407 183.577 71.7596 183.577 72.3996C183.577 73.0397 184.097 73.5585 184.74 73.5585Z" fill="#D6D7D8"/>
<path d="M184.74 82.3332C185.382 82.3332 185.903 81.8143 185.903 81.1743C185.903 80.5342 185.382 80.0154 184.74 80.0154C184.097 80.0154 183.577 80.5342 183.577 81.1743C183.577 81.8143 184.097 82.3332 184.74 82.3332Z" fill="#D6D7D8"/>
<path d="M184.74 91.1079C185.382 91.1079 185.903 90.589 185.903 89.949C185.903 89.3089 185.382 88.79 184.74 88.79C184.097 88.79 183.577 89.3089 183.577 89.949C183.577 90.589 184.097 91.1079 184.74 91.1079Z" fill="#D6D7D8"/>
<path d="M184.74 99.8825C185.382 99.8825 185.903 99.3637 185.903 98.7236C185.903 98.0836 185.382 97.5647 184.74 97.5647C184.097 97.5647 183.577 98.0836 183.577 98.7236C183.577 99.3637 184.097 99.8825 184.74 99.8825Z" fill="#D6D7D8"/>
<path d="M184.74 108.657C185.382 108.657 185.903 108.138 185.903 107.498C185.903 106.858 185.382 106.339 184.74 106.339C184.097 106.339 183.577 106.858 183.577 107.498C183.577 108.138 184.097 108.657 184.74 108.657Z" fill="#D6D7D8"/>
<path d="M184.74 117.432C185.382 117.432 185.903 116.913 185.903 116.273C185.903 115.633 185.382 115.114 184.74 115.114C184.097 115.114 183.577 115.633 183.577 116.273C183.577 116.913 184.097 117.432 184.74 117.432Z" fill="#D6D7D8"/>
<path d="M184.74 126.207C185.382 126.207 185.903 125.688 185.903 125.048C185.903 124.408 185.382 123.889 184.74 123.889C184.097 123.889 183.577 124.408 183.577 125.048C183.577 125.688 184.097 126.207 184.74 126.207Z" fill="#D6D7D8"/>
<path d="M186.505 38.1604C192.513 38.1604 197.384 33.3071 197.384 27.3204C197.384 21.3337 192.513 16.4805 186.505 16.4805C180.497 16.4805 175.627 21.3337 175.627 27.3204C175.627 33.3071 180.497 38.1604 186.505 38.1604Z" fill="#FDB4B4"/>
<path d="M192.206 14.6661C192.728 15.7225 191.901 17.0421 190.807 17.4863C189.713 17.9304 188.477 17.7505 187.31 17.5656C186.143 17.3807 184.905 17.2054 183.815 17.6574C182.403 18.2423 181.607 19.7094 180.922 21.0708C179.642 23.6124 178.362 26.154 177.082 28.6956C176.457 29.9373 175.817 31.2349 175.805 32.6242C175.783 35.1744 177.813 37.2123 178.906 39.5186C180.236 42.3267 180.126 45.7679 178.62 48.4862C177.114 51.2045 174.25 53.1304 171.156 53.5051C170.342 53.6036 169.481 53.5929 168.749 53.2245C168.018 52.8561 167.459 52.0515 167.595 51.2457C167.86 49.6698 170.276 49.3016 170.72 47.7661C170.952 46.9646 170.541 46.1086 169.988 45.4826C169.435 44.8565 168.736 44.3681 168.208 43.7205C166.991 42.2273 166.91 39.9222 168.019 38.3478C168.671 37.4225 169.678 36.7351 170.1 35.6855C170.459 34.7909 170.328 33.7852 170.192 32.8313C170.018 31.6056 169.843 30.3798 169.668 29.1541C169.464 27.724 169.264 26.2426 169.666 24.8551C170.59 21.6753 174.193 20.182 176.306 17.6279C177.288 16.441 177.948 15.0136 178.955 13.8481C180.646 11.8922 183.307 10.8132 185.888 11.0375C188.469 11.2618 190.902 12.7836 192.228 15.0016" fill="#2E2E41"/>
<path d="M190.489 14.8667C189.957 15.0561 189.76 15.7459 189.913 16.2873C190.066 16.8286 190.467 17.2588 190.833 17.6864C194.981 22.5226 195.945 29.8377 193.191 35.5767C192.458 37.1033 191.483 38.5399 191.088 40.1855C190.8 41.3829 190.816 42.6963 190.149 43.7329C189.47 44.7882 188.125 45.4953 187.992 46.7417C187.907 47.5416 188.396 48.3185 189.052 48.7875C189.708 49.2564 190.509 49.471 191.297 49.6459C193.345 50.1006 195.439 50.3489 197.537 50.3857C198.221 50.3976 198.927 50.3829 199.554 50.1113C200.181 49.8398 200.717 49.2509 200.724 48.5693C200.73 48.0337 200.42 47.5395 200.38 47.0053C200.262 45.4044 202.423 44.5528 202.844 43.0035C203.121 41.9849 202.576 40.9367 201.995 40.0545C201.413 39.1723 200.75 38.2459 200.765 37.1907C200.778 36.1805 201.415 35.2909 201.662 34.3111C202.004 32.9559 201.584 31.5384 201.167 30.2041C200.813 29.0697 200.458 27.9353 200.104 26.8009C199.727 25.5951 199.351 24.3892 198.974 23.1833C198.317 21.0781 197.626 18.9118 196.203 17.2233C194.781 15.5348 192.423 14.4282 190.321 15.1175" fill="#2E2E41"/>
<path d="M197.902 56.8714L197.156 56.6549C198.71 51.3475 195.36 41.4432 195.326 41.3438L196.061 41.094C196.204 41.5095 199.523 51.3316 197.902 56.8714Z" fill="#3F3C57"/>
<path d="M197.529 62.9675C199.321 62.9675 200.773 61.5201 200.773 59.7347C200.773 57.9493 199.321 56.502 197.529 56.502C195.737 56.502 194.285 57.9493 194.285 59.7347C194.285 61.5201 195.737 62.9675 197.529 62.9675Z" fill="#3F3C57"/>
<path d="M176.212 71.1796H174.245C174.03 71.1796 173.856 71.0064 173.856 70.7927C173.856 70.579 174.03 70.4057 174.245 70.4057H176.212C176.754 70.4057 177.264 70.1952 177.647 69.8128C178.029 69.4305 178.24 68.9224 178.239 68.3824L178.215 56.3065C178.215 53.6832 176.074 51.5496 173.442 51.5496C170.81 51.5496 168.668 53.6832 168.668 56.3058L168.692 67.6089C168.694 68.7116 169.597 69.6155 170.703 69.624L172.054 69.6342C172.268 69.6359 172.44 69.8103 172.439 70.0242C172.437 70.2368 172.264 70.4081 172.051 70.4081H172.048L170.697 70.3979C169.166 70.3862 167.918 69.1356 167.915 67.6104L167.891 56.3065C167.891 53.2565 170.381 50.7756 173.442 50.7756C176.502 50.7756 178.992 53.2565 178.992 56.3058L179.015 68.3809C179.017 69.128 178.726 69.8307 178.196 70.3594C177.667 70.8883 176.962 71.1796 176.212 71.1796Z" fill="#3F3C57"/>
<path d="M172.051 71.3927C172.811 71.3927 173.427 70.7787 173.427 70.0212C173.427 69.2637 172.811 68.6497 172.051 68.6497C171.291 68.6497 170.674 69.2637 170.674 70.0212C170.674 70.7787 171.291 71.3927 172.051 71.3927Z" fill="#3F3C57"/>
<path d="M174.244 72.1642C175.005 72.1642 175.621 71.5502 175.621 70.7927C175.621 70.0352 175.005 69.4211 174.244 69.4211C173.484 69.4211 172.868 70.0352 172.868 70.7927C172.868 71.5502 173.484 72.1642 174.244 72.1642Z" fill="#3F3C57"/>
<path d="M94.7842 51.0709L94.0387 50.8544C95.592 45.547 92.2802 35.4893 92.2465 35.3899L93.1784 36.09C93.3206 36.5055 96.4059 45.5311 94.7842 51.0709Z" fill="#3F3C57"/>
<path d="M68.5747 52.0139L69.3203 51.7974C67.7669 46.49 71.1164 36.5857 71.1502 36.4863L70.3526 37.0187C70.2104 37.4342 66.9531 46.4741 68.5747 52.0139Z" fill="#3F3C57"/>
<path d="M94.4115 57.1672C96.2032 57.1672 97.6557 55.7198 97.6557 53.9344C97.6557 52.149 96.2032 50.7017 94.4115 50.7017C92.6197 50.7017 91.1672 52.149 91.1672 53.9344C91.1672 55.7198 92.6197 57.1672 94.4115 57.1672Z" fill="#3F3C57"/>
<path d="M72.0335 71.8942H70.066C69.8513 71.8942 69.6776 71.721 69.6776 71.5073C69.6776 71.2936 69.8513 71.1203 70.066 71.1203H72.0335C72.5758 71.1203 73.0852 70.9098 73.4682 70.5274C73.8509 70.1451 74.0613 69.637 74.0602 69.097L74.0363 57.0211C74.0363 54.3978 71.8951 52.2642 69.2631 52.2642C66.6312 52.2642 64.4896 54.3978 64.4896 57.0204L64.5135 68.3235C64.5158 69.4262 65.418 70.3301 66.5246 70.3386L67.8751 70.3488C68.0894 70.3505 68.2619 70.5249 68.2604 70.7388C68.2589 70.9514 68.0852 71.1227 67.8721 71.1227H67.869L66.5185 71.1125C64.9879 71.1008 63.7398 69.8502 63.7368 68.325L63.7129 57.0211C63.7129 53.9711 66.2026 51.4902 69.2631 51.4902C72.3233 51.4902 74.813 53.9711 74.813 57.0204L74.8369 69.0955C74.8384 69.8426 74.5475 70.5453 74.0177 71.074C73.4883 71.6029 72.7833 71.8942 72.0335 71.8942Z" fill="#3F3C57"/>
<path d="M67.8722 72.1073C68.6323 72.1073 69.2486 71.4933 69.2486 70.7358C69.2486 69.9783 68.6323 69.3643 67.8722 69.3643C67.112 69.3643 66.4957 69.9783 66.4957 70.7358C66.4957 71.4933 67.112 72.1073 67.8722 72.1073Z" fill="#3F3C57"/>
<path d="M70.0659 72.8788C70.8261 72.8788 71.4423 72.2648 71.4423 71.5073C71.4423 70.7498 70.8261 70.1357 70.0659 70.1357C69.3057 70.1357 68.6895 70.7498 68.6895 71.5073C68.6895 72.2648 69.3057 72.8788 70.0659 72.8788Z" fill="#3F3C57"/>
</g>
<defs>
<clipPath id="clip0_2_161">
<rect width="269" height="231" fill="white"/>
</clipPath>
</defs>
</svg>
