<svg width="159" height="234" viewBox="0 0 159 234" fill="none" xmlns="http://www.w3.org/2000/svg">
<g clip-path="url(#clip0_2_389)">
<path d="M138.967 234H64.4809C53.4346 234 44.4478 225.035 44.4478 214.016V19.9838C44.4478 8.96463 53.4346 0 64.4809 0H138.967C150.013 0 159 8.96463 159 19.9838V214.016C159 225.035 150.013 234 138.967 234ZM64.4809 0.769496C53.8588 0.769496 45.2192 9.38785 45.2192 19.9838V214.016C45.2192 224.612 53.8588 233.23 64.4809 233.23H138.967C149.589 233.23 158.229 224.612 158.229 214.016V19.9838C158.229 9.38785 149.589 0.769496 138.967 0.769496H64.4809Z" fill="#DEDFE0"/>
<path d="M112.273 18.2216H91.1789C88.3942 18.2216 86.1301 15.9632 86.1301 13.1853C86.1301 10.4074 88.3942 8.14893 91.1789 8.14893H112.273C115.057 8.14893 117.322 10.4074 117.322 13.1853C117.322 15.9632 115.057 18.2216 112.273 18.2216Z" fill="#DADBDC"/>
<path d="M82.9559 233.596C82.9559 233.804 82.7862 233.973 82.5779 233.973H0.377984C0.169707 233.973 0 233.804 0 233.596C0 233.388 0.169707 233.219 0.377984 233.219H82.5779C82.7861 233.219 82.9559 233.388 82.9559 233.596Z" fill="#3F3D58"/>
<path d="M45.9597 117.006L53.5387 119.491V108.611H46.6617L45.9597 117.006Z" fill="#F6AAAE"/>
<path d="M52.5976 111.623C56.7684 111.623 60.1495 108.25 60.1495 104.09C60.1495 99.9292 56.7684 96.5564 52.5976 96.5564C48.4268 96.5564 45.0456 99.9292 45.0456 104.09C45.0456 108.25 48.4268 111.623 52.5976 111.623Z" fill="#F6AAAE"/>
<path d="M50.6768 104.678L51.7182 105.94L53.6004 102.655C53.6004 102.655 56.0033 102.778 56.0033 101C56.0033 99.2227 58.2095 99.1727 58.2095 99.1727C58.2095 99.1727 61.3298 93.7362 54.8655 95.1675C54.8655 95.1675 50.3798 92.1011 48.1505 94.7212C48.1505 94.7212 41.3121 98.157 43.2676 104.14L46.519 110.303L47.2557 108.907C47.2557 108.907 46.8083 103.047 50.6768 104.678Z" fill="#2F2E43"/>
<path d="M49.9749 220.111H43.8731V228.744H49.9749V220.111Z" fill="#F6AAAE"/>
<path d="M49.3037 233.692C48.2585 233.788 43.04 234.196 42.7777 233.003C42.5386 231.907 42.8896 230.76 42.9397 230.607C43.4411 225.628 43.6263 225.57 43.7381 225.536C43.9155 225.486 44.4362 225.728 45.277 226.27L45.331 226.305L45.3426 226.367C45.358 226.444 45.7322 228.271 47.4987 227.994C48.7098 227.802 49.1032 227.536 49.2305 227.405C49.1263 227.359 48.999 227.278 48.9103 227.136C48.7792 226.932 48.756 226.671 48.8409 226.359C49.0685 225.532 49.7511 224.308 49.7781 224.258L49.8553 224.12L56.7901 228.787L61.0714 230.006C61.3954 230.099 61.6538 230.329 61.7849 230.637C61.9662 231.068 61.8543 231.568 61.5072 231.88C60.7281 232.576 59.1853 233.773 57.5615 233.919C57.1295 233.958 56.5587 233.973 55.9185 233.973C53.2379 233.973 49.3307 233.696 49.2999 233.692L49.3037 233.692Z" fill="#2F2E43"/>
<path d="M30.9433 207.145L25.4264 213.797L30.1279 217.677L35.6448 211.025L30.9433 207.145Z" fill="#F6AAAE"/>
<path d="M26.455 221.069C25.591 220.476 21.3059 217.475 21.8652 216.39C22.382 215.394 23.3848 214.736 23.5237 214.647C27.0914 211.131 27.2727 211.204 27.3807 211.25C27.5504 211.323 27.7934 211.842 28.0981 212.793L28.1174 212.85L28.0865 212.904C28.0479 212.974 27.1685 214.62 28.7075 215.528C29.7643 216.152 30.2387 216.194 30.4161 216.175C30.366 216.075 30.3197 215.928 30.339 215.763C30.366 215.524 30.5164 215.305 30.7864 215.12C31.4922 214.628 32.7959 214.12 32.8537 214.097L33.0003 214.039L35.3608 222.046L37.8794 225.709C38.0684 225.986 38.1224 226.328 38.0259 226.651C37.8909 227.098 37.486 227.413 37.0154 227.432C35.9702 227.475 34.0185 227.413 32.6724 226.494C32.3176 226.251 31.8663 225.901 31.3726 225.493C29.3092 223.789 26.4743 221.092 26.4511 221.069L26.455 221.069Z" fill="#2F2E43"/>
<path d="M60.0686 153.522H39.1406L43.7921 222.531H50.7694L60.0724 153.522L60.0686 153.522Z" fill="#2F2E43"/>
<path d="M55.8066 157.324L60.0686 153.522L57.9356 191.474L34.0995 214.089L28.1598 209.191L42.0449 191.216L55.8066 157.324Z" fill="#2F2E43"/>
<path d="M55.8066 112.927L45.4699 111.254L42.2609 116.852C38.1802 123.97 36.5179 132.211 37.5168 140.348L39.1406 153.526H60.0686L55.8066 112.931L55.8066 112.927Z" fill="#DADBDC"/>
<path d="M47.4138 165.946C47.8419 168.073 47.0435 170.016 45.6357 170.286C44.2241 170.551 42.7353 169.043 42.3072 166.911C42.1259 166.061 42.1568 165.184 42.3997 164.349L40.7027 155.304L45.1382 154.615L46.3377 163.606C46.8854 164.295 47.2557 165.095 47.4138 165.95V165.946Z" fill="#F6AAAE"/>
<path d="M42.0179 163.495L35.5035 143.419V143.388L37.9642 122.715C38.3422 119.549 41.0344 117.164 44.228 117.164C46.1834 117.164 47.9962 118.045 49.1996 119.584C50.403 121.123 50.8234 123.089 50.349 124.986L46.0022 142.326L47.0397 162.006L42.014 163.495L42.0179 163.495Z" fill="#DADBDC"/>
<path d="M79.2879 119.384C81.0968 129.021 90.396 135.374 100.062 133.565C102.985 133.019 105.608 131.788 107.791 130.068L129.776 153.722C131.122 155.169 133.417 155.165 134.759 153.711C136.012 152.353 135.943 150.244 134.601 148.971L111.112 126.64C113.935 122.816 115.223 117.879 114.278 112.843C112.469 103.205 103.17 96.8527 93.5047 98.661C83.8391 100.469 77.4751 109.742 79.2879 119.384ZM83.0831 118.676C81.6676 111.127 86.6508 103.863 94.2182 102.451C101.786 101.039 109.068 106.01 110.483 113.558C111.899 121.107 106.915 128.371 99.348 129.783C91.7806 131.195 84.4986 126.224 83.0831 118.676Z" fill="#041F30"/>
</g>
<defs>
<clipPath id="clip0_2_389">
<rect width="159" height="234" fill="white"/>
</clipPath>
</defs>
</svg>
