<svg width="357" height="287" viewBox="0 0 357 287" fill="none" xmlns="http://www.w3.org/2000/svg">
<g clip-path="url(#clip0_2_491)">
<path d="M356.993 267.35C356.938 273.675 356.477 279.989 355.613 286.255C355.582 286.475 355.549 286.695 355.519 286.915L296.552 286.584C296.379 286.365 296.209 286.144 296.044 285.92C295.493 285.18 294.977 284.418 294.503 283.63C292.227 279.834 291.185 275.39 292.229 272.324L292.248 272.276C292.473 271.605 292.828 270.985 293.293 270.451C295.674 267.759 300.489 268.208 304.859 270.381C300.94 266.072 297.819 260.635 297.582 255.781C297.349 251.047 299.814 247.665 302.487 244.791C302.574 244.696 302.662 244.603 302.75 244.511C302.792 244.464 302.837 244.419 302.88 244.371C304.965 242.181 307.396 240.022 310.915 240.283C314.775 240.57 319.054 243.817 322.054 247.601C325.055 251.383 327.048 255.678 329.069 259.871C331.093 264.061 333.282 268.357 336.529 271.938C332.131 266.351 328.585 259.993 327.275 253.809C325.965 247.626 327.118 241.687 331.038 238.775C332.228 237.918 333.605 237.36 335.053 237.148C335.222 237.119 335.394 237.096 335.569 237.076C339.197 236.661 343.529 237.922 347.215 240.935C351.275 244.253 354.089 249.171 355.489 253.84C356.889 258.509 357.039 263.004 356.993 267.35Z" fill="#F2F2F2"/>
<path d="M318.414 286.706L317.286 286.7C316.928 286.475 316.568 286.253 316.207 286.034C315.983 285.892 315.757 285.755 315.531 285.616C311.79 283.321 308.027 281.12 304.24 279.013C300.457 276.904 296.654 274.892 292.833 272.977C292.731 272.933 292.649 272.854 292.599 272.755C292.55 272.656 292.536 272.543 292.561 272.434C292.565 272.42 292.571 272.407 292.58 272.395C292.633 272.294 292.752 272.252 292.926 272.338C293.395 272.574 293.866 272.811 294.335 273.052C298.167 274.999 301.982 277.044 305.781 279.186C309.578 281.327 313.353 283.563 317.106 285.893C317.185 285.941 317.264 285.992 317.343 286.04C317.701 286.262 318.056 286.484 318.414 286.706Z" fill="white"/>
<path d="M332.952 286.788L332.255 286.784C332.098 286.563 331.943 286.342 331.786 286.121C328.091 280.916 324.397 275.712 320.704 270.507C314.656 261.986 308.61 253.466 302.565 244.945C302.529 244.899 302.503 244.847 302.487 244.791C302.435 244.602 302.573 244.492 302.75 244.511C302.824 244.522 302.896 244.548 302.959 244.589C303.023 244.63 303.077 244.683 303.118 244.747C306.509 249.525 309.899 254.302 313.288 259.076C319.305 267.555 325.321 276.032 331.335 284.508C331.718 285.046 332.101 285.587 332.483 286.125C332.64 286.346 332.798 286.567 332.952 286.788Z" fill="white"/>
<path d="M348.486 282.721C348.45 283.901 348.372 285.063 348.271 286.213C348.251 286.433 348.231 286.654 348.211 286.874L347.48 286.87C347.502 286.649 347.525 286.429 347.544 286.209C347.699 284.547 347.809 282.865 347.824 281.138C347.843 276.351 347.378 271.573 346.437 266.879C345.437 261.825 344 256.869 342.143 252.065C340.195 246.999 337.845 242.097 335.118 237.408C335.066 237.331 335.044 237.239 335.053 237.148C335.084 236.938 335.361 236.876 335.569 237.076C335.61 237.115 335.645 237.16 335.674 237.209C336.011 237.792 336.342 238.377 336.667 238.963C339.294 243.679 341.543 248.597 343.392 253.672C345.152 258.491 346.492 263.455 347.395 268.508C348.24 273.196 348.606 277.958 348.486 282.721Z" fill="white"/>
<path d="M241.691 276.52C241.662 279.825 241.421 283.125 240.97 286.399C240.954 286.514 240.937 286.629 240.921 286.744L210.106 286.571C210.016 286.457 209.927 286.341 209.84 286.224C209.553 285.837 209.283 285.439 209.036 285.027C207.846 283.044 207.301 280.721 207.847 279.119L207.857 279.094C207.975 278.743 208.16 278.419 208.403 278.141C209.647 276.733 212.164 276.968 214.447 278.104C212.399 275.852 210.768 273.01 210.644 270.474C210.523 268 211.811 266.233 213.207 264.731C213.253 264.681 213.299 264.633 213.345 264.585C213.367 264.56 213.391 264.536 213.413 264.512C214.503 263.367 215.773 262.239 217.612 262.375C219.629 262.525 221.865 264.222 223.433 266.2C225.001 268.176 226.043 270.42 227.099 272.611C228.156 274.801 229.3 277.046 230.997 278.918C228.699 275.997 226.846 272.675 226.161 269.444C225.477 266.212 226.079 263.109 228.128 261.587C228.749 261.139 229.469 260.848 230.226 260.737C230.314 260.722 230.404 260.71 230.495 260.699C232.391 260.483 234.655 261.141 236.582 262.716C238.644 264.495 240.146 266.838 240.905 269.46C241.637 271.9 241.715 274.249 241.691 276.52Z" fill="#F2F2F2"/>
<path d="M221.531 286.635L220.941 286.632C220.754 286.514 220.566 286.398 220.377 286.283C220.261 286.209 220.142 286.138 220.024 286.065C218.069 284.866 216.103 283.716 214.124 282.615C212.147 281.512 210.16 280.461 208.163 279.46C208.11 279.437 208.066 279.396 208.04 279.344C208.015 279.293 208.007 279.233 208.021 279.177C208.023 279.169 208.026 279.162 208.03 279.156C208.058 279.104 208.12 279.082 208.211 279.127C208.456 279.25 208.703 279.373 208.948 279.499C210.95 280.517 212.944 281.586 214.929 282.705C216.913 283.824 218.886 284.992 220.847 286.21C220.888 286.235 220.93 286.261 220.971 286.287C221.158 286.403 221.344 286.519 221.531 286.635Z" fill="white"/>
<path d="M229.128 286.678L228.764 286.676C228.682 286.56 228.601 286.444 228.519 286.329C226.588 283.609 224.657 280.889 222.727 278.17C219.567 273.717 216.407 269.264 213.248 264.811C213.23 264.788 213.216 264.76 213.207 264.731C213.18 264.632 213.253 264.574 213.345 264.585C213.384 264.59 213.421 264.604 213.454 264.625C213.488 264.647 213.516 264.675 213.537 264.708C215.309 267.205 217.081 269.701 218.852 272.196C221.996 276.627 225.14 281.057 228.283 285.486C228.483 285.767 228.683 286.05 228.883 286.331C228.965 286.447 229.047 286.562 229.128 286.678Z" fill="white"/>
<path d="M237.245 284.552C237.227 285.169 237.186 285.776 237.133 286.377C237.123 286.492 237.113 286.607 237.102 286.722L236.72 286.72C236.732 286.605 236.743 286.49 236.754 286.375C236.834 285.506 236.892 284.628 236.9 283.725C236.91 281.223 236.667 278.727 236.175 276.274C235.652 273.633 234.901 271.042 233.931 268.532C232.913 265.885 231.685 263.323 230.26 260.873C230.233 260.833 230.221 260.785 230.226 260.737C230.242 260.627 230.387 260.595 230.495 260.699C230.517 260.72 230.535 260.743 230.55 260.769C230.727 261.074 230.9 261.379 231.07 261.685C232.442 264.15 233.617 266.72 234.583 269.372C235.504 271.89 236.204 274.484 236.675 277.125C237.117 279.575 237.308 282.063 237.245 284.552Z" fill="white"/>
<path d="M63.7723 156.074H6.02256C4.42584 156.072 2.89503 155.434 1.76598 154.3C0.636924 153.166 0.00181955 151.628 0 150.024V80.3433C0.00181955 78.7394 0.636924 77.2017 1.76598 76.0675C2.89503 74.9334 4.42584 74.2954 6.02256 74.2936H63.7723C65.369 74.2954 66.8998 74.9334 68.0289 76.0675C69.1579 77.2017 69.793 78.7394 69.7949 80.3433V150.024C69.793 151.628 69.1579 153.166 68.0289 154.3C66.8998 155.434 65.369 156.072 63.7723 156.074ZM6.02256 75.0656C4.6296 75.0672 3.29413 75.6237 2.30916 76.6132C1.32418 77.6026 0.770129 78.9441 0.768557 80.3433V150.024C0.770129 151.423 1.32418 152.765 2.30916 153.754C3.29413 154.744 4.6296 155.3 6.02256 155.302H63.7723C65.1653 155.3 66.5007 154.744 67.4857 153.754C68.4707 152.765 69.0247 151.423 69.0263 150.024V80.3433C69.0247 78.9441 68.4707 77.6026 67.4857 76.6132C66.5007 75.6237 65.1653 75.0672 63.7723 75.0656H6.02256Z" fill="#3F3D56"/>
<path d="M48.3969 80.0214H21.3979C20.1244 80.02 18.9034 79.5111 18.0029 78.6066C17.1024 77.702 16.5959 76.4755 16.5944 75.1962V74.1628C16.5959 72.8835 17.1024 71.6571 18.0029 70.7525C18.9034 69.8479 20.1244 69.3391 21.3979 69.3376H48.3969C49.6704 69.3391 50.8914 69.8479 51.7919 70.7525C52.6924 71.6571 53.199 72.8835 53.2004 74.1628V75.1962C53.199 76.4755 52.6924 77.702 51.7919 78.6066C50.8914 79.5111 49.6704 80.02 48.3969 80.0214Z" fill="#CCCCCC"/>
<path d="M61.3803 117.93H8.41457C8.0553 117.93 7.69947 117.859 7.36743 117.722C7.03538 117.584 6.73364 117.382 6.47945 117.127C6.22525 116.872 6.0236 116.569 5.88601 116.235C5.74843 115.902 5.67761 115.545 5.67761 115.184C5.67761 114.823 5.74843 114.465 5.88601 114.132C6.0236 113.799 6.22525 113.496 6.47945 113.241C6.73364 112.986 7.03538 112.784 7.36743 112.646C7.69947 112.508 8.0553 112.437 8.41457 112.438H61.3803C62.1047 112.438 62.7992 112.728 63.3112 113.243C63.8232 113.758 64.1108 114.456 64.1108 115.184C64.1108 115.911 63.8232 116.609 63.3112 117.124C62.7992 117.639 62.1047 117.929 61.3803 117.93Z" fill="#041F30"/>
<path d="M61.3803 129.6H8.41457C8.0553 129.601 7.69947 129.53 7.36743 129.392C7.03538 129.255 6.73364 129.052 6.47945 128.797C6.22525 128.542 6.0236 128.239 5.88601 127.906C5.74843 127.573 5.67761 127.215 5.67761 126.854C5.67761 126.494 5.74843 126.136 5.88601 125.803C6.0236 125.469 6.22525 125.167 6.47945 124.912C6.73364 124.657 7.03538 124.454 7.36743 124.316C7.69947 124.179 8.0553 124.108 8.41457 124.108H61.3803C62.1047 124.109 62.7992 124.399 63.3112 124.914C63.8232 125.429 64.1108 126.127 64.1108 126.854C64.1108 127.582 63.8232 128.28 63.3112 128.795C62.7992 129.31 62.1047 129.6 61.3803 129.6Z" fill="#041F30"/>
<path d="M47.1992 106.259H22.5957C22.2365 106.259 21.8806 106.189 21.5486 106.051C21.2165 105.913 20.9148 105.711 20.6606 105.456C20.4064 105.201 20.2047 104.898 20.0672 104.565C19.9296 104.231 19.8588 103.874 19.8588 103.513C19.8588 103.152 19.9296 102.795 20.0672 102.461C20.2047 102.128 20.4064 101.825 20.6606 101.57C20.9148 101.315 21.2165 101.113 21.5486 100.975C21.8806 100.837 22.2365 100.767 22.5957 100.767H47.1992C47.5584 100.767 47.9143 100.837 48.2463 100.975C48.5784 101.113 48.8801 101.315 49.1343 101.57C49.3885 101.825 49.5901 102.128 49.7277 102.461C49.8653 102.795 49.9361 103.152 49.9361 103.513C49.9361 103.874 49.8653 104.231 49.7277 104.565C49.5901 104.898 49.3885 105.201 49.1343 105.456C48.8801 105.711 48.5784 105.913 48.2463 106.051C47.9143 106.189 47.5584 106.259 47.1992 106.259Z" fill="#041F30"/>
<path d="M186.448 86.7363H128.698C127.101 86.7345 125.57 86.0965 124.441 84.9623C123.312 83.8282 122.677 82.2905 122.675 80.6866V11.0055C122.677 9.40161 123.312 7.86389 124.441 6.72974C125.57 5.59559 127.101 4.95763 128.698 4.95581H186.448C188.044 4.95763 189.575 5.59559 190.704 6.72974C191.833 7.86389 192.468 9.4016 192.47 11.0055V80.6866C192.468 82.2905 191.833 83.8282 190.704 84.9624C189.575 86.0965 188.044 86.7345 186.448 86.7363ZM128.698 5.72783C127.305 5.7294 125.97 6.28595 124.985 7.27537C124 8.26479 123.446 9.60628 123.444 11.0055V80.6866C123.446 82.0858 124 83.4273 124.985 84.4167C125.97 85.4061 127.305 85.9627 128.698 85.9643H186.448C187.841 85.9627 189.176 85.4061 190.161 84.4167C191.146 83.4273 191.7 82.0858 191.702 80.6866V11.0055C191.7 9.60628 191.146 8.26479 190.161 7.27537C189.176 6.28595 187.841 5.7294 186.448 5.72783H128.698Z" fill="#3F3D56"/>
<path d="M171.072 10.6838H144.073C142.8 10.6823 141.579 10.1735 140.678 9.26891C139.778 8.36433 139.271 7.13787 139.27 5.8586V4.82515C139.271 3.54588 139.778 2.31942 140.678 1.41484C141.579 0.510264 142.8 0.00143854 144.073 0H171.072C172.346 0.00143854 173.567 0.510264 174.467 1.41484C175.368 2.31942 175.874 3.54588 175.876 4.82515V5.8586C175.874 7.13787 175.368 8.36433 174.467 9.26891C173.567 10.1735 172.346 10.6823 171.072 10.6838Z" fill="#CCCCCC"/>
<path d="M184.056 48.5921H131.09C130.731 48.5925 130.375 48.5218 130.043 48.384C129.711 48.2462 129.409 48.044 129.155 47.7889C128.901 47.5339 128.699 47.231 128.561 46.8976C128.424 46.5643 128.353 46.2069 128.353 45.846C128.353 45.4851 128.424 45.1278 128.561 44.7944C128.699 44.461 128.901 44.1582 129.155 43.9031C129.409 43.6481 129.711 43.4459 130.043 43.3081C130.375 43.1703 130.731 43.0995 131.09 43.1H184.056C184.415 43.0995 184.771 43.1703 185.103 43.3081C185.435 43.4459 185.737 43.6481 185.991 43.9031C186.245 44.1582 186.447 44.461 186.584 44.7944C186.722 45.1278 186.793 45.4851 186.793 45.846C186.793 46.2069 186.722 46.5643 186.584 46.8976C186.447 47.231 186.245 47.5339 185.991 47.7889C185.737 48.044 185.435 48.2462 185.103 48.384C184.771 48.5218 184.415 48.5925 184.056 48.5921Z" fill="#041F30"/>
<path d="M184.056 60.2627H131.09C130.731 60.2627 130.376 60.1917 130.044 60.0537C129.712 59.9157 129.411 59.7134 129.157 59.4584C128.903 59.2034 128.702 58.9007 128.564 58.5675C128.427 58.2344 128.356 57.8773 128.356 57.5167C128.356 57.1561 128.427 56.799 128.564 56.4658C128.702 56.1326 128.903 55.8299 129.157 55.5749C129.411 55.3199 129.712 55.1177 130.044 54.9797C130.376 54.8417 130.731 54.7706 131.09 54.7706H184.056C184.415 54.7706 184.77 54.8417 185.102 54.9797C185.434 55.1177 185.735 55.3199 185.989 55.5749C186.243 55.8299 186.444 56.1326 186.581 56.4658C186.719 56.799 186.789 57.1561 186.789 57.5167C186.789 57.8773 186.719 58.2344 186.581 58.5675C186.444 58.9007 186.243 59.2034 185.989 59.4584C185.735 59.7134 185.434 59.9157 185.102 60.0537C184.77 60.1917 184.415 60.2627 184.056 60.2627Z" fill="#041F30"/>
<path d="M169.875 36.9214H145.271C144.912 36.9218 144.556 36.8511 144.224 36.7133C143.892 36.5755 143.59 36.3733 143.336 36.1183C143.082 35.8632 142.88 35.5604 142.743 35.227C142.605 34.8936 142.534 34.5363 142.534 34.1754C142.534 33.8145 142.605 33.4571 142.743 33.1237C142.88 32.7904 143.082 32.4875 143.336 32.2325C143.59 31.9774 143.892 31.7752 144.224 31.6374C144.556 31.4996 144.912 31.4289 145.271 31.4293H169.875C170.6 31.4293 171.295 31.7186 171.808 32.2336C172.32 32.7486 172.608 33.4471 172.608 34.1754C172.608 34.9037 172.32 35.6021 171.808 36.1171C171.295 36.6321 170.6 36.9214 169.875 36.9214Z" fill="#041F30"/>
<path d="M304.268 204.14L253.56 231.9C252.157 232.666 250.509 232.842 248.977 232.388C247.445 231.935 246.155 230.89 245.389 229.483L212.195 168.298C211.432 166.889 211.257 165.233 211.708 163.695C212.159 162.156 213.2 160.86 214.601 160.091L265.309 132.331C266.712 131.565 268.36 131.39 269.892 131.843C271.424 132.296 272.714 133.341 273.479 134.749L306.674 195.933C307.437 197.342 307.611 198.998 307.16 200.537C306.709 202.075 305.669 203.371 304.268 204.14ZM214.969 160.769C213.746 161.44 212.839 162.571 212.445 163.913C212.052 165.255 212.204 166.699 212.869 167.929L246.064 229.113C246.732 230.341 247.858 231.253 249.194 231.648C250.53 232.044 251.968 231.89 253.192 231.222L303.9 203.462C305.122 202.791 306.03 201.661 306.424 200.319C306.817 198.976 306.664 197.532 305.999 196.303L272.805 135.118C272.137 133.89 271.011 132.978 269.675 132.583C268.339 132.188 266.901 132.341 265.677 133.009L214.969 160.769Z" fill="#3F3D56"/>
<path d="M254.537 144.752L230.83 157.73C229.711 158.341 228.397 158.481 227.175 158.119C225.953 157.758 224.924 156.925 224.314 155.802L223.821 154.895C223.213 153.771 223.074 152.45 223.434 151.223C223.793 149.996 224.623 148.962 225.741 148.349L249.448 135.371C250.567 134.76 251.881 134.62 253.103 134.981C254.324 135.342 255.353 136.176 255.964 137.298L256.456 138.206C257.065 139.33 257.204 140.65 256.844 141.877C256.484 143.105 255.655 144.138 254.537 144.752Z" fill="#CCCCCC"/>
<path d="M283.996 171.797L237.489 197.257C237.174 197.43 236.828 197.538 236.471 197.576C236.114 197.615 235.753 197.582 235.408 197.48C235.064 197.378 234.743 197.209 234.463 196.983C234.184 196.756 233.952 196.476 233.78 196.16C233.608 195.843 233.5 195.496 233.462 195.137C233.424 194.778 233.457 194.416 233.558 194.07C233.66 193.724 233.828 193.402 234.053 193.121C234.279 192.84 234.557 192.607 234.872 192.435L281.38 166.974C282.017 166.626 282.765 166.546 283.461 166.752C284.156 166.957 284.742 167.432 285.089 168.072C285.436 168.711 285.515 169.463 285.311 170.162C285.106 170.86 284.633 171.448 283.996 171.797Z" fill="#CCCCCC"/>
<path d="M289.556 182.045L243.048 207.505C242.733 207.677 242.387 207.786 242.03 207.824C241.673 207.862 241.312 207.83 240.968 207.728C240.624 207.626 240.303 207.457 240.023 207.23C239.744 207.004 239.512 206.724 239.34 206.408C239.168 206.091 239.06 205.743 239.022 205.385C238.984 205.026 239.016 204.664 239.118 204.318C239.219 203.972 239.388 203.649 239.613 203.369C239.839 203.088 240.117 202.855 240.432 202.682L286.94 177.222C287.255 177.05 287.601 176.941 287.958 176.903C288.315 176.865 288.676 176.897 289.02 176.999C289.365 177.101 289.686 177.27 289.965 177.497C290.244 177.723 290.477 178.003 290.648 178.319C290.82 178.636 290.928 178.983 290.966 179.342C291.004 179.701 290.972 180.063 290.87 180.409C290.769 180.755 290.601 181.078 290.375 181.358C290.15 181.639 289.871 181.872 289.556 182.045Z" fill="#CCCCCC"/>
<path d="M265.985 168.366L244.381 180.193C244.066 180.365 243.72 180.474 243.363 180.512C243.006 180.55 242.645 180.517 242.3 180.415C241.956 180.314 241.635 180.145 241.356 179.918C241.076 179.692 240.844 179.412 240.672 179.095C240.501 178.779 240.393 178.431 240.355 178.073C240.316 177.714 240.349 177.351 240.45 177.005C240.552 176.66 240.72 176.337 240.946 176.056C241.171 175.776 241.449 175.543 241.765 175.37L263.368 163.543C263.683 163.371 264.029 163.262 264.386 163.224C264.743 163.186 265.104 163.219 265.449 163.32C265.793 163.422 266.114 163.591 266.393 163.818C266.673 164.044 266.905 164.324 267.077 164.641C267.249 164.957 267.357 165.305 267.395 165.663C267.433 166.022 267.4 166.385 267.299 166.73C267.197 167.076 267.029 167.399 266.804 167.679C266.578 167.96 266.3 168.193 265.985 168.366Z" fill="#CCCCCC"/>
<path d="M107.294 63.1033L80.2836 78.8563L80.6694 79.5239L107.68 63.7709L107.294 63.1033Z" fill="#3F3D56"/>
<path d="M108.441 67.3314L112.256 60.6549L104.593 60.673L108.441 67.3314Z" fill="#3F3D56"/>
<path d="M187.233 166.735C187.172 166.735 187.112 166.72 187.058 166.692L83.2454 113.124C83.155 113.077 83.0867 112.996 83.0557 112.899C83.0247 112.802 83.0334 112.696 83.0799 112.605C83.1264 112.514 83.2069 112.445 83.3037 112.414C83.4006 112.383 83.5059 112.391 83.5966 112.438L187.409 166.005C187.486 166.045 187.547 166.109 187.583 166.188C187.619 166.267 187.627 166.355 187.607 166.44C187.587 166.524 187.539 166.599 187.471 166.652C187.403 166.706 187.319 166.735 187.233 166.735Z" fill="#3F3D56"/>
<path d="M184.485 169.258L192.139 168.88L187.987 162.41L184.485 169.258Z" fill="#3F3D56"/>
<path d="M294.347 211.026C293.807 210.756 293.332 210.37 292.957 209.896C292.581 209.421 292.313 208.87 292.172 208.28C292.032 207.691 292.021 207.078 292.142 206.484C292.263 205.89 292.512 205.329 292.871 204.843L289.784 174.525H296.455L298.909 204.129C299.683 204.79 300.189 205.713 300.331 206.724C300.472 207.734 300.24 208.762 299.678 209.612C299.116 210.462 298.262 211.076 297.28 211.336C296.298 211.597 295.254 211.486 294.347 211.026Z" fill="#A0616A"/>
<path d="M288.222 157.794C293.435 157.794 297.66 153.549 297.66 148.313C297.66 143.077 293.435 138.832 288.222 138.832C283.01 138.832 278.784 143.077 278.784 148.313C278.784 153.549 283.01 157.794 288.222 157.794Z" fill="#A0616A"/>
<path d="M286.074 192.141L271.988 189.051C271.618 188.969 271.285 188.767 271.039 188.477C270.794 188.186 270.65 187.823 270.63 187.443C270.467 184.286 270.35 176.117 272.772 168.492C273.239 167.03 273.994 165.677 274.991 164.514C275.989 163.35 277.208 162.399 278.578 161.717C279.947 161.035 281.439 160.635 282.965 160.543C284.491 160.45 286.02 160.666 287.461 161.177C288.983 161.714 290.373 162.568 291.543 163.683C292.712 164.797 293.634 166.148 294.247 167.646C294.861 169.144 295.152 170.755 295.101 172.373C295.051 173.992 294.661 175.582 293.956 177.038C290.832 183.482 288.865 188.148 288.109 190.908C287.991 191.336 287.715 191.702 287.336 191.932C286.958 192.161 286.506 192.236 286.074 192.141Z" fill="#041F30"/>
<path d="M272.804 282.21L268.093 282.21L265.852 263.956L272.805 263.957L272.804 282.21Z" fill="#A0616A"/>
<path d="M264.728 280.858H273.814V286.604H259.007C259.007 285.08 259.61 283.619 260.683 282.541C261.756 281.463 263.211 280.858 264.728 280.858Z" fill="#2F2E41"/>
<path d="M319.914 276.077L315.785 278.357L305.066 263.446L311.159 260.081L319.914 276.077Z" fill="#A0616A"/>
<path d="M312.188 278.8L320.15 274.403L322.906 279.439L309.931 286.604C309.2 285.269 309.027 283.696 309.45 282.233C309.874 280.769 310.858 279.535 312.188 278.8Z" fill="#2F2E41"/>
<path d="M272.89 272.074L265.637 271.513C265.232 271.482 264.85 271.309 264.559 271.023C264.268 270.736 264.087 270.356 264.049 269.949C263.015 259.12 258.48 204.239 270.746 187.343L270.78 187.296L270.835 187.275C270.944 187.235 281.883 183.317 288.159 190.497C288.356 190.725 288.49 191.001 288.548 191.298C288.607 191.594 288.587 191.9 288.491 192.187L288.252 192.908C288.184 193.113 288.165 193.331 288.199 193.544C288.232 193.757 288.315 193.959 288.443 194.133C290.184 196.498 296.046 205.607 298.35 223.519C298.365 223.633 298.394 223.745 298.437 223.852L315.447 265.826C315.533 266.04 315.577 266.27 315.574 266.501C315.571 266.732 315.523 266.961 315.431 267.173C315.339 267.385 315.206 267.577 315.039 267.737C314.873 267.897 314.676 268.021 314.461 268.104L309.108 270.152C308.719 270.299 308.289 270.301 307.898 270.157C307.507 270.013 307.181 269.732 306.978 269.367L282.423 224.616C282.326 224.438 282.174 224.296 281.991 224.209C281.808 224.122 281.602 224.096 281.403 224.134C281.204 224.172 281.022 224.272 280.883 224.42C280.744 224.568 280.656 224.756 280.629 224.958L274.738 270.565C274.684 270.983 274.48 271.367 274.165 271.646C273.85 271.924 273.444 272.078 273.024 272.078C272.98 272.078 272.935 272.077 272.89 272.074Z" fill="#2F2E41"/>
<path d="M251.53 159.326C251.577 159.534 251.608 159.746 251.622 159.959L268.129 169.525L272.142 167.205L276.419 172.83L269.713 177.631C269.172 178.019 268.519 178.22 267.854 178.203C267.189 178.187 266.547 177.955 266.025 177.541L249.003 164.051C248.235 164.337 247.398 164.381 246.604 164.177C245.811 163.974 245.098 163.532 244.56 162.911C244.022 162.291 243.685 161.52 243.594 160.702C243.503 159.885 243.661 159.058 244.049 158.334C244.437 157.609 245.035 157.02 245.764 156.645C246.493 156.269 247.318 156.126 248.131 156.234C248.943 156.342 249.703 156.695 250.31 157.248C250.917 157.8 251.343 158.525 251.53 159.326Z" fill="#A0616A"/>
<path d="M268.356 168.569C268.406 168.324 268.507 168.093 268.654 167.892C268.801 167.69 268.989 167.523 269.206 167.401L276.781 163.146C277.788 162.366 279.061 162.019 280.322 162.18C281.583 162.341 282.729 162.998 283.509 164.007C284.288 165.016 284.638 166.294 284.481 167.561C284.324 168.829 283.673 169.982 282.671 170.768L276.631 177.068C276.459 177.248 276.25 177.388 276.018 177.479C275.787 177.571 275.539 177.611 275.291 177.597C275.043 177.584 274.8 177.516 274.581 177.4C274.361 177.284 274.168 177.122 274.016 176.924L268.681 169.978C268.529 169.781 268.422 169.552 268.365 169.309C268.309 169.066 268.306 168.813 268.356 168.569Z" fill="#041F30"/>
<path d="M287.965 181.687C287.771 181.53 287.614 181.333 287.504 181.109C287.393 180.886 287.332 180.641 287.324 180.391L287.052 171.677C286.826 170.421 287.105 169.125 287.829 168.075C288.552 167.025 289.661 166.305 290.911 166.075C292.161 165.844 293.452 166.121 294.499 166.845C295.547 167.568 296.266 168.68 296.499 169.935L299.286 178.222C299.365 178.458 299.393 178.709 299.367 178.957C299.341 179.206 299.263 179.445 299.136 179.66C299.01 179.875 298.839 180.061 298.635 180.203C298.431 180.346 298.199 180.443 297.954 180.487L289.36 182.046C289.115 182.09 288.864 182.081 288.623 182.019C288.382 181.957 288.158 181.844 287.965 181.687Z" fill="#041F30"/>
<path d="M286.728 146.132C284.303 147.8 281.117 149.514 278.64 147.738C277.013 146.572 276.5 144.413 277.16 142.517C278.346 139.11 281.606 137.609 284.723 136.459C288.775 134.964 293.187 133.775 297.37 134.845C301.553 135.916 305.25 139.984 304.495 144.254C303.887 147.687 300.663 150.544 301.121 154C301.582 157.479 305.476 159.31 308.915 159.932C312.353 160.554 316.201 160.754 318.672 163.234C321.824 166.399 321.037 172.056 318.071 175.397C315.105 178.739 310.629 180.254 306.291 181.283C300.545 182.647 294.329 183.364 288.871 181.1C283.413 178.836 279.166 172.742 280.747 167.026C281.415 164.612 282.988 162.572 284.508 160.586C286.029 158.6 287.569 156.523 288.148 154.086C288.632 152.055 288.274 149.698 286.933 148.174C286.69 147.908 286.536 147.57 286.495 147.211C286.454 146.851 286.528 146.487 286.705 146.172L286.728 146.132Z" fill="#2F2E41"/>
<path d="M355.962 287H209.551C209.449 287 209.352 286.959 209.28 286.887C209.208 286.815 209.167 286.716 209.167 286.614C209.167 286.512 209.208 286.413 209.28 286.341C209.352 286.269 209.449 286.228 209.551 286.228H355.962C356.064 286.228 356.161 286.269 356.233 286.341C356.305 286.413 356.346 286.512 356.346 286.614C356.346 286.716 356.305 286.815 356.233 286.887C356.161 286.959 356.064 287 355.962 287Z" fill="#3F3D56"/>
</g>
<defs>
<clipPath id="clip0_2_491">
<rect width="357" height="287" fill="white"/>
</clipPath>
</defs>
</svg>
