<svg width="206" height="206" viewBox="0 0 206 206" fill="none" xmlns="http://www.w3.org/2000/svg">
<g clip-path="url(#clip0_2_347)">
<path d="M146.829 146.775H95.3292V77.0757L139.859 101.47L146.829 146.775Z" fill="#2F2E41"/>
<path d="M104.843 134.474C123.309 134.474 138.279 119.504 138.279 101.038C138.279 82.5716 123.309 67.6018 104.843 67.6018C86.377 67.6018 71.4073 82.5716 71.4073 101.038C71.4073 119.504 86.377 134.474 104.843 134.474Z" fill="#FFB6B6"/>
<path d="M85.6487 139.418L84.1382 124.148L114.303 118.508L132.115 161.876L101.137 197.501L79.066 154.132L85.6487 139.418Z" fill="#FFB6B6"/>
<path d="M176.974 174.67C176.599 175.061 176.215 175.448 175.832 175.832C174.616 177.048 173.377 178.229 172.111 179.375C153.137 196.583 128.793 206 103 206C79.221 206 56.6733 197.996 38.4314 183.263C38.4198 183.255 38.4121 183.247 38.4004 183.235C37.8467 182.79 37.3007 182.337 36.7548 181.876C36.8516 181.597 36.9561 181.323 37.0607 181.051C42.927 165.768 54.5126 158.291 61.5445 155.019C65.0294 153.396 67.3953 152.804 67.3953 152.804L75.6508 137.935L81.463 148.777L85.7456 156.769L103.318 189.555L118.477 151.809L123.174 140.107L124.378 137.11L130.105 141.567L135.526 145.784L146.442 148.192L155.298 150.148L167.325 152.804C172.188 156.765 175.146 164.3 176.8 173.663C176.862 173.996 176.92 174.333 176.974 174.67Z" fill="#041F30"/>
<path d="M87.2555 63.0404C91.3283 56.199 98.8085 51.505 106.74 50.8132C114.672 50.1213 122.852 53.4494 128.048 59.4824C131.144 63.0774 133.174 67.4802 136.192 71.1411C142.686 79.0192 153.761 83.6256 156.598 93.4335C157.836 97.7134 157.219 102.283 156.593 106.694C156.056 110.475 155.519 114.255 154.982 118.036C154.564 120.979 154.163 124.08 155.267 126.84C156.561 130.077 159.659 132.198 161.661 135.052C165.069 139.908 164.82 147.018 161.081 151.624C159.459 153.622 157.309 155.128 155.609 157.059C153.909 158.99 152.648 161.63 153.36 164.103C154.724 168.839 162.151 169.975 162.966 174.836C163.382 177.321 161.666 179.803 159.417 180.939C157.168 182.076 154.52 182.109 152.019 181.805C142.511 180.649 133.708 174.708 129.079 166.324C124.45 157.939 124.113 147.325 128.201 138.663C131.558 131.55 137.798 125.263 137.73 117.397C137.693 113.112 135.728 109.11 133.806 105.28C129.872 97.44 125.938 89.6005 122.004 81.7609C119.897 77.5616 117.451 73.0363 113.113 71.2322C109.76 69.838 105.956 70.3788 102.37 70.949C98.7839 71.5193 94.9851 72.0744 91.6223 70.7044C88.2595 69.3344 85.7186 65.264 87.3208 62.0055" fill="#2F2E41"/>
<path d="M93.1149 63.3976C86.655 61.2712 79.4085 64.6848 75.0352 69.8929C70.6618 75.1011 68.5404 81.7829 66.5195 88.2765C65.3619 91.996 64.2043 95.7156 63.0467 99.4351C61.9577 102.934 60.8688 106.433 59.7798 109.932C58.499 114.048 57.2076 118.42 58.2588 122.6C59.0188 125.622 60.9742 128.366 61.0163 131.482C61.0603 134.737 59.022 137.595 57.2357 140.316C55.4494 143.037 53.7726 146.27 54.6237 149.412C55.9182 154.191 62.5624 156.818 62.1982 161.755C62.0766 163.403 61.1237 164.928 61.141 166.58C61.163 168.682 62.8089 170.499 64.7373 171.336C66.6656 172.174 68.8347 172.219 70.9368 172.182C77.3845 172.069 83.8205 171.303 90.1148 169.901C92.5365 169.361 94.9991 168.699 97.0149 167.253C99.0307 165.806 100.535 163.41 100.272 160.943C99.8634 157.098 95.7297 154.917 93.6438 151.662C91.5949 148.464 91.6424 144.413 90.7588 140.72C89.5446 135.644 86.5458 131.213 84.2946 126.504C75.8312 108.802 78.7939 86.2385 91.5403 71.3213C92.6673 70.0024 93.8986 68.6755 94.3688 67.0056C94.839 65.3357 94.2329 63.2081 92.5993 62.6239" fill="#2F2E41"/>
<path d="M175.832 30.1681C156.378 10.7143 130.512 0 103 0C75.4882 0 49.622 10.7143 30.1681 30.1681C10.7143 49.622 0 75.4881 0 103C0 128.111 8.92537 151.851 25.2815 170.597C26.842 172.389 28.4722 174.136 30.1682 175.832C30.567 176.231 30.9697 176.63 31.3763 177.017C32.4605 178.066 33.5641 179.092 34.687 180.087C35.3685 180.695 36.0577 181.292 36.7547 181.876C37.3007 182.337 37.8467 182.79 38.4004 183.235C38.412 183.247 38.4198 183.255 38.4314 183.263C56.6732 197.996 79.221 206 103 206C128.793 206 153.137 196.583 172.111 179.375C173.377 178.229 174.616 177.048 175.832 175.832C176.215 175.448 176.599 175.061 176.974 174.67C178.02 173.594 179.034 172.498 180.025 171.387C196.819 152.521 206 128.467 206 103C206 75.4881 195.286 49.622 175.832 30.1681ZM179.774 170.422C178.806 171.522 177.814 172.606 176.8 173.663C175.22 175.309 173.59 176.904 171.905 178.442C171.267 179.03 170.62 179.603 169.965 180.173C163.356 185.923 155.999 190.833 148.064 194.744C145.28 196.118 142.427 197.369 139.507 198.488C128.165 202.84 115.856 205.226 103 205.226C90.5935 205.226 78.6982 203.003 67.6896 198.937C63.1708 197.272 58.8029 195.293 54.6094 193.028C53.9937 192.695 53.3819 192.358 52.7739 192.014C49.5755 190.201 46.4816 188.223 43.5117 186.085C41.2929 184.494 39.14 182.817 37.0607 181.052C36.3327 180.436 35.6125 179.812 34.9038 179.174C33.7499 178.147 32.6193 177.09 31.5157 176.006C29.4247 173.958 27.4267 171.824 25.5177 169.605C10.1025 151.7 0.774436 128.421 0.774436 103C0.774436 46.6327 46.6327 0.774436 103 0.774436C159.367 0.774436 205.226 46.6327 205.226 103C205.226 128.812 195.611 152.417 179.774 170.422Z" fill="#3F3D56"/>
</g>
<defs>
<clipPath id="clip0_2_347">
<rect width="206" height="206" fill="white"/>
</clipPath>
</defs>
</svg>
