<svg width="334" height="234" viewBox="0 0 334 234" fill="none" xmlns="http://www.w3.org/2000/svg">
<g clip-path="url(#clip0_2_406)">
<path d="M282.006 162.502C281.66 162.119 281.402 161.665 281.251 161.171C281.099 160.678 281.057 160.157 281.128 159.645C281.199 159.134 281.381 158.644 281.661 158.21C281.942 157.777 282.313 157.41 282.75 157.136L279.955 144.897L286.053 147.184L287.773 158.455C288.184 159.221 288.3 160.112 288.099 160.958C287.898 161.804 287.394 162.547 286.684 163.045C285.973 163.544 285.104 163.765 284.242 163.664C283.38 163.564 282.584 163.151 282.006 162.502Z" fill="#FFB8B8"/>
<path d="M281.584 152.789L276.223 142.403L276.948 116.251L277.292 116.979C277.694 117.826 287.1 137.78 286.43 144.46L287.505 150.564L281.584 152.789Z" fill="#3F3D56"/>
<path d="M278.088 229.542H282.388L284.432 212.928L278.088 212.928L278.088 229.542Z" fill="#FFB8B8"/>
<path d="M276.992 228.136L285.458 228.136H285.459C286.889 228.136 288.262 228.706 289.273 229.719C290.285 230.733 290.853 232.108 290.853 233.542V233.717L276.992 233.718L276.992 228.136Z" fill="#2F2E41"/>
<path d="M235.613 226.269L239.755 227.423L246.168 211.965L240.055 210.262L235.613 226.269Z" fill="#FFB8B8"/>
<path d="M234.932 224.62L243.089 226.892L243.09 226.892C244.468 227.276 245.638 228.194 246.342 229.442C247.045 230.69 247.225 232.167 246.842 233.549L246.795 233.718L233.44 229.997L234.932 224.62Z" fill="#2F2E41"/>
<path d="M273.802 223.065L265.126 160.822L246.388 222.713L231.654 217.672L252.771 134.797L252.91 134.787L275.032 133.246L291.015 218.035L273.802 223.065Z" fill="#2F2E41"/>
<path d="M271.508 105.467C271.508 105.467 263.443 101.251 252.573 103.007C252.573 103.007 246.787 116.994 252.573 122.561L254.151 136.561C254.151 136.561 268.878 145.345 273.787 135.156L273.086 123.561C273.086 123.561 276.592 118.001 273.787 113.93C272.106 111.443 271.303 108.464 271.508 105.467Z" fill="#041F30"/>
<path d="M272.53 169.146L273.945 139.714L269.939 104.702L270.123 104.674C275.378 103.88 277.063 112.952 277.133 113.338L286.28 165.158L272.53 169.146Z" fill="#3F3D56"/>
<path d="M254.696 169.453L238.525 167.652L238.53 167.475C238.587 165.077 239.979 108.678 243.879 104.684C247.802 100.666 255.205 102.404 255.518 102.481L255.674 102.518L254.343 126.383L254.696 169.453Z" fill="#3F3D56"/>
<path d="M257.674 135.745C257.185 135.906 256.665 135.957 256.154 135.896C255.642 135.834 255.15 135.66 254.712 135.388C254.274 135.115 253.902 134.749 253.62 134.316C253.339 133.883 253.156 133.394 253.084 132.883L240.787 130.469L245.35 125.814L256.328 128.82C257.193 128.755 258.052 129.011 258.742 129.539C259.432 130.067 259.905 130.829 260.071 131.683C260.237 132.537 260.084 133.421 259.643 134.17C259.201 134.919 258.501 135.479 257.674 135.745Z" fill="#FFB8B8"/>
<path d="M251.113 132.919L247.106 132.056C241.191 133.839 230.866 127.564 226.693 124.776C225.908 124.252 225.653 123.213 225.936 121.688C226.354 119.556 227.527 117.647 229.239 116.313L243.936 104.637L247.645 104.015L248.747 110.271L239.383 120.349L253.167 127.866L251.113 132.919Z" fill="#3F3D56"/>
<path d="M249.528 97.7112V89.5988C249.528 86.1666 250.889 82.8749 253.311 80.448C255.733 78.021 259.018 76.6576 262.443 76.6576C265.869 76.6576 269.154 78.021 271.576 80.448C273.998 82.8749 275.359 86.1666 275.359 89.5988V97.7112C275.358 98.1721 275.175 98.6139 274.85 98.9398C274.525 99.2657 274.084 99.449 273.624 99.4496H251.263C250.803 99.449 250.362 99.2657 250.036 98.9398C249.711 98.6139 249.528 98.1721 249.528 97.7112Z" fill="#2F2E41"/>
<path d="M261.924 99.3696C267.154 99.3696 271.393 95.1217 271.393 89.8816C271.393 84.6415 267.154 80.3936 261.924 80.3936C256.694 80.3936 252.455 84.6415 252.455 89.8816C252.455 95.1217 256.694 99.3696 261.924 99.3696Z" fill="#FFB8B8"/>
<path d="M252.195 89.8451C252.105 89.7405 252.038 89.6176 251.999 89.4847C251.96 89.3519 251.95 89.2122 251.969 89.0752L253.091 81.2487C253.113 81.0895 253.175 80.9383 253.27 80.8089C253.365 80.6794 253.491 80.5758 253.637 80.5074C259.362 77.8225 265.168 77.8191 270.893 80.4972C271.045 80.5694 271.176 80.6798 271.272 80.8177C271.369 80.9555 271.428 81.1162 271.444 81.2838L272.193 89.1204C272.205 89.2544 272.19 89.3896 272.148 89.5173C272.105 89.645 272.037 89.7625 271.946 89.8621C271.856 89.9617 271.746 90.0413 271.623 90.0957C271.5 90.1502 271.367 90.1783 271.233 90.1782H269.334C269.151 90.1778 268.971 90.1252 268.817 90.0265C268.662 89.9279 268.539 89.7873 268.461 89.621L267.641 87.8615C267.588 87.7476 267.5 87.6541 267.389 87.595C267.278 87.5359 267.151 87.5145 267.027 87.5341C266.903 87.5536 266.789 87.613 266.702 87.7034C266.614 87.7937 266.559 87.9099 266.543 88.0347L266.381 89.3321C266.352 89.5655 266.239 89.7803 266.063 89.9361C265.887 90.0918 265.66 90.1779 265.425 90.1782H252.924C252.785 90.1783 252.649 90.1485 252.523 90.0911C252.397 90.0336 252.286 89.9497 252.195 89.8451Z" fill="#2F2E41"/>
<path d="M212.429 15.5936H0V148.14H212.429V15.5936Z" fill="#E6E6E6"/>
<path d="M53.1515 41.1283H14.2451V66.468H53.1515V41.1283Z" fill="white"/>
<path d="M101.496 41.1283H62.5893V66.468H101.496V41.1283Z" fill="white"/>
<path d="M149.84 41.1283H110.934V66.468H149.84V41.1283Z" fill="white"/>
<path d="M198.184 41.1283H159.278V66.468H198.184V41.1283Z" fill="white"/>
<path d="M53.1515 76.9938H14.2451V102.333H53.1515V76.9938Z" fill="white"/>
<path d="M101.496 76.9938H62.5893V102.333H101.496V76.9938Z" fill="white"/>
<path d="M149.84 76.9938H110.934V102.333H149.84V76.9938Z" fill="white"/>
<path d="M198.184 76.9938H159.278V102.333H198.184V76.9938Z" fill="white"/>
<path d="M53.1515 112.859H14.2451V138.199H53.1515V112.859Z" fill="white"/>
<path d="M101.496 112.859H62.5893V138.199H101.496V112.859Z" fill="white"/>
<path d="M149.84 112.859H110.934V138.199H149.84V112.859Z" fill="white"/>
<path d="M198.184 112.859H159.278V138.199H198.184V112.859Z" fill="white"/>
<path d="M55.6362 31.1873C58.8593 31.1873 61.4722 28.5693 61.4722 25.3397C61.4722 22.1101 58.8593 19.4921 55.6362 19.4921C52.4131 19.4921 49.8003 22.1101 49.8003 25.3397C49.8003 28.5693 52.4131 31.1873 55.6362 31.1873Z" fill="white"/>
<path d="M152.124 31.1873C155.347 31.1873 157.96 28.5692 157.96 25.3397C157.96 22.1101 155.347 19.4921 152.124 19.4921C148.901 19.4921 146.288 22.1101 146.288 25.3397C146.288 28.5692 148.901 31.1873 152.124 31.1873Z" fill="white"/>
<path d="M57.9706 0H53.3018V26.8991H57.9706V0Z" fill="#E6E6E6"/>
<path d="M154.459 0H149.79V26.8991H154.459V0Z" fill="#E6E6E6"/>
<path d="M187.529 53.7982C187.527 55.9153 186.763 57.9605 185.376 59.5581C183.99 61.1556 182.075 62.1983 179.983 62.4944C177.891 62.7905 175.762 62.3202 173.989 61.17C172.215 60.0197 170.915 58.2667 170.328 56.233C169.741 54.1994 169.906 52.0217 170.792 50.1002C171.679 48.1786 173.228 46.6423 175.155 45.7734C177.082 44.9045 179.257 44.7615 181.28 45.3706C183.303 45.9797 185.04 47.3001 186.169 49.089C187.059 50.4978 187.531 52.131 187.529 53.7982Z" fill="#041F30"/>
<path d="M186.169 49.089L177.509 57.7653C176.965 56.9209 173.932 52.9968 173.932 52.9968C174.321 52.6032 174.735 52.2364 175.173 51.8988L177.688 55.2584L185.155 47.7762C185.534 48.1807 185.874 48.6203 186.169 49.089Z" fill="white"/>
<path d="M90.8407 89.6637C90.8387 91.7807 90.0743 93.8259 88.6879 95.4235C87.3016 97.0211 85.3865 98.0637 83.2944 98.3599C81.2024 98.656 79.074 98.1857 77.3002 97.0354C75.5265 95.8851 74.2266 94.1321 73.6395 92.0985C73.0523 90.0648 73.2172 87.8872 74.104 85.9657C74.9908 84.0441 76.5398 82.5078 78.4665 81.6389C80.3932 80.77 82.5681 80.627 84.5915 81.2361C86.615 81.8452 88.3512 83.1655 89.481 84.9545C90.3707 86.3633 90.8423 87.9965 90.8407 89.6637Z" fill="#041F30"/>
<path d="M89.481 84.9545L80.8204 93.6308C80.2761 92.7864 77.2435 88.8622 77.2435 88.8622C77.6322 88.4687 78.0469 88.1018 78.4849 87.7643L80.9995 91.1239L88.4668 83.6417C88.8455 84.0462 89.1851 84.4858 89.481 84.9545Z" fill="white"/>
<path d="M42.4965 89.6636C42.4945 91.7807 41.7301 93.8259 40.3437 95.4235C38.9574 97.0211 37.0423 98.0637 34.9502 98.3598C32.8581 98.656 30.7297 98.1857 28.956 97.0354C27.1822 95.8851 25.8823 94.1321 25.2952 92.0984C24.708 90.0648 24.8729 87.8871 25.7597 85.9655C26.6465 84.044 28.1955 82.5076 30.1222 81.6388C32.0489 80.7699 34.2238 80.6269 36.2473 81.236C38.2708 81.8451 40.0069 83.1654 41.1368 84.9544C42.0265 86.3632 42.4981 87.9964 42.4965 89.6636Z" fill="#041F30"/>
<path d="M41.1367 84.9545L32.4762 93.6308C31.9318 92.7864 28.8993 88.8622 28.8993 88.8622C29.2879 88.4687 29.7027 88.1018 30.1406 87.7643L32.6553 91.1239L40.1226 83.6417C40.5013 84.0462 40.8408 84.4858 41.1367 84.9545Z" fill="white"/>
<path d="M333.615 234H186.726C186.624 234 186.526 233.959 186.453 233.887C186.381 233.814 186.34 233.716 186.34 233.614C186.34 233.511 186.381 233.413 186.453 233.341C186.526 233.268 186.624 233.227 186.726 233.227H333.615C333.717 233.227 333.815 233.268 333.887 233.341C333.959 233.413 334 233.511 334 233.614C334 233.716 333.959 233.814 333.887 233.887C333.815 233.959 333.717 234 333.615 234Z" fill="#3F3D56"/>
</g>
<defs>
<clipPath id="clip0_2_406">
<rect width="334" height="234" fill="white"/>
</clipPath>
</defs>
</svg>
