<svg width="206" height="206" viewBox="0 0 206 206" fill="none" xmlns="http://www.w3.org/2000/svg">
<g clip-path="url(#clip0_2_383)">
<path d="M104.843 134.474C123.309 134.474 138.279 119.505 138.279 101.038C138.279 82.5723 123.309 67.6025 104.843 67.6025C86.377 67.6025 71.4072 82.5723 71.4072 101.038C71.4072 119.505 86.377 134.474 104.843 134.474Z" fill="#FFB6B6"/>
<path d="M85.6487 139.419L84.1382 124.149L114.303 118.509L132.115 161.877L101.137 197.501L79.066 154.133L85.6487 139.419Z" fill="#FFB6B6"/>
<path d="M83.6535 131.793L90.2483 133.283C90.2483 133.283 85.0641 116.843 86.8238 115.274C88.5834 113.705 92.8954 116.177 92.8954 116.177L97.4266 121.258L102.946 115.638C102.946 115.638 108.938 108.187 111.284 106.095C113.63 104.002 109.862 96.2348 109.862 96.2348C109.862 96.2348 144.67 86.8489 131.718 69.9661C131.718 69.9661 124.124 56.7292 121.651 61.0412C119.178 65.3532 116.229 58.5048 116.229 58.5048L107.225 60.2171C107.225 60.2171 89.454 49.7388 72.5872 72.1549C55.7203 94.5709 83.6535 131.793 83.6535 131.793Z" fill="#2F2E41"/>
<path d="M167.727 183.135C149.455 197.95 126.849 206 103 206C81.2228 206 60.4795 199.286 43.1283 186.84C43.1593 186.515 43.1903 186.194 43.2174 185.872C43.6782 180.839 44.0886 175.944 44.3596 171.886C45.409 156.13 82.1676 145.629 82.1676 145.629C82.1676 145.629 82.3341 145.795 82.6671 146.086C84.6962 147.867 92.9323 154.326 107.376 156.13C120.254 157.741 124.494 150.101 125.776 146.442C126.163 145.327 126.28 144.579 126.28 144.579L164.087 162.434C166.554 165.958 167.518 173.547 167.708 182.078C167.716 182.43 167.723 182.779 167.727 183.135Z" fill="#041F30"/>
<path d="M175.832 30.1682C156.378 10.7143 130.512 0 103 0C75.4881 0 49.622 10.7143 30.1682 30.1682C10.7143 49.622 0 75.4882 0 103C0 128.111 8.9254 151.851 25.2815 170.597C26.842 172.389 28.4722 174.136 30.1682 175.832C30.567 176.231 30.9697 176.63 31.3763 177.017C32.4605 178.066 33.5641 179.092 34.687 180.087C35.3685 180.695 36.0578 181.292 36.7548 181.876C37.3007 182.337 37.8467 182.79 38.4004 183.235C38.412 183.247 38.4198 183.255 38.4314 183.263C39.9687 184.502 41.533 185.694 43.1284 186.84C60.4796 199.286 81.2229 206 103 206C126.849 206 149.455 197.95 167.727 183.135C169.218 181.927 170.678 180.672 172.111 179.375C173.377 178.229 174.616 177.048 175.832 175.832C176.215 175.449 176.599 175.061 176.974 174.67C178.02 173.594 179.034 172.498 180.025 171.387C196.819 152.521 206 128.467 206 103C206 75.4882 195.286 49.622 175.832 30.1682ZM179.774 170.422C178.806 171.522 177.814 172.606 176.8 173.663C175.22 175.309 173.59 176.904 171.905 178.442C171.267 179.03 170.62 179.603 169.965 180.173C169.222 180.819 168.471 181.454 167.708 182.078C161.695 187.015 155.108 191.274 148.064 194.744C145.28 196.118 142.427 197.369 139.507 198.488C128.165 202.84 115.856 205.226 103 205.226C90.5935 205.226 78.6982 203.003 67.6896 198.937C63.1708 197.272 58.803 195.293 54.6094 193.028C53.9937 192.695 53.3819 192.358 52.774 192.014C49.5755 190.202 46.4817 188.223 43.5117 186.085C43.4149 186.016 43.3142 185.942 43.2174 185.872C41.1032 184.347 39.0471 182.74 37.0607 181.052C36.3327 180.436 35.6125 179.812 34.9038 179.174C33.7499 178.147 32.6193 177.09 31.5157 176.006C29.4247 173.958 27.4267 171.824 25.5177 169.605C10.1025 151.7 0.774436 128.421 0.774436 103C0.774436 46.6327 46.6327 0.774436 103 0.774436C159.367 0.774436 205.226 46.6327 205.226 103C205.226 128.812 195.611 152.417 179.774 170.422Z" fill="#3F3D56"/>
</g>
<defs>
<clipPath id="clip0_2_383">
<rect width="206" height="206" fill="white"/>
</clipPath>
</defs>
</svg>
