<svg width="276" height="175" viewBox="0 0 276 175" fill="none" xmlns="http://www.w3.org/2000/svg">
<g clip-path="url(#clip0_2_75)">
<path d="M58.5669 41.2114L69.0052 55.3879C69.0052 55.3879 77.9048 59.1111 88.3061 66.5867L85.8163 70.4536C85.8163 70.4536 68.6482 63.4595 64.2548 60.5044L56.232 47.9913L58.5669 41.2114Z" fill="#A0616A"/>
<path d="M94.548 73.4532C95.5441 72.0029 94.3613 69.4741 91.9062 67.8049C89.451 66.1357 86.6531 65.9583 85.6569 67.4086C84.6608 68.8589 85.8435 71.3878 88.2987 73.057C90.7539 74.7261 93.5518 74.9035 94.548 73.4532Z" fill="#A0616A"/>
<path d="M53.4648 29.1092L56.8808 28.1453C56.8808 28.1453 58.8693 28.149 59.9911 30.0922C61.1129 32.0353 69.0556 49.3607 68.6791 50.0318C68.3027 50.703 67.7771 50.8513 68.4517 51.2258C69.1263 51.6004 69.744 51.4105 69.2842 51.9717C68.8244 52.533 69.4598 53.766 69.4598 53.766L60.6972 60.198L53.4648 29.1092Z" fill="#041F30"/>
<path d="M40.2115 171.573L44.379 171.572L46.3615 155.579L40.2106 155.58L40.2115 171.573Z" fill="#A0616A"/>
<path d="M54.4899 171.478C54.6197 171.696 54.6882 172.398 54.6882 172.651C54.6882 173.428 54.0549 174.058 53.2737 174.058H40.3674C39.8345 174.058 39.4024 173.628 39.4024 173.098V172.563C39.4024 172.563 38.764 170.956 40.0785 168.976C40.0785 168.976 41.7122 170.527 44.1534 168.098L44.8733 166.801L50.0843 170.592L52.9727 170.946C53.6046 171.023 54.1649 170.934 54.4899 171.478Z" fill="#2F2E41"/>
<path d="M55.2952 167.532L59.4052 168.218L64.0236 152.773L57.9577 151.76L55.2952 167.532Z" fill="#A0616A"/>
<path d="M69.3919 169.793C69.4837 170.029 69.4344 170.732 69.3923 170.981C69.2628 171.748 68.5334 172.265 67.763 172.136L55.035 170.008C54.5095 169.921 54.155 169.425 54.2433 168.903L54.3323 168.375C54.3323 168.375 53.9702 166.686 55.5964 164.949C55.5964 164.949 56.9493 166.748 59.7612 164.755L60.6872 163.594L65.1948 168.192L67.9844 169.017C68.5947 169.198 69.1621 169.202 69.3919 169.793Z" fill="#2F2E41"/>
<path d="M63.8383 85.47C63.8383 85.47 69.4376 91.9918 69.4376 97.9701C69.4376 103.948 69.5741 122.728 69.5741 122.728C69.5741 122.728 66.2965 152.047 65.4771 154.492C64.6577 156.938 64.248 161.014 64.248 161.014L56.327 159.112C56.327 159.112 55.2345 131.53 58.5121 125.008L50.5911 102.726L47.8598 165.77H38.6645C38.6645 165.77 33.9298 132.617 36.388 123.921C36.388 123.921 30.9253 90.7689 32.291 88.8667C33.6567 86.9646 63.8383 85.47 63.8383 85.47Z" fill="#2F2E41"/>
<path d="M43.4896 20.5239L50.8643 21.0674L53.3225 25.1435C53.3225 25.1435 59.0584 27.5892 59.8778 31.1218C60.6972 34.6545 60.9703 75.9592 60.9703 75.9592L65.0674 81.9375L64.7942 87.1006L32.0178 88.731V83.7669L29.0133 77.8614C29.0133 77.8614 32.291 30.5784 33.1104 30.3066C33.9298 30.0349 40.2119 25.687 40.2119 25.687L43.4896 20.5239Z" fill="#041F30"/>
<path d="M46.8273 19.5126C51.9561 19.5126 56.1139 15.3761 56.1139 10.2734C56.1139 5.17071 51.9561 1.03418 46.8273 1.03418C41.6984 1.03418 37.5406 5.17071 37.5406 10.2734C37.5406 15.3761 41.6984 19.5126 46.8273 19.5126Z" fill="#A0616A"/>
<path d="M54.2451 2.84209C53.7726 1.50874 52.4616 0.699828 51.0409 0.731336C50.9807 0.732656 50.9205 0.732102 50.8609 0.729667C50.1455 0.700563 49.4587 0.45744 48.7571 0.314813C47.4496 0.0489682 46.0709 0.137973 44.8089 0.569681C44.4166 0.703879 44.0238 0.872628 43.609 0.872674C43.1942 0.872732 42.7423 0.646429 42.6411 0.246206C42.6171 0.608561 42.5932 0.970897 42.5692 1.33323C42.4342 1.03997 42.2992 0.746679 42.1642 0.453396L41.8939 1.62298L41.0278 0.645506C41.1053 1.07634 40.8528 1.51057 40.5109 1.78602C40.1691 2.06149 39.7469 2.21386 39.3422 2.38548C37.5955 3.12621 35.9555 4.43766 35.4522 6.25916C35.1342 7.40997 35.3005 8.63133 35.469 9.81299C35.618 10.8576 35.7799 11.9384 36.3506 12.8276C36.7165 13.3977 37.2439 13.8773 37.4666 14.5164C37.6743 15.112 37.5956 15.794 37.8911 16.3517C38.1877 16.912 38.8002 17.2289 39.3997 17.4418C39.9991 17.6547 40.6363 17.8053 41.1525 18.1757C41.6687 18.5462 42.2678 19.6134 43.3925 19.556L43.7555 18.8775C44.1289 18.5748 42.747 18.8148 42.7326 18.3358C42.7181 17.8568 44.3953 17.5609 44.1576 17.1441C43.7931 16.5049 43.2999 15.9487 42.8891 15.3379C42.4087 14.6236 42.0309 13.789 42.1967 12.9171C42.2612 12.578 42.4207 12.2576 42.6637 12.0113C43.3643 11.3011 44.1454 11.6133 44.9045 11.7148C45.4278 11.7849 46.0527 11.704 46.3244 11.2536C46.6422 10.7267 46.288 10.0564 46.3313 9.4434C46.3772 8.79387 46.8718 8.26125 47.4101 7.89094C47.9485 7.52064 48.5597 7.25085 49.0439 6.81287C49.5282 6.37486 49.8732 5.69059 49.6621 5.07427C51.9576 4.12347 52.309 4.03354 54.7262 4.61338C54.611 4.01198 54.4497 3.41943 54.2451 2.84209Z" fill="#2F2E41"/>
<path d="M15.0399 121.01V92.9664C15.0399 92.1973 15.3694 91.461 15.9441 90.9464C16.5186 90.432 17.289 90.183 18.058 90.2637C25.1819 89.3102 31.8913 89.7637 37.9719 92.3527C38.6607 92.3527 39.221 92.9102 39.221 93.5955V121.738C39.221 122.423 38.6607 122.98 37.9719 122.98C31.2786 121.419 24.2189 121.825 17.0198 122.98C15.9281 122.98 15.0399 122.097 15.0399 121.01Z" fill="#E6E6E6"/>
<path d="M15.0399 123.507V95.1665C15.0399 93.6679 16.2653 92.4488 17.7716 92.4488C24.5837 90.6755 31.3173 90.6725 37.9719 92.4488C38.6607 92.4488 39.221 93.0062 39.221 93.6915V121.546C39.221 122.23 38.6624 122.787 37.975 122.788C31.4134 121.653 24.3846 122.759 17.0198 125.477C15.9281 125.477 15.0399 124.593 15.0399 123.507Z" fill="#F2F2F2"/>
<path d="M30.7701 104.161H24.4002C22.1125 104.161 20.2514 102.309 20.2514 100.033C20.2514 97.7571 22.1125 95.9053 24.4002 95.9053H30.7701C33.058 95.9053 34.9191 97.7571 34.9191 100.033C34.9191 102.309 33.058 104.161 30.7701 104.161Z" fill="#E6E6E6"/>
<path d="M36.6082 48.4963L36.3647 63.1281C36.3647 63.1281 35.5866 74.5311 33.654 87.3637L29.0475 87.6561C29.0475 87.6561 29.6143 67.6196 29.4078 62.3473L29.7336 50.6372L36.6082 48.4963Z" fill="#A0616A"/>
<path d="M31.7859 96.4334C33.5506 96.3737 34.8992 93.9284 34.7981 90.9716C34.6971 88.0148 33.1847 85.6663 31.4201 85.7259C29.6555 85.7856 28.3069 88.2309 28.4079 91.1877C28.509 94.1445 30.0213 96.4931 31.7859 96.4334Z" fill="#A0616A"/>
<path d="M36.5367 29.8687L32.9882 29.9972C32.9882 29.9972 31.0974 30.6096 30.631 32.8019C30.1647 34.9941 26.8954 57.6821 27.4612 58.2054C28.027 58.7288 28.5729 58.709 28.0469 59.2719C27.5209 59.8348 26.8745 59.8432 27.4855 60.2364C28.0966 60.6297 27.8734 61.9974 27.8734 61.9974L37.6875 61.3056L36.5367 29.8687Z" fill="#041F30"/>
<path d="M270.654 160.593H176.241C175.694 160.593 175.151 160.509 174.629 160.345L174.574 160.323C145.011 145.706 119.665 137.728 97.0867 135.933L97.0008 135.916C94.7673 135.213 93.2667 133.175 93.2667 130.845V5.32388C93.2667 3.60993 94.0639 2.04588 95.4536 1.03299C96.8435 0.0200947 98.5825 -0.264124 100.226 0.252277L174.862 23.7395C175.309 23.8802 175.773 23.9514 176.241 23.9514H270.654C273.602 23.9514 276 26.3376 276 29.2706V155.273C276 158.206 273.602 160.593 270.654 160.593ZM174.89 159.62C175.328 159.755 175.783 159.823 176.241 159.823H270.654C273.175 159.823 275.227 157.782 275.227 155.273V29.2706C275.227 26.7618 273.175 24.7208 270.654 24.7208H176.241C175.694 24.7208 175.152 24.6376 174.629 24.4732L99.9924 0.986024C98.587 0.543447 97.0995 0.787278 95.9107 1.65365C94.7219 2.5202 94.0401 3.85789 94.0401 5.32388V130.845C94.0401 132.824 95.3052 134.556 97.1932 135.17C119.853 136.979 145.269 144.977 174.89 159.62Z" fill="#3F3D56"/>
<path d="M178.762 154.893C204.505 145.83 233.223 146.87 263.731 153.989C267.561 154.883 271.233 152.014 271.233 148.1V33.4097C271.233 30.6246 269.325 28.1894 266.606 27.5279C234.422 19.6978 204.36 18.2572 177.868 27.5615C175.927 28.2432 173.772 27.8739 172.135 26.6336C149.81 9.72664 126.963 1.24966 103.433 3.76669C100.355 4.09597 98.0332 6.70583 98.0332 9.78589V125.727C98.0332 128.831 100.394 131.427 103.498 131.748C128.824 134.368 152.096 142.311 173.739 154.473C175.271 155.334 177.103 155.477 178.762 154.893Z" fill="#F2F2F2"/>
<path d="M177.936 148.461C176.183 148.461 174.456 147.982 172.934 147.042C154.758 135.811 134.955 129.25 114.076 127.541C109.182 127.14 105.347 122.987 105.347 118.084V19.0521C105.347 13.9692 109.309 9.80434 114.367 9.57047C129.569 8.86528 148.026 15.6097 172.451 30.7879C174.517 32.0715 177.029 32.4526 179.344 31.8349C202.557 25.6359 227.719 25.4548 256.27 31.2814C260.702 32.186 263.92 36.1001 263.92 40.5884V137.253C263.92 140.17 262.601 142.88 260.302 144.686C257.985 146.507 255.005 147.159 252.124 146.477C225.115 140.081 201.923 140.544 181.22 147.891C180.145 148.273 179.035 148.461 177.936 148.461ZM116.538 10.2903C115.818 10.2903 115.108 10.3065 114.403 10.3392C109.759 10.5539 106.121 14.381 106.121 19.0521V118.084C106.121 122.589 109.643 126.406 114.14 126.774C135.142 128.493 155.061 135.092 173.342 146.388C175.617 147.794 178.394 148.077 180.96 147.166C201.807 139.767 225.144 139.297 252.303 145.729C254.952 146.356 257.692 145.756 259.822 144.083C261.935 142.422 263.146 139.933 263.146 137.253V40.5884C263.146 36.4638 260.189 32.8666 256.114 32.035C227.684 26.2327 202.638 26.4104 179.545 32.5781C177.023 33.251 174.288 32.8368 172.041 31.4405C148.894 17.0565 131.169 10.2903 116.538 10.2903Z" fill="white"/>
<path d="M176.18 32.4096L175.406 32.4167L176.482 148.285L177.256 148.278L176.18 32.4096Z" fill="white"/>
<path d="M112.887 24.7631L112.644 25.4934L166.794 43.3192L167.037 42.5888L112.887 24.7631Z" fill="#3F3D56"/>
<path d="M112.887 39.0238L112.644 39.7542L166.794 57.5799L167.037 56.8496L112.887 39.0238Z" fill="#3F3D56"/>
<path d="M112.887 53.2843L112.644 54.0146L166.794 71.8404L167.037 71.1101L112.887 53.2843Z" fill="#3F3D56"/>
<path d="M112.887 67.5448L112.644 68.2751L166.794 86.1009L167.037 85.3706L112.887 67.5448Z" fill="#3F3D56"/>
<path d="M254.112 43.3616H189.212V44.131H254.112V43.3616Z" fill="#3F3D56"/>
<path d="M254.112 56.8301H189.212V57.5995H254.112V56.8301Z" fill="#3F3D56"/>
<path d="M254.112 70.2981H189.212V71.0675H254.112V70.2981Z" fill="#3F3D56"/>
<path d="M254.112 83.7666H189.212V84.536H254.112V83.7666Z" fill="#3F3D56"/>
<path d="M254.112 97.2349H189.212V98.0043H254.112V97.2349Z" fill="#3F3D56"/>
<path d="M254.112 110.703H189.212V111.473H254.112V110.703Z" fill="#3F3D56"/>
<path d="M20.9816 168.332C20.1827 168.381 19.7412 167.394 20.3456 166.818L20.4057 166.581C20.3978 166.562 20.3899 166.542 20.3818 166.523C19.574 164.607 16.8359 164.62 16.0349 166.54C15.3239 168.243 14.4187 169.95 14.1958 171.751C14.0959 172.546 14.1409 173.356 14.3182 174.136C12.6523 170.516 11.7756 166.563 11.7756 162.587C11.7756 161.588 11.8306 160.589 11.943 159.593C12.0354 158.777 12.1628 157.967 12.3276 157.165C13.2193 152.826 15.1499 148.694 17.9347 145.243C19.2735 144.514 20.3899 143.376 21.0642 142.012C21.3065 141.52 21.4963 140.991 21.5862 140.452C21.4339 140.472 21.0118 138.163 21.1267 138.022C20.9144 137.701 20.5344 137.542 20.3025 137.229C19.1492 135.673 17.5604 135.945 16.7309 138.059C14.959 138.949 14.9418 140.424 16.0291 141.843C16.7208 142.746 16.8158 143.968 17.4227 144.934C17.3603 145.014 17.2953 145.091 17.2329 145.17C16.0879 146.632 15.0975 148.202 14.2627 149.852C14.4986 148.018 14.1503 145.809 13.5564 144.385C12.8804 142.763 11.6133 141.396 10.4975 139.994C9.15722 138.309 6.40884 139.044 6.17271 141.18C6.17042 141.201 6.1682 141.221 6.16602 141.242C6.33175 141.335 6.49412 141.434 6.65273 141.538C7.55739 142.133 7.24474 143.529 6.17281 143.693L6.14854 143.697C6.20849 144.291 6.31089 144.88 6.46073 145.459C5.02927 150.966 8.11969 152.972 12.5324 153.062C12.6298 153.112 12.7247 153.162 12.8221 153.209C12.3751 154.461 12.0179 155.746 11.7532 157.048C11.5159 158.199 11.351 159.361 11.2586 160.529C11.1437 162.003 11.1537 163.484 11.2786 164.955L11.2711 164.903C10.9539 163.283 10.0698 161.769 8.786 160.721C6.87356 159.158 4.17164 158.582 2.10846 157.326C1.1153 156.721 -0.157356 157.503 0.0159761 158.648L0.0244137 158.703C0.331615 158.827 0.631319 158.971 0.921046 159.133C1.08678 159.226 1.24915 159.325 1.40775 159.429C2.31242 160.024 1.99977 161.42 0.92784 161.584L0.903548 161.588C0.886069 161.59 0.871077 161.593 0.853622 161.595C1.38062 162.84 2.11489 163.996 3.03401 164.992C3.92907 169.8 7.77335 170.256 11.8855 168.856H11.888C12.3376 170.804 12.9945 172.708 13.8387 174.521H20.807C20.832 174.444 20.8544 174.365 20.8769 174.288C20.2325 174.328 19.5832 174.29 18.9488 174.174C19.4658 173.542 19.9828 172.906 20.4998 172.275C20.5123 172.263 20.5223 172.25 20.5323 172.238C20.7945 171.915 21.0592 171.594 21.3215 171.271L21.3216 171.271C21.338 170.279 21.2183 169.291 20.9816 168.332Z" fill="#F2F2F2"/>
<path d="M98.9204 174.542C98.9204 174.796 98.7154 175 98.4602 175H0.514373C0.259166 175 0.0542068 174.796 0.0542068 174.542C0.0542068 174.288 0.259166 174.084 0.514373 174.084H98.4602C98.7154 174.084 98.9204 174.288 98.9204 174.542Z" fill="#CCCCCC"/>
<path d="M256.838 150.205C261.75 150.205 265.732 146.244 265.732 141.357C265.732 136.47 261.75 132.508 256.838 132.508C251.926 132.508 247.944 136.47 247.944 141.357C247.944 146.244 251.926 150.205 256.838 150.205Z" fill="#041F30"/>
<path d="M261.003 141.023L255.485 137.853C255.227 137.705 254.905 137.89 254.905 138.186V140.972H253.25C253.036 140.972 252.863 141.144 252.863 141.357C252.863 141.569 253.036 141.741 253.25 141.741H254.905V144.527C254.905 144.823 255.227 145.008 255.485 144.86L261.003 141.69C261.261 141.542 261.261 141.172 261.003 141.023Z" fill="white"/>
<path d="M130.188 116.414C130.534 112.471 132.18 108.704 134.813 105.739C137.379 102.852 140.885 100.871 144.667 100.064C146.778 99.6133 148.965 99.5254 151.102 99.8288C151.614 99.9015 151.6 100.71 151.083 100.636C147.445 100.12 143.684 100.751 140.415 102.422C137.064 104.136 134.382 106.922 132.725 110.282C131.778 112.204 131.187 114.301 130.999 116.433C130.954 116.949 130.142 116.933 130.188 116.414Z" fill="white"/>
<path d="M150.202 96.5865L156.452 99.6543C156.679 99.7658 156.717 100.134 156.524 100.293L150.607 105.159C150.207 105.488 149.643 104.906 150.046 104.574L155.963 99.7086L156.035 100.347L149.785 97.2796C149.315 97.0492 149.737 96.3579 150.202 96.5865Z" fill="white"/>
</g>
<defs>
<clipPath id="clip0_2_75">
<rect width="276" height="175" fill="white"/>
</clipPath>
</defs>
</svg>
